<svg xmlns="http://www.w3.org/2000/svg" viewBox="0 0 289.85 74.42"><defs><style>.cls-1{fill:#4f4f4f;}.cls-2{fill:#fff;}.cls-3{fill:#f4bc3d;}.cls-4{fill:#d39822;}</style></defs><g id="Layer_2" data-name="Layer 2"><g id="Layer_1-2" data-name="Layer 1"><path d="M71.66,40.13H65.84v-5.3a1.4,1.4,0,0,0-1.4-1.4h-.06a1.4,1.4,0,0,0-1.4,1.4v5.3H61.29a1.36,1.36,0,0,0-1.36,1.36h0a1.36,1.36,0,0,0,1.36,1.36H63V55.53a6.6,6.6,0,0,0,1.55,4.62A5.8,5.8,0,0,0,69,61.84a7.93,7.93,0,0,0,3.4-.73,1,1,0,0,0,.54-.89v-.85a1,1,0,0,0-.47-.85,1,1,0,0,0-1-.05,5.48,5.48,0,0,1-2.5.6,2.93,2.93,0,0,1-2.36-.85,4.19,4.19,0,0,1-.78-2.76V42.86h5.82A1.34,1.34,0,0,0,73,41.52v-.05A1.34,1.34,0,0,0,71.66,40.13Z"/><path d="M86.2,39.66a8.18,8.18,0,0,0-3.33.67,9.1,9.1,0,0,0-2.61,1.72,9.82,9.82,0,0,0-1,1.12V41.54a1.41,1.41,0,0,0-1.41-1.41h0a1.42,1.42,0,0,0-1.42,1.41V60.08a1.41,1.41,0,0,0,1.41,1.41h0a1.41,1.41,0,0,0,1.41-1.41V50.46a8.38,8.38,0,0,1,.48-2.66,9.46,9.46,0,0,1,1.41-2.64,7.75,7.75,0,0,1,2.17-2A5,5,0,0,1,86,42.44h.19a1,1,0,0,0,1-1v-.78A1,1,0,0,0,86.2,39.66Z"/><path d="M92,40.13h0a1.42,1.42,0,0,0-1.42,1.42V60.1A1.39,1.39,0,0,0,92,61.49h.07a1.39,1.39,0,0,0,1.39-1.39V41.55A1.41,1.41,0,0,0,92,40.13Z"/><path d="M114.21,42.44a8,8,0,0,0-2.89-2.06,9.77,9.77,0,0,0-3.86-.72,8.74,8.74,0,0,0-6,2.26,9.93,9.93,0,0,0-.73.72V41.53a1.4,1.4,0,0,0-1.4-1.4h-.05a1.4,1.4,0,0,0-1.4,1.4V60.1a1.39,1.39,0,0,0,1.39,1.39h.07a1.39,1.39,0,0,0,1.39-1.39V49.76a7.77,7.77,0,0,1,2-5.23A6.66,6.66,0,0,1,104.77,43a6.19,6.19,0,0,1,2.59-.54,7,7,0,0,1,2.8.52,5.28,5.28,0,0,1,2,1.4,6.09,6.09,0,0,1,1.19,2.21,10.34,10.34,0,0,1,.42,3v10.5a1.38,1.38,0,0,0,1.38,1.38h.09a1.38,1.38,0,0,0,1.38-1.38V49.53a12.6,12.6,0,0,0-.59-4A8.94,8.94,0,0,0,114.21,42.44Z"/><path d="M141.34,46.52A10.36,10.36,0,0,0,139.08,43a11,11,0,0,0-3.51-2.41A11.17,11.17,0,0,0,123,43a11,11,0,0,0-2.24,3.55,11.73,11.73,0,0,0-.78,4.3,11.41,11.41,0,0,0,.79,4.24A10.52,10.52,0,0,0,123,58.65a11,11,0,0,0,3.49,2.41,11.88,11.88,0,0,0,9.07,0,10.54,10.54,0,0,0,3.51-2.44,10.83,10.83,0,0,0,2.23-3.56,11.78,11.78,0,0,0,.79-4.33A11.57,11.57,0,0,0,141.34,46.52ZM131.1,59.18a8.09,8.09,0,0,1-5.95-2.44,8.13,8.13,0,0,1-1.7-2.66,8.86,8.86,0,0,1-.61-3.31,9,9,0,0,1,.59-3.24,7.86,7.86,0,0,1,4.25-4.44,8.85,8.85,0,0,1,6.66,0,8,8,0,0,1,4.33,4.45,8.86,8.86,0,0,1,.61,3.31,9,9,0,0,1-.59,3.24A8.07,8.07,0,0,1,137,56.74a7.9,7.9,0,0,1-2.59,1.79A8.28,8.28,0,0,1,131.1,59.18Z"/><circle cx="92.04" cy="35.58" r="1.62"/><path class="cls-1" d="M163.24,50.29H156.3a.6.6,0,0,0-.6.61v.64a.61.61,0,0,0,.6.61h6.3a.64.64,0,0,1,.64.63v5a11,11,0,0,1-1.15.82,12.45,12.45,0,0,1-1.63.85,9.53,9.53,0,0,1-1.85.59,9,9,0,0,1-2,.22,8.9,8.9,0,0,1-3.75-.75,8.33,8.33,0,0,1-2.77-2,9.16,9.16,0,0,1-1.73-3,10.59,10.59,0,0,1-.61-3.6,10,10,0,0,1,.63-3.54,9.57,9.57,0,0,1,1.79-3,8.88,8.88,0,0,1,2.77-2.09,8.27,8.27,0,0,1,3.64-.78,8.64,8.64,0,0,1,3.49.63,12.91,12.91,0,0,1,2.85,1.77.56.56,0,0,0,.38.14.62.62,0,0,0,.47-.22l.41-.5a.6.6,0,0,0-.08-.85,14.28,14.28,0,0,0-1.6-1.18,11.1,11.1,0,0,0-1.72-.87,10.52,10.52,0,0,0-1.93-.54,13,13,0,0,0-2.24-.18,10.31,10.31,0,0,0-4.47.94,10.75,10.75,0,0,0-3.38,2.5,11,11,0,0,0-2.13,3.57,11.86,11.86,0,0,0-.74,4.17,12.82,12.82,0,0,0,.7,4.31,10.42,10.42,0,0,0,2.1,3.56A10.24,10.24,0,0,0,152,61.21a10.86,10.86,0,0,0,4.52.9,11.25,11.25,0,0,0,4.74-1,14.45,14.45,0,0,0,3.14-1.94,1.83,1.83,0,0,0,.68-1.45V52.14A1.85,1.85,0,0,0,163.24,50.29Z"/><path class="cls-1" d="M179.12,40.29a.59.59,0,0,0-.55-.35H178a.6.6,0,0,0-.55.35l-9.85,20.6a.59.59,0,0,0,0,.59.59.59,0,0,0,.51.28h.67a.6.6,0,0,0,.55-.34L172,56a.64.64,0,0,1,.57-.37H184a.64.64,0,0,1,.57.37l2.58,5.43a.61.61,0,0,0,.55.34h.7a.6.6,0,0,0,.52-.28.62.62,0,0,0,0-.59Zm4,12.62a.63.63,0,0,1,0,.62.63.63,0,0,1-.54.29H174a.63.63,0,0,1-.57-.91l4.25-8.9a.61.61,0,0,1,.57-.36.63.63,0,0,1,.58.36Zm-4.69-9.83a1.15,1.15,0,0,1,.73.39A1.15,1.15,0,0,0,178.42,43.08Zm-.14,0a1.21,1.21,0,0,0-.64.18A1.21,1.21,0,0,1,178.28,43Zm-5.37,9.61L175,48.2l-2.12,4.45a1.18,1.18,0,0,0-.12.63A1.18,1.18,0,0,1,172.91,52.65Z"/><path class="cls-1" d="M203.29,40.09H187.86a.6.6,0,0,0-.61.6v.59a.61.61,0,0,0,.61.61H194a.64.64,0,0,1,.64.63V61.15a.61.61,0,0,0,.61.61h.64a.61.61,0,0,0,.61-.61V42.52a.63.63,0,0,1,.63-.63h6.15a.61.61,0,0,0,.61-.61v-.59A.6.6,0,0,0,203.29,40.09Zm-8.79,1.29a1.25,1.25,0,0,1,.66.66A1.25,1.25,0,0,0,194.5,41.38Zm1.4,1.14a1.25,1.25,0,0,1,1.24-1.24A1.25,1.25,0,0,0,195.9,42.52Z"/><path class="cls-1" d="M221.56,60H209a.64.64,0,0,1-.64-.64V52.4a.64.64,0,0,1,.64-.63h11.15a.62.62,0,0,0,.61-.61v-.59a.62.62,0,0,0-.61-.61H209a.64.64,0,0,1-.64-.63V42.52a.64.64,0,0,1,.64-.63h12.4a.61.61,0,0,0,.61-.61v-.59a.6.6,0,0,0-.61-.6h-13a1.86,1.86,0,0,0-1.86,1.85v18a1.86,1.86,0,0,0,1.86,1.85h13.19a.61.61,0,0,0,.61-.61v-.58A.61.61,0,0,0,221.56,60ZM209,60.57a1.25,1.25,0,0,1-1.25-1.25A1.25,1.25,0,0,0,209,60.57Zm-1.25-8.17A1.25,1.25,0,0,1,209,51.16,1.25,1.25,0,0,0,207.76,52.4ZM209,50.57a1.24,1.24,0,0,1-1.25-1.24A1.24,1.24,0,0,0,209,50.57Zm-1.25-8A1.25,1.25,0,0,1,209,41.28,1.25,1.25,0,0,0,207.76,42.52Z"/><path class="cls-1" d="M251.85,40.09h-.65a.59.59,0,0,0-.58.42l-5.23,15.94a.64.64,0,0,1-1.21,0l-5.09-16a.6.6,0,0,0-.58-.42H238a.61.61,0,0,0-.58.42l-5.05,16a.64.64,0,0,1-1.22,0L225.94,40.5a.61.61,0,0,0-.58-.41h-.67a.62.62,0,0,0-.5.25.63.63,0,0,0-.08.55l6.81,20.6a.6.6,0,0,0,.58.42h.55a.6.6,0,0,0,.58-.43l5-15.74a.64.64,0,0,1,.61-.45.63.63,0,0,1,.61.45l5,15.75a.62.62,0,0,0,.58.42H245a.62.62,0,0,0,.58-.42L252.39,41a.61.61,0,0,0-.54-.87Zm-6.36,17.2c-.07,0-.16,0-.23.07S245.42,57.33,245.49,57.29Zm-.71.21a1.26,1.26,0,0,1-.52-.16A1.26,1.26,0,0,0,244.78,57.5Zm-1.18-.87a1.19,1.19,0,0,0,.47.65,1.19,1.19,0,0,1-.47-.65l-5.09-16Zm-11.83.84a1.13,1.13,0,0,0,.47-.15A1.13,1.13,0,0,1,231.77,57.47Zm6.48-12.78a1.22,1.22,0,0,0-.45.13A1.22,1.22,0,0,1,238.25,44.69Zm-5.38,12a1.15,1.15,0,0,1-.39.54A1.15,1.15,0,0,0,232.87,56.71Zm-1.54.63c-.09,0-.19,0-.27-.09C231.14,57.31,231.24,57.3,231.33,57.34Zm.72,4,5-15.75a1.3,1.3,0,0,1,.48-.65,1.3,1.3,0,0,0-.48.65Zm6.6-16.49a1,1,0,0,1,.31.09A1,1,0,0,0,238.65,44.81Zm.79.74a1.25,1.25,0,0,0-.38-.51,1.25,1.25,0,0,1,.38.51l5,15.75Z"/><path class="cls-1" d="M262.73,40.29a.61.61,0,0,0-.55-.35h-.56a.6.6,0,0,0-.55.35l-9.85,20.6a.62.62,0,0,0,0,.59.59.59,0,0,0,.51.28h.67a.6.6,0,0,0,.55-.34L255.58,56a.64.64,0,0,1,.57-.37h11.47a.64.64,0,0,1,.57.37l2.58,5.43a.61.61,0,0,0,.55.34H272a.6.6,0,0,0,.51-.28.62.62,0,0,0,0-.59Zm-6.22,12.36,4.25-8.9a1.18,1.18,0,0,1,.48-.53,1.18,1.18,0,0,0-.48.53l-4.25,8.9a1.18,1.18,0,0,0-.12.63A1.18,1.18,0,0,1,256.51,52.65Zm5.37-9a.63.63,0,0,1,.58.36l4.25,8.9a.64.64,0,0,1-.57.91h-8.51a.63.63,0,0,1-.57-.91l4.25-8.9A.61.61,0,0,1,261.88,43.65Zm5.31,10.2a1.25,1.25,0,0,1-1.05.58A1.25,1.25,0,0,0,267.19,53.85ZM261.88,43a1.24,1.24,0,0,1,.88.43A1.24,1.24,0,0,0,261.88,43ZM255,55.73l-2.59,5.42L255,55.73a1.16,1.16,0,0,1,.46-.52A1.16,1.16,0,0,0,255,55.73Zm13.71,0a1.23,1.23,0,0,0-1.12-.71h0a1.23,1.23,0,0,1,1.12.71l2.58,5.42Z"/><path class="cls-1" d="M289.24,40.09h-.77a.58.58,0,0,0-.49.25l-7.15,9.94a.63.63,0,0,1-1,0l-7.23-9.94a.61.61,0,0,0-.49-.25h-.77a.6.6,0,0,0-.54.33.62.62,0,0,0,.05.63l8.42,11.57a.63.63,0,0,1,.12.37v8.16a.61.61,0,0,0,.61.61h.64a.61.61,0,0,0,.61-.61V53a.63.63,0,0,1,.12-.37l8.35-11.52a.6.6,0,0,0-.45-1Zm-8.93,11.06a1.11,1.11,0,0,0,.36-.08A1.11,1.11,0,0,1,280.31,51.15Zm1-.51a1.16,1.16,0,0,1-.45.38A1.16,1.16,0,0,0,281.32,50.64Zm-1.36.43a1.18,1.18,0,0,1-.2,0A1.18,1.18,0,0,0,280,51.07Zm-.23,1.19-8.42-11.57,8.42,11.57A1.3,1.3,0,0,1,280,53,1.3,1.3,0,0,0,279.73,52.26Zm1.12,0a1.23,1.23,0,0,0-.24.73,1.23,1.23,0,0,1,.24-.73l8.38-11.57Z"/><path class="cls-2" d="M23.44,66.06c1.09-.73-1.77-.45-2-.94a19.16,19.16,0,0,1-3.37-.6c-2-.53-5.25-4.14-5.77-7.24s-1.59-8.68.58-12.18a20.49,20.49,0,0,1,5.19-5.55s-4.23-10-4.59-17.62S13.71.84,18.66.6,22.88,13,22,21.21a106.56,106.56,0,0,0-.25,16.41,23.26,23.26,0,0,1,6.52-1.08,24.77,24.77,0,0,1,5.79.54s1.57-11.64,6.75-18.87S51.47,3.48,55.08,5.6s-1,9.68-4.1,13.61-8.56,9.85-10.37,13a55.44,55.44,0,0,0-3.14,6.51A17.7,17.7,0,0,1,45,46.19c2.44,5.06,1.09,11-.24,13.64s-3.18,5-5,5c-1.57.07-8.18,1.72-8.18,1.72Z"/><path d="M31.64,67.19l-10-.66.75-.5a2.86,2.86,0,0,1-1.23-.33,21.27,21.27,0,0,1-3.27-.61c-2.25-.59-5.66-4.43-6.21-7.72l-.07-.44c-.54-3.22-1.45-8.61.74-12.14a21.31,21.31,0,0,1,5-5.44c-.82-2-4.12-10.59-4.45-17.39C12.78,19.75,12,.33,18.63,0a2.94,2.94,0,0,1,2.42,1c2.22,2.34,2.73,9,1.57,20.27a107.25,107.25,0,0,0-.28,15.57,23.62,23.62,0,0,1,6-.89,28.6,28.6,0,0,1,5.3.42c.41-2.55,2.19-12.12,6.77-18.51,5.35-7.46,10.89-15.18,15-12.77a3.15,3.15,0,0,1,1.55,2.24c.79,4.23-4.84,11.44-5.48,12.25-1,1.3-2.3,2.79-3.64,4.37a78.59,78.59,0,0,0-6.69,8.54,55.33,55.33,0,0,0-2.89,5.94,18.06,18.06,0,0,1,7.34,7.5c2.66,5.51,1,11.67-.24,14.16-.79,1.58-2.91,5.27-5.54,5.38-1.24.06-6.23,1.25-8.06,1.7Zm-7.41-1.67,7.31.48a83.31,83.31,0,0,1,8.2-1.71c1.37-.06,3.11-1.87,4.53-4.73,1.35-2.68,2.52-8.39.24-13.11a17.24,17.24,0,0,0-7.29-7.2l-.5-.24.2-.52A57.35,57.35,0,0,1,40.1,31.9a77.82,77.82,0,0,1,6.81-8.72c1.33-1.57,2.59-3.05,3.61-4.33,3-3.73,5.74-8.67,5.24-11.3a2,2,0,0,0-1-1.44c-3.21-1.88-8.89,6.07-13.46,12.44-5,7-6.63,18.5-6.65,18.61l-.09.66L34,37.66a24.34,24.34,0,0,0-5.63-.53,22.82,22.82,0,0,0-6.33,1l-.73.25-.06-.76a109.84,109.84,0,0,1,.25-16.52c1.11-10.79.68-17.29-1.25-19.34a1.91,1.91,0,0,0-1.51-.62C15,1.37,13.58,11.74,14.06,21.9c.35,7.4,4.5,17.33,4.54,17.43l.19.44-.4.27a20,20,0,0,0-5,5.37c-1.95,3.15-1.09,8.26-.57,11.32l.07.45c.5,3,3.68,6.33,5.34,6.77a18.3,18.3,0,0,0,3.26.58l.34,0,.09.18a5.66,5.66,0,0,0,.81.14C23.45,65,24,65,24.23,65.52Z"/><path d="M19.18,39l1.13-.88s-.16-10.29,0-16.57.48-14.07-1.61-14S15.16,13.62,16,22.15A103.38,103.38,0,0,0,19.18,39Z"/><path d="M35,37.18S39,26.89,42.5,21.1s8-9.61,9.44-8.72-2.71,5.75-6.68,11-8.79,14.64-8.79,14.64Z"/><path d="M33,58.54a.22.22,0,0,0-.3.08S32,59.81,31,59.88a2.49,2.49,0,0,1-1.78-.83V57.29c.64-.34,1.67-1.41,1.67-1.77a1.65,1.65,0,0,0-1.77-1.29c-1.16,0-2,.76-2,1.41s1.3,1.45,1.67,1.7v1.72a2.13,2.13,0,0,1-1.55.82c-.94,0-1.65-1.28-1.65-1.29a.22.22,0,0,0-.3-.09.22.22,0,0,0-.09.3c0,.06.84,1.52,2,1.52A2.46,2.46,0,0,0,29,59.46a2.86,2.86,0,0,0,1.88.86h.14a2.94,2.94,0,0,0,2-1.48A.21.21,0,0,0,33,58.54Z"/><path d="M20.32,51.27a1.8,1.8,0,1,0,1.79,1.79A1.8,1.8,0,0,0,20.32,51.27Zm.51,1.66a.48.48,0,0,1-.49-.48.49.49,0,1,1,1,0A.48.48,0,0,1,20.83,52.93Z"/><path d="M38,51.27a1.8,1.8,0,1,0,1.79,1.79A1.8,1.8,0,0,0,38,51.27Zm.51,1.66a.48.48,0,0,1-.49-.48.49.49,0,0,1,1,0A.48.48,0,0,1,38.5,52.93Z"/><path d="M49.67,47.06v-8a2.9,2.9,0,0,0,2.27-2.7,3.14,3.14,0,0,0-6.24,0A2.9,2.9,0,0,0,48,39.11v7.75h-.23c-2.32-8.2-9.35-13.3-18.47-13.3s-16.15,5-18.48,13.3H10a3.25,3.25,0,0,0-3.4,3.06V56A3.26,3.26,0,0,0,10,59.09h1.08a15.36,15.36,0,0,0,4.25,6L13.8,66.47a.94.94,0,0,0-.12,1.33c3.46,4.18,9.13,6.62,15.53,6.62S41.28,72,44.74,67.8a1,1,0,0,0-.11-1.33L43.1,65.1a15.72,15.72,0,0,0,4.25-6h1.19A3.26,3.26,0,0,0,51.94,56V49.92A3.09,3.09,0,0,0,49.67,47.06Zm-20.4-4.79c8.44,0,15.3,5.56,15.3,12.38,0,7.39-7.71,10.7-15.3,10.7S14,62,14,54.65C14,47.83,20.82,42.27,29.27,42.27Z"/><path class="cls-2" d="M50.24,54H48c0-.35.06-.71.06-1.12a22.23,22.23,0,0,0-.46-4.48h1a1.59,1.59,0,0,1,1.7,1.53Z"/><path class="cls-2" d="M48.54,57.56H47.35A20.92,20.92,0,0,0,47.86,55h2.38v1A1.59,1.59,0,0,1,48.54,57.56Z"/><path class="cls-2" d="M29.27,72.84c-5.67,0-10.71-2-13.89-5.65L17,65.76a21.1,21.1,0,0,0,12.3,3.52,21.12,21.12,0,0,0,12.3-3.52l1.58,1.43C40,70.81,34.94,72.84,29.27,72.84Z"/><path class="cls-2" d="M10,48.39h1a23.39,23.39,0,0,0-.45,4.48,8.78,8.78,0,0,0,0,1.12H8.36V49.92A1.51,1.51,0,0,1,10,48.39Z"/><path class="cls-2" d="M29.27,41.25a20.44,20.44,0,0,0-5.67.82V35.9a21.53,21.53,0,0,1,11.34,0v6.22A18.79,18.79,0,0,0,29.27,41.25Z"/><path class="cls-2" d="M22.47,36.26v6.22c-5.67,2.09-9.64,6.77-9.64,12.17,0,7,6.63,11.72,16.44,11.72S45.7,61.69,45.7,54.65c0-5.4-4-10.08-9.63-12.17V36.26c6.63,2.4,10.77,8.51,10.77,16.66,0,9.17-7,15.34-17.57,15.34S11.7,62.09,11.7,52.87C11.7,44.77,15.84,38.66,22.47,36.26Z"/><path class="cls-2" d="M8.3,55h2.38a17.71,17.71,0,0,0,.51,2.55H10A1.59,1.59,0,0,1,8.3,56Z"/><ellipse class="cls-2" cx="48.82" cy="36.41" rx="1.42" ry="1.27"/><polygon class="cls-3" points="3.56 32.29 3.12 33.31 6.81 37.35 8.98 41.28 11.11 45.27 33.85 33.92 31.56 29.21 30.21 26.43 29.42 22.45 29.17 20.2 28.34 20.18 27.16 23.58 25.67 25.61 24.82 26.41 23.59 26.9 21.37 26.12 16.81 23.19 13.63 20.26 12.51 20.77 13.02 28.25 12.67 31.47 11.75 32.85 10.27 33.6 8.25 33.74 6.43 33.39 3.56 32.29"/><polygon class="cls-4" points="6.72 28.51 7.4 30.55 7.77 32.42 7.81 33.69 10.04 33.78 11.45 33.19 12.35 31.55 12.67 29.87 12.72 29.01 8.18 27.01 7.59 27.78 6.72 28.51"/><polygon class="cls-4" points="23.16 20.2 26.57 24.38 25.34 26.01 24.02 26.79 22.84 26.74 22.25 26.33 22.41 23.68 22.57 21.92 22.69 20.68 23.16 20.2"/><circle class="cls-3" cx="1.96" cy="31.46" r="1.45"/><circle class="cls-4" cx="6.38" cy="26.49" r="1.45"/><circle class="cls-3" cx="12.44" cy="19" r="1.45"/><circle class="cls-3" cx="28.59" cy="18.45" r="1.45"/><polygon class="cls-4" points="8.77 40.7 31.52 29.53 32.74 31.78 9.99 43.05 8.77 40.7"/><path d="M22.9,18.32a.41.41,0,0,0,.05.09,1.27,1.27,0,0,1-.18,1.37l-.11,1.08.09,0L23,20.7c.76,1.12,2.69,3.44,3,3.83a4,4,0,0,1-2.16,1.93c-.42.09-1.34,0-3.27-1.2l-.73-.47c-.55-.37-1.16-.82-1.86-1.35-1.73-1.34-3.27-2.74-3.86-3.29a2.07,2.07,0,1,0-2.06,1,40.07,40.07,0,0,1,.47,7.34L8.59,26.87a2,2,0,0,0-.18-1.28,2.07,2.07,0,1,0-2.12,3,13.15,13.15,0,0,1,1.13,4.6A16.46,16.46,0,0,1,4.08,32,2.07,2.07,0,1,0,2.7,33.5a36.83,36.83,0,0,1,4,4.83c.79,1.23,1.89,3.33,2.7,5,0,0,0,0,0,0l0,0c.61,1.23,1.06,2.16,1.07,2.18a.4.4,0,0,0,.24.22.44.44,0,0,0,.32,0L34.23,34.34a.4.4,0,0,0,.21-.25.38.38,0,0,0,0-.33,67.65,67.65,0,0,1-3.57-7.23,35.25,35.25,0,0,1-1.17-6.34,2.07,2.07,0,1,0-3-.79,2,2,0,0,0,1.17,1,19.51,19.51,0,0,1-1.38,3.34C25.8,23,24.1,21,23.56,20.1a2.05,2.05,0,0,0,.13-2.05,2.08,2.08,0,0,0-.71-.81Zm5-.95a1.24,1.24,0,0,1,1.12,2.22l-.32.1-.27,0a1.24,1.24,0,0,1-.53-2.35Zm-16.15.57a1.24,1.24,0,0,1,1.39,2l-.26.19h0a.9.9,0,0,1-.21.08h0a1.22,1.22,0,0,1-1.42-.65A1.25,1.25,0,0,1,11.79,17.94ZM6,25.39a1.24,1.24,0,1,1,1.1,2.23A1.24,1.24,0,0,1,6,25.39Zm1.17,3.09a1.88,1.88,0,0,0,.3-.12,2,2,0,0,0,.81-.72l4.17,1.68a5.22,5.22,0,0,1-1.12,3.31,4,4,0,0,1-3.07.66A14.43,14.43,0,0,0,7.17,28.48ZM1,32.07A1.24,1.24,0,0,1,3.19,31,1.24,1.24,0,1,1,1,32.07ZM31.47,30c.27.55.56,1.1.82,1.61L10,42.59,9.2,41ZM11.12,44.82c-.16-.33-.41-.86-.73-1.49l22.29-11,.79,1.46Zm18.93-18a25.19,25.19,0,0,0,1.06,2.44l-22.3,11c-.48-.89-1-1.73-1.37-2.37a37.46,37.46,0,0,0-4-4.81,2.33,2.33,0,0,0,.26-.28c1.28.59,5.85,2.47,8.17.46s1.3-10.18,1-12.19a1.17,1.17,0,0,0,.2-.06l.12,0a.24.24,0,0,0,.11-.06l.06,0,.17-.1C15,22.17,21.33,27.85,24,27.28s4.26-5.47,4.65-6.73l.23,0A35.19,35.19,0,0,0,30.05,26.8Z"/></g></g></svg>