<svg xmlns="http://www.w3.org/2000/svg" viewBox="0 0 173.97 89.12"><defs><style>.cls-1{fill:#4f4f4f;}.cls-2{fill:#f4bc3d;}.cls-3{fill:#d39822;}.cls-4{fill:#fff;}</style></defs><g id="Layer_2" data-name="Layer 2"><g id="Layer_1-2" data-name="Layer 1"><path d="M65.15,28.36H59.33v-5.3a1.4,1.4,0,0,0-1.4-1.4h0a1.4,1.4,0,0,0-1.4,1.4v5.3h-1.7a1.36,1.36,0,0,0-1.36,1.36v0a1.36,1.36,0,0,0,1.36,1.36h1.7V43.77A6.55,6.55,0,0,0,58,48.38a5.82,5.82,0,0,0,4.45,1.7,8,8,0,0,0,3.4-.73,1,1,0,0,0,.55-.89V47.6a1,1,0,0,0-.48-.85,1,1,0,0,0-1,0,5.6,5.6,0,0,1-2.5.59,2.91,2.91,0,0,1-2.35-.85,4.13,4.13,0,0,1-.79-2.76V31.1h5.82a1.34,1.34,0,0,0,1.34-1.35v0A1.34,1.34,0,0,0,65.15,28.36Z"/><path d="M79.69,27.9a8.21,8.21,0,0,0-3.33.66,9.46,9.46,0,0,0-2.61,1.72,9.82,9.82,0,0,0-1,1.12V29.77a1.41,1.41,0,0,0-1.41-1.41h0a1.41,1.41,0,0,0-1.41,1.41V48.32a1.41,1.41,0,0,0,1.41,1.41h0a1.41,1.41,0,0,0,1.41-1.41V38.7A8.09,8.09,0,0,1,73.22,36a9.35,9.35,0,0,1,1.4-2.65,8.06,8.06,0,0,1,2.17-2,5,5,0,0,1,2.72-.74h.2a1,1,0,0,0,1-1V28.9A1,1,0,0,0,79.69,27.9Z"/><path d="M85.51,28.36h0a1.43,1.43,0,0,0-1.42,1.42V48.34a1.39,1.39,0,0,0,1.39,1.39h.08a1.39,1.39,0,0,0,1.38-1.39V29.78A1.42,1.42,0,0,0,85.51,28.36Z"/><path d="M107.71,30.68a7.92,7.92,0,0,0-2.89-2.06A9.85,9.85,0,0,0,101,27.9a8.79,8.79,0,0,0-3.46.64,9,9,0,0,0-2.58,1.61,9.93,9.93,0,0,0-.73.72v-1.1a1.4,1.4,0,0,0-1.4-1.41h0a1.41,1.41,0,0,0-1.4,1.41V48.33a1.4,1.4,0,0,0,1.39,1.4h.07a1.4,1.4,0,0,0,1.39-1.4V38a7.85,7.85,0,0,1,.53-2.89,7.68,7.68,0,0,1,1.45-2.34,6.62,6.62,0,0,1,2.1-1.55,6.2,6.2,0,0,1,2.59-.55,7.1,7.1,0,0,1,2.8.52,5.39,5.39,0,0,1,1.95,1.4,5.85,5.85,0,0,1,1.19,2.22,10.27,10.27,0,0,1,.42,3V48.35a1.38,1.38,0,0,0,1.38,1.38h.09a1.38,1.38,0,0,0,1.38-1.38V37.77a12.62,12.62,0,0,0-.59-4A9,9,0,0,0,107.71,30.68Z"/><path d="M134.84,34.75a10.63,10.63,0,0,0-2.27-3.55A11.5,11.5,0,0,0,120,28.82a10.74,10.74,0,0,0-5.73,6,11.68,11.68,0,0,0-.79,4.29,11.53,11.53,0,0,0,.79,4.24,10.59,10.59,0,0,0,2.27,3.53,11.56,11.56,0,0,0,12.56,2.4,10.72,10.72,0,0,0,3.5-2.43,11.14,11.14,0,0,0,2.24-3.56,11.81,11.81,0,0,0,.78-4.33A11.61,11.61,0,0,0,134.84,34.75ZM124.59,47.42a8.19,8.19,0,0,1-3.34-.66,8,8,0,0,1-4.31-4.45,9.17,9.17,0,0,1,0-6.55,7.77,7.77,0,0,1,4.25-4.44,8.31,8.31,0,0,1,3.33-.65,8.2,8.2,0,0,1,3.32.66,7.92,7.92,0,0,1,2.63,1.79,8.08,8.08,0,0,1,1.7,2.65,8.74,8.74,0,0,1,.61,3.31,9,9,0,0,1-.59,3.24A8,8,0,0,1,130.51,45a7.94,7.94,0,0,1-2.58,1.78A8.16,8.16,0,0,1,124.59,47.42Z"/><circle cx="85.54" cy="23.82" r="1.62"/><path class="cls-1" d="M78.61,66.1H73.47a.45.45,0,0,0-.45.45V67a.45.45,0,0,0,.45.45h4.66a.47.47,0,0,1,.47.47v3.74a8.24,8.24,0,0,1-2,1.23,7.46,7.46,0,0,1-2.89.61A6.63,6.63,0,0,1,70.88,73a6,6,0,0,1-2-1.5,6.67,6.67,0,0,1-1.29-2.21,7.91,7.91,0,0,1-.45-2.66A7.43,7.43,0,0,1,67.57,64a7.11,7.11,0,0,1,1.32-2.22A6.77,6.77,0,0,1,71,60.2a6.17,6.17,0,0,1,2.69-.58,6.48,6.48,0,0,1,2.59.47,9.53,9.53,0,0,1,2.11,1.31.43.43,0,0,0,.28.11.46.46,0,0,0,.35-.17l.3-.37a.45.45,0,0,0-.06-.63A9.41,9.41,0,0,0,78,59.47a8,8,0,0,0-1.28-.64,7.68,7.68,0,0,0-1.43-.41,9.48,9.48,0,0,0-1.66-.13,7.61,7.61,0,0,0-3.31.7,8.14,8.14,0,0,0-2.5,1.85,8.23,8.23,0,0,0-1.58,2.65,8.92,8.92,0,0,0-.55,3.08,9.41,9.41,0,0,0,.53,3.19A7.67,7.67,0,0,0,67.8,72.4a7.52,7.52,0,0,0,2.49,1.79,8,8,0,0,0,3.35.67,8.31,8.31,0,0,0,3.51-.72,11,11,0,0,0,2.33-1.43,1.37,1.37,0,0,0,.5-1.08V67.47A1.38,1.38,0,0,0,78.61,66.1Z"/><path class="cls-1" d="M90.66,58.7a.44.44,0,0,0-.4-.26h-.41a.44.44,0,0,0-.41.26L82.14,74a.47.47,0,0,0,0,.43.45.45,0,0,0,.38.21h.5a.44.44,0,0,0,.4-.26l1.92-4a.47.47,0,0,1,.42-.26h8.5a.47.47,0,0,1,.42.26l1.91,4a.46.46,0,0,0,.41.26h.52a.44.44,0,0,0,.38-.21A.47.47,0,0,0,98,74Zm3,9.35a.45.45,0,0,1,0,.45.47.47,0,0,1-.4.22h-6.3a.47.47,0,0,1-.4-.22.45.45,0,0,1,0-.45l3.14-6.6a.47.47,0,0,1,.43-.26.46.46,0,0,1,.42.26Zm-3.47-7.29a1,1,0,0,1,.55.29A1,1,0,0,0,90.14,60.76Zm-.1,0a.91.91,0,0,0-.48.13A.91.91,0,0,1,90,60.74Zm-4,7.11,1.57-3.29-1.57,3.29a1,1,0,0,0-.09.47A1,1,0,0,1,86.06,67.85Z"/><path class="cls-1" d="M108.56,58.55H97.13a.45.45,0,0,0-.45.45v.43a.45.45,0,0,0,.45.45h4.56a.47.47,0,0,1,.47.47v13.8a.45.45,0,0,0,.45.45h.48a.45.45,0,0,0,.45-.45V60.35a.47.47,0,0,1,.47-.47h4.55a.45.45,0,0,0,.45-.45V59A.45.45,0,0,0,108.56,58.55Zm-6.51,1a1,1,0,0,1,.49.49A1,1,0,0,0,102.05,59.5Zm1,.85a.92.92,0,0,1,.92-.92A.92.92,0,0,0,103.09,60.35Z"/><path class="cls-1" d="M123.09,73.27H113.8a.48.48,0,0,1-.48-.47V67.67a.48.48,0,0,1,.48-.47h8.25a.45.45,0,0,0,.45-.45v-.44a.45.45,0,0,0-.45-.45H113.8a.48.48,0,0,1-.48-.47v-5a.48.48,0,0,1,.48-.47H123a.45.45,0,0,0,.45-.45V59a.45.45,0,0,0-.45-.45h-9.66A1.37,1.37,0,0,0,112,59.92V73.23a1.37,1.37,0,0,0,1.37,1.37h9.77a.45.45,0,0,0,.45-.45v-.43A.45.45,0,0,0,123.09,73.27Zm-9.29.45a.93.93,0,0,1-.93-.92A.93.93,0,0,0,113.8,73.72Zm-.93-6a.93.93,0,0,1,.93-.92A.93.93,0,0,0,112.87,67.67Zm.93-1.36a.93.93,0,0,1-.93-.92A.93.93,0,0,0,113.8,66.31Zm-.93-6a.93.93,0,0,1,.93-.92A.93.93,0,0,0,112.87,60.35Z"/><path class="cls-1" d="M146.52,58.55H146a.44.44,0,0,0-.43.31l-3.87,11.81a.47.47,0,0,1-.9,0l-3.76-11.84a.46.46,0,0,0-.43-.32h-.37a.45.45,0,0,0-.43.32L132.1,70.64a.47.47,0,0,1-.9,0l-3.87-11.78a.44.44,0,0,0-.43-.31h-.49a.47.47,0,0,0-.37.18.46.46,0,0,0-.06.41l5,15.26a.46.46,0,0,0,.43.31h.41a.45.45,0,0,0,.43-.31L136,62.73a.47.47,0,0,1,.9,0l3.73,11.67a.46.46,0,0,0,.43.31h.41a.45.45,0,0,0,.43-.31l5-15.21a.58.58,0,0,0,0-.19A.45.45,0,0,0,146.52,58.55Zm-4.71,12.74c-.05,0-.11,0-.17,0S141.76,71.32,141.81,71.29Zm-.52.15a.93.93,0,0,1-.39-.12A.93.93,0,0,0,141.29,71.44Zm-.88-.64a1,1,0,0,0,.35.48,1,1,0,0,1-.35-.48L136.65,59Zm-8.76.62a.85.85,0,0,0,.35-.11A.85.85,0,0,1,131.65,71.42Zm4.8-9.47a1,1,0,0,0-.33.1A1,1,0,0,1,136.45,62Zm-4,8.91a.92.92,0,0,1-.29.4A.92.92,0,0,0,132.47,70.86Zm-1.14.46a.66.66,0,0,1-.2-.06A.66.66,0,0,0,131.33,71.32Zm.53,2.94,3.71-11.66a1,1,0,0,1,.35-.49,1,1,0,0,0-.35.49ZM136.75,62a1.55,1.55,0,0,1,.23.07A1.55,1.55,0,0,0,136.75,62Zm.58.55a.8.8,0,0,0-.28-.37.8.8,0,0,1,.28.37l3.73,11.67Z"/><path class="cls-1" d="M154.23,58.7a.44.44,0,0,0-.41-.26h-.41a.44.44,0,0,0-.4.26L145.71,74a.42.42,0,0,0,0,.43.44.44,0,0,0,.38.21h.49a.44.44,0,0,0,.41-.26l1.92-4a.46.46,0,0,1,.42-.26h8.49a.48.48,0,0,1,.43.26l1.91,4a.45.45,0,0,0,.41.26h.52a.45.45,0,0,0,.38-.21.44.44,0,0,0,0-.43Zm-4.6,9.15,3.14-6.59a.91.91,0,0,1,.36-.39.91.91,0,0,0-.36.39l-3.14,6.59a.88.88,0,0,0-.09.47A.88.88,0,0,1,149.63,67.85Zm4-6.66a.47.47,0,0,1,.42.26l3.15,6.6a.45.45,0,0,1,0,.45.44.44,0,0,1-.39.22h-6.3a.46.46,0,0,1-.4-.22.45.45,0,0,1,0-.45l3.15-6.6A.47.47,0,0,1,153.61,61.19Zm3.93,7.55a.93.93,0,0,1-.78.43A.93.93,0,0,0,157.54,68.74Zm-3.93-8a.89.89,0,0,1,.64.31A.89.89,0,0,0,153.61,60.74Zm-5.08,9.39-1.92,4,1.92-4a1,1,0,0,1,.34-.38A1,1,0,0,0,148.53,70.13Zm10.16,0a.94.94,0,0,0-.84-.53h0a.94.94,0,0,1,.84.53l1.91,4Z"/><path class="cls-1" d="M173.52,58.55H173a.47.47,0,0,0-.37.18l-5.29,7.37a.47.47,0,0,1-.38.19.46.46,0,0,1-.38-.19l-5.36-7.37a.45.45,0,0,0-.36-.18h-.57a.44.44,0,0,0-.36.71l6.23,8.57a.47.47,0,0,1,.09.28v6a.45.45,0,0,0,.45.45h.48a.45.45,0,0,0,.45-.45v-6a.47.47,0,0,1,.09-.28l6.18-8.53A.47.47,0,0,0,174,59,.45.45,0,0,0,173.52,58.55Zm-6.61,8.19a.76.76,0,0,0,.26-.06A.76.76,0,0,1,166.91,66.74Zm.75-.38a1,1,0,0,1-.34.29A1,1,0,0,0,167.66,66.36Zm-1,.32a.7.7,0,0,1-.14,0A.7.7,0,0,0,166.64,66.68Zm-.16.88L160.24,59l6.24,8.56a1,1,0,0,1,.17.55A1,1,0,0,0,166.48,67.56Zm.82,0a.91.91,0,0,0-.17.54.91.91,0,0,1,.17-.54L173.51,59Z"/><polygon class="cls-2" points="8.35 69.43 10.21 70.74 8.94 73.06 8.44 75.56 9.53 77.33 13.16 77.78 26.24 73.6 34.27 68.11 39 63.3 40.9 60.44 40.54 57.98 40.59 56.21 44.95 55.85 47.9 61.12 49.49 64.61 48.8 67.79 43.99 74.42 33.5 82.09 25.33 86.05 17.11 88.13 13.3 88.27 9.35 86.73 4.99 79.01 4.13 77.64 4.53 74.56 6.3 71.79 8.35 69.43"/><polygon class="cls-3" points="11.25 71.06 14.39 72.29 18.16 73.6 16.66 75.1 14.93 76.74 14.3 77.46 11.62 77.46 9.8 77.19 8.44 75.56 8.71 73.38 11.25 71.06"/><path d="M33.56,56.74a44.69,44.69,0,0,0-12.33,5,44.89,44.89,0,0,0-10.61,8c-3.48,3.78-3.4,6-2.72,7.21A3.31,3.31,0,0,0,10,78.48a11.92,11.92,0,0,0,5.45-.15,45.23,45.23,0,0,0,12.34-5,45.28,45.28,0,0,0,10.6-8c3.49-3.79,3.41-6,2.72-7.22S38.6,55.69,33.56,56.74ZM9.33,76.15c-.56-1,.4-3,2.5-5.29A43.38,43.38,0,0,1,22,63.14,43.14,43.14,0,0,1,33.9,58.35a10.78,10.78,0,0,1,4.69-.18,1.79,1.79,0,0,1,1.13.74h0c.48.84-.14,2.42-1.63,4.27A53.56,53.56,0,0,0,25.2,68.53a53.24,53.24,0,0,0-11.29,8.4C11.52,77.27,9.81,77,9.33,76.15ZM27,71.92a47,47,0,0,1-10,4.32A57.16,57.16,0,0,1,35.9,65.53,46.71,46.71,0,0,1,27,71.92Z"/><path d="M49.63,62.74l-3.85-6.9C44.45,53.48,41,52.61,36,53.39A48.61,48.61,0,0,0,20.2,59.33,48.77,48.77,0,0,0,7,69.83c-3.22,3.88-4.26,7.31-2.93,9.66L7.91,86.4a5.24,5.24,0,0,0,3.32,2.34,15.79,15.79,0,0,0,6.47.1A48.61,48.61,0,0,0,33.49,82.9,48.77,48.77,0,0,0,46.7,72.4C49.92,68.52,51,65.09,49.63,62.74Zm-4.2,8.61A47.28,47.28,0,0,1,32.68,81.47a47.43,47.43,0,0,1-15.23,5.75c-4.2.65-7.15.06-8.11-1.64l-3.85-6.9c-1-1.69,0-4.53,2.77-7.8A47.12,47.12,0,0,1,21,60.76,47.35,47.35,0,0,1,36.24,55a14.6,14.6,0,0,1,5.78.06,3.67,3.67,0,0,1,2.33,1.57l3.84,6.9h0C49.15,65.24,48.15,68.08,45.43,71.35Z"/><path class="cls-4" d="M16.84,66.06c1.09-.73-1.76-.45-2-.94a19.16,19.16,0,0,1-3.37-.6c-2-.53-5.25-4.14-5.77-7.24S4.1,48.6,6.27,45.1a20.49,20.49,0,0,1,5.19-5.55s-4.22-10-4.59-17.62S7.11.84,12.06.6,16.28,13,15.44,21.21a105.83,105.83,0,0,0-.24,16.41,23.14,23.14,0,0,1,6.51-1.08,24.77,24.77,0,0,1,5.79.54s1.57-11.64,6.75-18.87S44.87,3.48,48.48,5.6s-1,9.68-4.1,13.61S35.82,29.06,34,32.2a54.46,54.46,0,0,0-3.13,6.51,17.7,17.7,0,0,1,7.56,7.48c2.45,5.06,1.09,11-.24,13.64s-3.18,5-5,5C31.6,65,25,66.6,25,66.6Z"/><path d="M25.05,67.19l-10-.66.75-.5a2.9,2.9,0,0,1-1.23-.33,21.27,21.27,0,0,1-3.27-.61c-2.25-.59-5.66-4.43-6.2-7.72L5,56.93c-.54-3.22-1.45-8.61.74-12.14a21.31,21.31,0,0,1,5-5.44c-.82-2-4.12-10.59-4.45-17.39C6.18,19.75,5.44.33,12,0a3,3,0,0,1,2.43,1c2.21,2.34,2.73,9,1.56,20.27a107.25,107.25,0,0,0-.28,15.57,23.78,23.78,0,0,1,6-.89,28.82,28.82,0,0,1,5.31.42c.4-2.55,2.18-12.12,6.76-18.51,5.35-7.46,10.89-15.18,15-12.77a3.15,3.15,0,0,1,1.55,2.24c.79,4.23-4.84,11.44-5.48,12.25-1,1.3-2.3,2.79-3.64,4.37a78.59,78.59,0,0,0-6.69,8.54,55.33,55.33,0,0,0-2.89,5.94A18.06,18.06,0,0,1,39,45.93c2.66,5.51,1,11.67-.24,14.16-.79,1.58-2.91,5.27-5.54,5.38-1.23.06-6.23,1.25-8,1.7Zm-7.42-1.67,7.31.48a83.31,83.31,0,0,1,8.2-1.71c1.37-.06,3.11-1.87,4.54-4.73,1.34-2.68,2.51-8.39.23-13.11a17.18,17.18,0,0,0-7.29-7.2l-.5-.24.2-.52A57.35,57.35,0,0,1,33.5,31.9a77.82,77.82,0,0,1,6.81-8.72c1.33-1.57,2.59-3.05,3.61-4.33,3-3.73,5.74-8.67,5.25-11.3a2,2,0,0,0-1-1.44C45,4.23,39.3,12.18,34.73,18.55c-5,7-6.63,18.5-6.65,18.61l-.08.66-.65-.16a24.34,24.34,0,0,0-5.63-.53,22.82,22.82,0,0,0-6.33,1l-.73.25-.05-.76a107.61,107.61,0,0,1,.24-16.52C16,10.36,15.54,3.86,13.6,1.81a1.91,1.91,0,0,0-1.51-.62C8.41,1.37,7,11.74,7.46,21.9,7.82,29.3,12,39.23,12,39.33l.19.44-.4.27a20,20,0,0,0-5,5.37c-1.95,3.15-1.09,8.26-.57,11.32l.07.45c.5,3,3.68,6.33,5.34,6.77a18.3,18.3,0,0,0,3.26.58l.34,0,.09.18a5.66,5.66,0,0,0,.81.14C16.85,65,17.44,65,17.63,65.52Z"/><path d="M12.58,39l1.13-.88s-.16-10.29,0-16.57.48-14.07-1.61-14S8.56,13.62,9.37,22.15A103.38,103.38,0,0,0,12.58,39Z"/><path d="M28.42,37.18S32.36,26.89,35.9,21.1s8-9.61,9.44-8.72-2.71,5.75-6.68,11-8.79,14.64-8.79,14.64Z"/><path d="M26.4,58.54a.22.22,0,0,0-.3.08s-.68,1.19-1.67,1.26a2.52,2.52,0,0,1-1.78-.83V57.29c.64-.34,1.67-1.41,1.67-1.77a1.65,1.65,0,0,0-1.77-1.29c-1.16,0-2,.76-2,1.41s1.3,1.45,1.67,1.7v1.72a2.13,2.13,0,0,1-1.55.82c-.94,0-1.64-1.28-1.65-1.29a.22.22,0,0,0-.39.21c0,.06.84,1.52,2,1.52a2.46,2.46,0,0,0,1.78-.86,2.86,2.86,0,0,0,1.88.86h.14a2.94,2.94,0,0,0,2-1.48A.21.21,0,0,0,26.4,58.54Z"/><path d="M13.72,51.27a1.8,1.8,0,1,0,1.79,1.79A1.8,1.8,0,0,0,13.72,51.27Zm.51,1.66a.48.48,0,0,1-.49-.48.49.49,0,1,1,1,0A.48.48,0,0,1,14.23,52.93Z"/><path d="M31.39,51.27a1.8,1.8,0,1,0,1.79,1.79A1.8,1.8,0,0,0,31.39,51.27Zm.51,1.66a.48.48,0,0,1-.49-.48.49.49,0,1,1,1,0A.48.48,0,0,1,31.9,52.93Z"/><path d="M43.07,47.06v-8a2.89,2.89,0,0,0,2.27-2.7,3.13,3.13,0,0,0-6.23,0,2.89,2.89,0,0,0,2.26,2.7v7.75h-.22c-2.33-8.2-9.36-13.3-18.48-13.3s-16.15,5-18.48,13.3H3.4A3.25,3.25,0,0,0,0,49.92V56a3.26,3.26,0,0,0,3.4,3.06H4.48a15.36,15.36,0,0,0,4.25,6L7.2,66.47a.94.94,0,0,0-.12,1.33c3.46,4.18,9.13,6.62,15.53,6.62S34.68,72,38.14,67.8A.94.94,0,0,0,38,66.47L36.5,65.1a15.72,15.72,0,0,0,4.25-6h1.19A3.26,3.26,0,0,0,45.34,56V49.92A3.08,3.08,0,0,0,43.07,47.06Zm-20.4-4.79c8.44,0,15.3,5.56,15.3,12.38,0,7.39-7.71,10.7-15.3,10.7S7.37,62,7.37,54.65C7.37,47.83,14.23,42.27,22.67,42.27Z"/><path class="cls-4" d="M43.64,54H41.37c0-.35.06-.71.06-1.12A23,23,0,0,0,41,48.39h1a1.59,1.59,0,0,1,1.7,1.53Z"/><path class="cls-4" d="M41.94,57.56H40.75A20.92,20.92,0,0,0,41.26,55h2.38v1A1.59,1.59,0,0,1,41.94,57.56Z"/><path class="cls-4" d="M22.67,72.84c-5.67,0-10.71-2-13.89-5.65l1.59-1.43a21.12,21.12,0,0,0,12.3,3.52A21.12,21.12,0,0,0,35,65.76l1.58,1.43C33.38,70.81,28.34,72.84,22.67,72.84Z"/><path class="cls-4" d="M3.4,48.39h1A23.39,23.39,0,0,0,4,52.87,8.78,8.78,0,0,0,4,54H1.76V49.92A1.51,1.51,0,0,1,3.4,48.39Z"/><path class="cls-4" d="M22.67,41.25a20.5,20.5,0,0,0-5.67.82V35.9a20.56,20.56,0,0,1,5.67-.76,20.56,20.56,0,0,1,5.67.76v6.22A18.79,18.79,0,0,0,22.67,41.25Z"/><path class="cls-4" d="M15.87,36.26v6.22c-5.67,2.09-9.64,6.77-9.64,12.17,0,7,6.64,11.72,16.44,11.72s16.44-4.68,16.44-11.72c0-5.4-4-10.08-9.64-12.17V36.26c6.63,2.4,10.77,8.51,10.77,16.66,0,9.17-7,15.34-17.57,15.34S5.1,62.09,5.1,52.87C5.1,44.77,9.24,38.66,15.87,36.26Z"/><path class="cls-4" d="M1.7,55H4.08a17.71,17.71,0,0,0,.51,2.55H3.4A1.59,1.59,0,0,1,1.7,56Z"/><ellipse class="cls-4" cx="42.22" cy="36.41" rx="1.42" ry="1.27"/><polygon class="cls-2" points="38.54 64.57 31.37 70.42 25.92 73.97 26.83 75.19 34.64 72.24 39.36 68.16 39.77 65.89 38.54 64.57"/><path d="M39.3,61.4s-.7,1.15-1.21,1.78L35.9,65.53A46.71,46.71,0,0,1,27,71.92a47,47,0,0,1-10,4.32c.73-.64,1.5-1.27,2.31-1.9L17,74.14c-1.11.91-2.14,1.85-3.08,2.79-2.39.34-4.1.06-4.58-.78s.15-2.44,1.66-4.31L9.52,71C7.16,74.05,7.3,75.9,7.9,77A3.31,3.31,0,0,0,10,78.48a11.92,11.92,0,0,0,5.45-.15,45.23,45.23,0,0,0,12.34-5,45.28,45.28,0,0,0,10.6-8c3.49-3.79,3.41-6,2.72-7.22A12.17,12.17,0,0,1,39.3,61.4Z"/><path d="M45.1,58l3.09,5.55h0c1,1.69,0,4.53-2.76,7.8A47.28,47.28,0,0,1,32.68,81.47a47.43,47.43,0,0,1-15.23,5.75c-4.2.65-7.15.06-8.11-1.64l-3.85-6.9c-1-1.69,0-4.53,2.77-7.8L7,69.83c-3.22,3.88-4.26,7.31-2.93,9.66L7.91,86.4a5.24,5.24,0,0,0,3.32,2.34,15.79,15.79,0,0,0,6.47.1A48.61,48.61,0,0,0,33.49,82.9,48.77,48.77,0,0,0,46.7,72.4c3.22-3.88,4.26-7.31,2.93-9.66l-3.24-5.82Z"/><path d="M12.38,83.5l0,.08a.92.92,0,0,1,0,.19l0,0v.05l0,0,0,.06,0,.05,0,.12h0v0l-.06,0,0,.08,0,0v.06l-.09,0a.26.26,0,0,1-.14.1h0a.2.2,0,0,1-.17.09.12.12,0,0,1-.1,0l0,0h-.05l-.06,0H11.2l-.08,0-.19,0-.06-.11-.1-.11,0-.07-.06-.16,0-.06V84a.34.34,0,0,0,0-.09.17.17,0,0,1,.05-.13.37.37,0,0,1,.06-.15h0v-.16l0-.06v-.08a.35.35,0,0,0,0-.14l.1-.13,0,0v0h0l.07-.08v-.1l.11,0a.22.22,0,0,0,.08-.14h.06a.15.15,0,0,1,.09,0,.1.1,0,0,1,.07,0h.05l.12,0,.06.06,0,0h0l.06,0h0a.69.69,0,0,1,.13.15v0l0,0,.09.13.07.22v0Zm-.3.1v0a.11.11,0,0,1,0-.07v0l0-.08v-.11s-.06-.06-.06-.08,0,0,0-.09h0L11.84,83l0,0-.09,0h0l0,0-.09.09-.06.13-.09,0,0,0,0,0,0,.12-.05,0a.53.53,0,0,0,0,.12l-.07.06,0,0a.12.12,0,0,1,0,.09l0,.09v.11l0,.12v.16l0,.06v.07l0,.06.06,0h.17l0,0h.09l0,0,.06,0h.05a.42.42,0,0,1,.15-.1v0l.1-.06,0-.07.07,0v0l0,0v-.06l0,0,0,0,0,0a.23.23,0,0,1,0-.07.16.16,0,0,1,0-.09Z"/><path d="M15.85,83.58a.23.23,0,0,1,0,.1l0,.08v.09l0,0v0a.19.19,0,0,0-.09.12.53.53,0,0,1-.09.11l0,0,0,0,0,0-.11.07-.14,0h0l-.07,0,0,0-.09-.06s-.07,0-.09-.08a.33.33,0,0,1-.09-.14h0l0,0h0l0-.08,0-.09v-.1l-.05-.06-.11-.39a.69.69,0,0,1,0-.13v0l0,0,0,0-.15.19,0,.1,0,.07,0,.08,0,0v0l0,.15,0,0h0l0,.05a.14.14,0,0,1-.07.13h0a.26.26,0,0,1-.08.14l0,.06-.12.13a.2.2,0,0,1,0,.08s0,0,0,0,0,.1-.11.13h-.05c-.06,0-.11,0-.15-.09l-.08-.11,0-.11,0-.06h0v-.06L13.13,84l0-.05,0-.06,0-.07v-.11h0l0-.07v-.24l0-.06v0l0,0V82.9l.06-.15a.56.56,0,0,1,.19,0,.14.14,0,0,1,.06.13v0l0,0v.1l0,.18,0,.09,0,.09v.08l0,.06.05.08,0,.05v0l0,0,0,.1V84l0,0,.06-.09a.11.11,0,0,1,0-.1.09.09,0,0,1,0-.07h0l.06-.06V83.7l.07-.06v0l0,0,.15-.22a1.45,1.45,0,0,1-.13.18h0v0l0-.07,0-.09v0l.06,0v-.14l.06-.07v0s0-.09.08-.1a.16.16,0,0,1,.11-.1l0,0h0a.2.2,0,0,1,.11-.09l0-.06h.11l.06.06,0,0h0v.09l.08,0,0,.11.06.1v.13l.05.17,0,.17.05.09,0,.12s0,0,.05.07l.08,0v.09l0,0h0l0,0,0,0s0,0,0,0,.06,0,.09-.1l.06,0v0a.1.1,0,0,1,0-.07h0v0l0,0a.15.15,0,0,0,0-.1l.05-.06v0l0-.08.08,0,.12,0,.05.13h0Z"/><path d="M17.7,83.59a.21.21,0,0,1-.05.15.25.25,0,0,1,0,.13h0l0,.1-.08,0-.07.07,0,.09h-.05l-.07,0,0,0h0s-.07,0-.09.09l-.07,0H17a.17.17,0,0,1-.1,0l-.07,0,0,0a.26.26,0,0,1-.23-.09v0h-.06l0-.07-.06,0V84l-.09-.19,0-.16v-.28l0-.06h0a.34.34,0,0,1,0-.09v0l0-.11a.15.15,0,0,1,0-.14v0a.17.17,0,0,0,0-.07.27.27,0,0,1,0-.08.25.25,0,0,1,0-.12.12.12,0,0,0,.1,0h0l0,0a.65.65,0,0,1,.06-.21v0a.59.59,0,0,1,0-.11h0v0l0,0,0,0,.09-.07a.13.13,0,0,1,0-.07.05.05,0,0,1,0,0v0a.42.42,0,0,1,.14-.06s0,0,.07,0h0l0,0,.12,0,.08,0v0a.3.3,0,0,1,.14.21v0l0,.15,0,0,0,.13-.07.11v.07a2.27,2.27,0,0,1-.22.22.13.13,0,0,1-.11.08h0l-.07.07h-.07l-.09.06-.09,0h0a.54.54,0,0,0,0,.11l0,0v.14a.7.7,0,0,1,0,.14v0a.34.34,0,0,1,0,.09s0,0,0,0h0a.07.07,0,0,0,0,.06.17.17,0,0,0,.06.06l0,0h.14L17,84l.08,0,0,0h0l0-.08h0l.1-.05a.15.15,0,0,1,.05-.07v0a.11.11,0,0,0,.09-.11.19.19,0,0,1,.14-.09h0A.31.31,0,0,1,17.7,83.59ZM17,82.36a.17.17,0,0,0,0,0h-.09l0,.05h-.06l-.05.11,0,0-.05.14,0,0a.21.21,0,0,1,0,.14v0a.19.19,0,0,1,.1-.05l0,0v0h.06l0-.06h.08v-.07h0V82.6l.05,0h0v0l.05-.09A.13.13,0,0,0,17,82.36Z"/><path d="M20.5,81.55s0,.06-.06.09,0,0-.05.06a.45.45,0,0,0-.07.07h-.1a.27.27,0,0,1-.16.11h0l0,0-.11,0-.06.08h-.1s0,0-.05,0h-.05l0,.17,0,.13.05.15.05.17,0,.08,0,.06.09.11v0s0,0,.11,0l0,.05h0l.07,0,0,0,0,0h.08a.37.37,0,0,0,.06-.08.17.17,0,0,1,.06-.06h0a.2.2,0,0,1,.1-.15.2.2,0,0,1,.17,0v0a.19.19,0,0,1,0,.22.21.21,0,0,1-.13.16l0,.07h-.05l-.09.06-.1,0a.08.08,0,0,1-.07,0l-.06,0-.17,0h0l-.13-.1-.06,0L19.6,83l-.09-.2v-.06l-.05,0v-.06l-.05-.1,0,0v-.06l0,0v-.09l0-.06v0l0-.07h0l-.08,0-.09,0h0c-.08,0-.14,0-.17-.11v0L18.87,82l.06-.1H19l.05,0h.09l.09,0,0-.09-.09-.11.05,0,0-.06,0-.14-.05,0a.41.41,0,0,1-.05-.09.11.11,0,0,1,0-.08v-.07l0,0,.14-.07a.14.14,0,0,1,.19.09v0a.23.23,0,0,1,.05.07v.09l0,0v0l0,.06,0,.06.05.08v.12l0,0v.09l.12-.06.24,0,.18-.08.06,0h0l.17,0C20.43,81.46,20.48,81.48,20.5,81.55Z"/><path d="M22.53,81.47v.08c0,.08,0,.14,0,.19v.2l0,.06v.12l0,0v0l0,0v.08l0,0v.05l-.07.06a.31.31,0,0,1-.1.15h0a.19.19,0,0,1-.12.14.24.24,0,0,1-.09.06l0,0,0,0L22,83l-.05,0-.06,0h-.08l-.18,0-.1-.08-.13-.07v-.08l-.11-.12v-.07l-.05-.1v-.07a.22.22,0,0,0,0-.08.17.17,0,0,1,0-.14.48.48,0,0,1,0-.16h0l0,0V82l0-.07a.1.1,0,0,0,0-.06l0-.06v0a.28.28,0,0,0,0-.13l0-.16s0,0,0,0h0l0-.09,0-.11.1-.07a.2.2,0,0,0,0-.16l.05,0a.15.15,0,0,1,.07,0h.13l.09-.08.08,0,.06,0h.14l.17.1,0,0h0l.13.08.15.18,0,0Zm-.24.19v0a.1.1,0,0,1-.06,0v0l-.06-.07,0-.08,0,0a.12.12,0,0,1-.08,0s-.05,0-.07-.07h0l-.08-.07h-.23l-.05.12v.14l-.07.08v0l0,0,0,.12,0,0s0,.08,0,.12l0,.09h0a.21.21,0,0,1,0,.11.31.31,0,0,0,0,.1v.25l.05.12v.07l0,.06.05,0h.13l.1,0v0h0l0,0h0l0-.06h0l0,0a.4.4,0,0,1,.11-.15v0l.06-.09,0-.09.06-.06V82l0,0,0-.06v-.07a.27.27,0,0,1,0-.07.14.14,0,0,1,0-.09Z"/><path d="M25.56,79.49l0,.16-.14.08-.06.09h-.06l0,.06-.05.05,0,0v0l-.06.08,0,.1h0a.7.7,0,0,1-.05.13l0,.12v0a.74.74,0,0,0,0,.12l-.05,0v.06l0,.06,0,.07,0,0,0,.07h0L25,81,25,81l0,.06v.09l.05,0,0,.1a.15.15,0,0,1,0,.06h0a0,0,0,0,0,0,0l0,0,.1,0v.12l0,.06-.08.11H24.9l0-.1,0,0v-.07l-.06-.09a.08.08,0,0,0,0,0v0l0,0a.1.1,0,0,1-.06,0,.28.28,0,0,1,0-.09.4.4,0,0,0-.06-.13h0l0,0,0-.06,0,0,0-.11,0,0v0l0-.05a.25.25,0,0,0,0-.07s0-.07-.06-.07v0l-.05-.07-.06,0v-.08l0,0-.06-.09,0,0-.05,0c0-.06,0-.13.12-.22l.11,0,.05.07.07,0,0,.12.11.17,0,.06,0,0a.06.06,0,0,1,0,.06l.05.08,0,.1v0h0l0,0v-.08l0-.07a.08.08,0,0,1,0,0v-.08l0,0v-.06l0-.07v-.08a.35.35,0,0,1,.07-.12h0V80l0,0h0v0l0,0v0h0l0,0v0l0,0,0-.08.08-.07.06,0h0s0,0,.05,0,0,0,0,0l.06,0A.13.13,0,0,1,25.56,79.49Z"/><path d="M28.64,79.53a.23.23,0,0,1,0,.16l0,0v0l-.06.06a.08.08,0,0,1,0,0h0a.45.45,0,0,1-.18.15l0,0-.11,0h-.08l-.22,0-.09-.1-.09,0a.1.1,0,0,0,0-.06l-.07-.06,0-.11h0s-.05-.07-.09-.12l0-.13v.13l-.05,0,0,.09-.07.06v.12l0,.09a.16.16,0,0,1,0,.06v0l-.06.22h0l0,.13-.05.08,0,.07-.07.08-.1.12h-.1a.12.12,0,0,1-.15,0h0l0,0v0l-.1,0v0l-.11-.09v0h0v0l0,0a.36.36,0,0,1,0-.09l-.05-.11-.06-.08a.14.14,0,0,0,0-.06.1.1,0,0,0,0,0l0-.05,0,0-.09-.13L26,79.53a.8.8,0,0,0-.14-.18.18.18,0,0,1,.09-.22h0l.06,0,.11.05,0,.12.09.18.08.12v.07l0,0v.09l0,0h0s0,0,0,0a.37.37,0,0,1,.05.11l0,0,0,.07,0,0,0,0a.12.12,0,0,1,.07,0,.11.11,0,0,1,0,.08h0a.21.21,0,0,1,.06.08l.06,0,0-.07a.07.07,0,0,1,0-.08l0,0,.06,0v0L27,80v0a.64.64,0,0,1,.06-.1h0l.05-.1a.16.16,0,0,1,0-.15.22.22,0,0,1,0-.09l0-.09h0v0l0,0v-.06l.06-.08v0l0,0,0,0,0,0a.17.17,0,0,1,0-.14v-.16l0-.09v0h0l0,0h0a.62.62,0,0,0,0-.19l.12-.06.13,0,.07,0,.05.2,0,.12,0,.18,0,0,0,.07v.05l.05.07v0l.08.12.11.18h0l.05.11.09,0h.07v0l.08,0,.1,0,.05,0,.08-.1a.11.11,0,0,1,.07-.06C28.55,79.45,28.6,79.46,28.64,79.53Z"/><path d="M30,78.45a.1.1,0,0,1,0,.09.37.37,0,0,1,0,.16l0,0v.07l0,0,0,.07,0,0v0a.23.23,0,0,0-.07.15.1.1,0,0,1,0,0h0a.37.37,0,0,1-.14.14l-.12.05h-.1l0,0h0a.1.1,0,0,0-.09-.06l-.06-.07-.06,0-.1-.13L29,79l0-.07v0l-.05,0a1.79,1.79,0,0,0-.1-.22l-.08-.06v-.07l0-.11-.05-.06v-.08l-.07-.06V78l-.08-.14,0,0-.1-.17-.09-.18,0,0-.07-.12-.06-.11,0,0L27.91,77c.09-.09.13-.13.11-.12a.14.14,0,0,1,.14,0l0,0,.1,0,0,.09h0a.49.49,0,0,1,0,.12l.06.08.06.06,0,.1a.42.42,0,0,1,.06.14.26.26,0,0,0,0,.07v0l.05,0,0,0,0,0a.12.12,0,0,1,0,.07l0,0,.05.14.05.09,0,.1.06.06.09.19h0l0,.1.06.12s0,0,0,0a.54.54,0,0,0,.06.11l0,0,0,.06,0,0v0l.08,0,0,0h.06v0l0,0,0,0h0a.11.11,0,0,0,0-.08l0,0a.16.16,0,0,1,.05-.11l0-.11a.09.09,0,0,1,0-.12.1.1,0,0,0,.06-.07.2.2,0,0,1,.13,0A.31.31,0,0,1,30,78.45Z"/><path d="M31.65,77.57a.25.25,0,0,1,0,.16.29.29,0,0,1,0,.13l0,0V78l-.06,0,0,.1v.09l0,0-.06.06v0l0,0a.14.14,0,0,0-.05.13h-.09l0,0a.19.19,0,0,1-.1,0l-.06,0h0a.27.27,0,0,1-.25,0h-.07l-.06,0h-.06l0-.06-.16-.14-.08-.14,0-.08,0-.08,0-.07,0,0v-.06h0l0-.08v0l-.07-.09a.16.16,0,0,1,0-.15s0,0,0,0L30,77.46,30,77.4a.36.36,0,0,1,0-.11.11.11,0,0,0,.11,0h0l0,0A.58.58,0,0,1,30,77v0a.53.53,0,0,1,0-.11l0,0v0l0,0v0a.79.79,0,0,1,.05-.1.13.13,0,0,1,0-.08l0,0v0a.44.44,0,0,1,.11-.12l.06,0h.29a.3.3,0,0,1,.21.15v0l.09.13v0l0,.13,0,.12,0,.07a1.46,1.46,0,0,1-.13.28.13.13,0,0,1-.07.12h0l0,.09-.06,0-.06.09h-.1a.88.88,0,0,0,.05.1l0,0,0,0,0,.08.08.12v0l0,.08a0,0,0,0,1,0,0h0a.09.09,0,0,0,.07,0,.09.09,0,0,0,.07,0h0l.1,0h0l.13-.08.06-.06,0-.05,0,0V78h0l.07-.09a.24.24,0,0,1,0-.08v0a.11.11,0,0,0,0-.13.24.24,0,0,1,.1-.14h0A.34.34,0,0,1,31.65,77.57Zm-1.08-.89-.05,0h0s0,0,0,0h0l0,0,0,0,0,0v.13l0,.06v.14l0,0a.24.24,0,0,1,0,.14v0a.18.18,0,0,1,.07-.08l0,0v0l.05,0v-.07h0l0,0,0-.06,0,0,0,0,0,0v-.16Z"/><path d="M33.54,74.72s0,.06,0,.11a.13.13,0,0,1,0,.07l-.05.09-.09,0a.33.33,0,0,1-.12.15l0,0v0l-.1.07,0,.09-.09,0s0,0,0,0l0,0,.08.15.08.1.09.14.1.14.06.06,0,0,.13.08s0,0,0,0,0,0,.11,0l0,0h.14l0,0,.07,0a.22.22,0,0,0,0-.09.1.1,0,0,1,0-.08h0a.22.22,0,0,1,0-.17.2.2,0,0,1,.16,0l0,0a.2.2,0,0,1,0,.23.24.24,0,0,1-.07.2v.07l-.05,0-.07.08a.3.3,0,0,1-.08.07l-.07,0,0,0H33.6l-.15,0-.08,0-.21-.13L33,76.23l0,0-.07,0v-.07L32.83,76v0l0-.06,0,0,0-.07-.06,0v0l0-.06h0l-.06.07h-.11c-.07,0-.13,0-.19,0h0l-.09,0,0-.11.1,0,0,0,.08,0,.08,0-.06-.08-.12-.07,0-.06-.05-.05L32.18,75l-.07,0A.22.22,0,0,1,32,74.9a.16.16,0,0,1,0-.08l0-.06V74.7l.11-.1a.14.14,0,0,1,.21,0v0l.07,0v.08l.05,0v0l0,0V75l.07.06.05.11h.06l0,.09.09-.1L33,75l.14-.14.05,0,0,0,.14-.09C33.44,74.66,33.5,74.67,33.54,74.72Z"/><path d="M36.31,74.69a.17.17,0,0,1-.05.27.14.14,0,0,1-.15,0,.51.51,0,0,1-.21-.15l0,0a.09.09,0,0,0,0,0h0l-.11,0v-.1l-.07-.07,0-.06,0,0,0-.05-.06-.06v0l-.09-.12L35.27,74l-.11-.11V73.8l-.1-.07v0l0,.09v.23l-.05,0,0,.16,0,0,0,.05v.15l.07.15v.13l0,.06,0,.06.05.1,0,.13.09.14,0,0v0l0,.17v.22l-.08,0,0,0-.09,0-.14-.1-.14-.2-.06-.06,0-.08-.13-.17,0,0-.18-.27,0,0,0-.08v0l-.08-.13,0,0-.05,0v0h0L34,74.33h-.05v-.07l-.09-.11-.11-.08v0l-.1-.08,0-.06,0,0-.11-.11-.06,0-.13-.07v-.17l0,0a.16.16,0,0,1,.16,0h.08l.07,0h.09l0,.06.08.06h0l.09.12.13.17.1.08v.06l.06.06,0,.06.07.08,0,.08v0l.17.23,0,0v0l.08.13,0,.07.09.08v0l.06.07a.06.06,0,0,0,0-.07v-.12l0-.08v-.08l0-.09v-.1l0-.08,0,0,0,0,0,0,0-.06,0,0,0,0,0-.07,0,0,0-.08v0l0,0,0,0,0-.08.05,0,0,0,0,0,0,0a.34.34,0,0,1,.07-.16h0a.85.85,0,0,1,.09-.14.22.22,0,0,1,.14,0,.1.1,0,0,1,.09,0h0l.05,0,.11,0,.22.29.09.13,0,0,.21.27v.06l.06.08.08.06,0,.09a.36.36,0,0,1,.09.08h.07l0,0h0Z"/><path d="M37.75,73.15a.24.24,0,0,1,0,.16.21.21,0,0,1,0,.13l0,0,0,.09,0,.06,0,.1,0,.09,0,0a.21.21,0,0,1,0,.07v0l0,0a.13.13,0,0,0,0,.13h-.09s0,0,0,0l-.09,0-.06,0h0a.25.25,0,0,1-.25,0h-.06l-.07,0H36.8l0,0L36.6,74l-.11-.13,0-.07-.06-.08,0-.07,0,0V73.6h0a.2.2,0,0,1,0-.08v0l-.08-.08a.19.19,0,0,1,0-.15s0,0,0,0l-.06-.05-.06-.06A.28.28,0,0,1,36,73a.11.11,0,0,0,.11,0h0a.15.15,0,0,1,0-.06.56.56,0,0,1,0-.21v0a.81.81,0,0,1-.05-.1l0,0v0l0,0v0a.49.49,0,0,1,0-.11v-.08l0,0v0l.1-.13.06,0v0h.26v0a.28.28,0,0,1,.23.12l0,0,.1.11v0l0,.13v.12l0,.07a1.63,1.63,0,0,1-.1.29.14.14,0,0,1,0,.13h0l0,.09,0,0-.06.11h-.09l0,.1v0l0,0,0,.07.1.11v0l.05.07v0h0a.06.06,0,0,0,.07,0s0,0,.07,0h0l.09,0h0l0,0,.12-.09.06-.06,0-.06v-.1l0,0,.06-.1a.17.17,0,0,1,0-.07v0a.12.12,0,0,0,0-.14.19.19,0,0,1,.08-.15h0A.38.38,0,0,1,37.75,73.15Zm-1.17-.77,0,0h0a0,0,0,0,1,0,0h0l0,0,0,0v.2l0,.15v0a.22.22,0,0,1,0,.14v0a.18.18,0,0,1,.07-.09v-.07l0,0v-.07l0,0h.05l0-.07,0,0,0,0,0,0v0l0,0v-.11S36.6,72.39,36.58,72.38Z"/><path d="M40.88,70.26a.15.15,0,0,1,0,.11.09.09,0,0,1,0,.08.28.28,0,0,1,0,.09v0s0,0,0,.05l0,0,0,0v.15a.14.14,0,0,0,0,.1.39.39,0,0,1-.08.1.24.24,0,0,1-.11.06s-.06,0-.07,0l0,0h0l-.06,0h-.06a.16.16,0,0,1-.11,0,.71.71,0,0,1-.17-.09L40,71l0,0-.11-.08,0,0-.12-.09-.06-.09h0l0,.11v.16s0,0,0,0h0l0,0v0s0,0,0,0a.32.32,0,0,0,0,.08.18.18,0,0,1,0,.06h0l0,.05a.24.24,0,0,0,0,.16,1.28,1.28,0,0,1,0,.22v.09s0,0,0,0h0a.17.17,0,0,1,0,.14v.09l0,0,0,.1a.17.17,0,0,1-.2,0l0,0-.06,0,0,0-.11-.07,0,0h-.05l-.09-.12,0,0,0,0,0,0h0l0,0,0-.08-.1-.08,0,0-.08-.11-.09,0,0-.06,0,0-.08,0v.37l0,0v.11l0,.07v0a.15.15,0,0,1,0,.17l0,0a.31.31,0,0,0,0,.09.26.26,0,0,1,0,.07s0,0,0,0v.1a.14.14,0,0,1,0,.12l0,0a.34.34,0,0,1,0,.1h0l0,.06s0,0,0,.11v0a.14.14,0,0,1,0,.14v.08a.41.41,0,0,1,0,.09c-.06.05-.14,0-.25,0l-.08-.06,0,0a.09.09,0,0,1,0-.06l-.07-.06,0,0-.05-.06s-.06-.09,0-.11l-.09-.07,0-.07,0-.09h0l0,0a.19.19,0,0,1,0-.13l-.08,0,0-.06-.11-.08,0-.05-.09-.06,0-.06-.08,0c0-.13,0-.22,0-.26a.18.18,0,0,1,.11,0l0,0a.14.14,0,0,1,.14,0s0,0,0,.08h0l.08,0v.05h0l.16.14L38,72v0l.07,0,0,0a.13.13,0,0,1,0,.08.2.2,0,0,1,.05.09l.1.1,0,0h0v0l0-.13h0s0,0,0-.1l0-.09a.28.28,0,0,1,0-.11l0-.07v-.1l0-.06s0,0,0,0v0a1.09,1.09,0,0,0,0-.13v0l0,0v0a.17.17,0,0,1,0-.17h0v0h0a0,0,0,0,1,0,0l0-.07,0-.06,0,0s0,0,0,0l0-.12,0-.07.13-.07.08,0h0l0,0,.11,0,0,0h.07l0,.05a.41.41,0,0,1,.16.11l0,0,.07,0v.07l.08.07v0l0,.06.08,0,0,0,.06,0v0l.17.15h0v-.21l0-.1s0,0,0-.1h0a.15.15,0,0,1,0-.11s0,0,0-.08v0a.22.22,0,0,1,0-.16l0-.06v-.14a.15.15,0,0,0,0-.11v-.07l0-.06,0,0v-.08l0-.12s0,0,0,0v-.06l0-.08,0-.07h0l.06,0,.08,0,.09,0,0,0,0,0v0l0,.1,0,.1a.09.09,0,0,1,.07,0l0,.06,0,0,0,.06,0,0v0h0v0s0,0,.06,0l0,0,0,0,.06.07h0l.16.1,0,0h.07l.07,0h.06l0,0h0l0,0h0a.19.19,0,0,0,0-.1.2.2,0,0,1,0-.13.19.19,0,0,1,0-.1l0-.09,0-.06a.18.18,0,0,1,0-.07.19.19,0,0,1,.09,0A.22.22,0,0,1,40.88,70.26Z"/><path d="M42.45,66.74v.07l.11,0V67l.06.08v0h0a.14.14,0,0,1,0,.09h0l0,0,0,0h0l0,0,0,0v0l.06,0h0v.06l0,0,0,.07.07,0v0h.06l0,.12h0l0,0,.05.09h0l0,0h0l0,0,.11,0,0,.07,0,0a.25.25,0,0,1,.09,0v.09a.45.45,0,0,1,0,.11l0,.09h0l0,0h-.21l-.06-.05a.71.71,0,0,1-.14-.1l0,0L43,68l-.11-.16-.1-.06,0,.14.06.12v0l0,.12v.15l0,.06v.13l0,.06,0,.17L43,69l0,.07v.08a.19.19,0,0,1-.17.06.35.35,0,0,1-.36,0v0h0l0,0-.06,0,0-.06-.07-.07-.09-.13h0l0,0,0,0-.06-.1v0h0l0,0,0,0a.1.1,0,0,1,0-.1.17.17,0,0,1,0-.1h-.05v-.1a.22.22,0,0,1-.08-.15l-.07,0v0h0s0,0,0,0l0,0a.4.4,0,0,1,0-.16c0-.08,0-.14,0-.19h0v-.07l.05-.16.25-.23,0,0,.09-.06S42,67,42,67l0,0h.11l.07,0,.08-.14.13,0Zm-.11.47h0l0,0-.17,0-.07.05-.05,0h0v0h0l-.08.09h0l0,.1v0h0a.71.71,0,0,0,0,.16l.06.1,0,0H42V68h0a.49.49,0,0,0,.1.16v0l.06.06v0l0,0v0l0,0v0l.06.07h0l0,.09h0v.06l.09,0v.08l.07.05h0v-.08l0,0,0,0,0,0,0-.34v0l0-.07a.19.19,0,0,0,0-.08l0-.07,0,0-.06,0,0,0s0,0,0-.06a.13.13,0,0,1,0-.06l-.08-.38,0-.07h0v-.06l0,0v0Z"/><path d="M44.73,66.15a.1.1,0,0,1,0,.08.63.63,0,0,1,0,.16v0l0,.07v.11l0,0v0a.22.22,0,0,0,0,.16s0,0,0,.06l0,0a.29.29,0,0,1-.08.18.35.35,0,0,1-.1.09l-.09,0h-.06a.14.14,0,0,0-.11,0l-.08,0h0l-.15-.1L43.9,67l-.06,0v0l0,0-.18-.18-.09,0,0-.07-.08-.09-.06,0,0-.06-.09,0,0-.08,0,0-.12-.1,0,0L42.86,66l-.14-.13,0,0-.11-.08-.09-.08,0,0-.2-.2c.06-.11.08-.16.07-.15a.12.12,0,0,1,.13,0l0,0h.09l.06.08h0a.37.37,0,0,1,.07.1l.08,0,.08,0,.06.09a.41.41,0,0,1,.09.1l0,.06,0,0h.06l0,0,.05,0s0,0,0,.06l0,0,.1.12.08.06,0,.08.08,0,.15.14h0l.07.09.09.09,0,0,.1.09.06,0,0,0,.07,0v0h.09l0,0,0,0v0l0,0s0,0,0,0h0a.11.11,0,0,0,0-.08v0a.25.25,0,0,1,0-.12v-.11a.12.12,0,0,1,0-.12s0-.06,0-.08.08-.06.11-.06A.19.19,0,0,1,44.73,66.15Z"/><path d="M45.74,64.74s0,0,0,.07a.41.41,0,0,1,0,.16V65l0,.06v.12l0,0v0a.33.33,0,0,0,0,.17.13.13,0,0,1,0,.06l0,0a.36.36,0,0,1-.08.18.3.3,0,0,1-.09.1l-.08,0h-.07a.09.09,0,0,0-.1,0l-.09,0h-.06l-.15-.08L45,65.64l-.06,0,0,0,0,0-.19-.16h-.09l0-.07-.09-.08-.07,0,0-.06-.09,0,0-.08,0,0-.13-.09,0,0-.16-.11-.16-.13h0l-.12-.08-.1-.07,0,0-.21-.18c.05-.12.07-.17.06-.16a.13.13,0,0,1,.13,0h.12l.07.07h0s.07.07.07.09l.09,0,.08,0,.06.09a.36.36,0,0,1,.11.1.23.23,0,0,1,0,0l0,0h.07l0,0,0,0,0,.06h0l.11.11.08.06.06.08.08,0,.16.13h0l.08.08.1.08,0,0a.44.44,0,0,1,.1.08l.06,0,.06,0,.06,0h.11l0,0,0,0,0,0,0,0s0,0,0,0h0a.11.11,0,0,0,0-.08v0a.24.24,0,0,1,0-.12.54.54,0,0,0,0-.11.12.12,0,0,1,0-.12.19.19,0,0,0,0-.09s.07-.06.1-.06A.22.22,0,0,1,45.74,64.74Z"/></g></g></svg>