<svg xmlns="http://www.w3.org/2000/svg" viewBox="0 0 284.13 74.42"><defs><style>.cls-1{fill:#fff;}.cls-2{fill:#efae0c;}.cls-3{fill:#4f4f4f;}</style></defs><g id="Layer_2" data-name="Layer 2"><g id="Layer_1-2" data-name="Layer 1"><path class="cls-1" d="M16.84,66.06c1.09-.73-1.76-.45-2-.94a19.16,19.16,0,0,1-3.37-.6c-2-.53-5.25-4.14-5.77-7.24S4.1,48.6,6.27,45.1a20.49,20.49,0,0,1,5.19-5.55s-4.22-10-4.59-17.62S7.11.84,12.06.6,16.28,13,15.44,21.21a105.83,105.83,0,0,0-.24,16.41,23.14,23.14,0,0,1,6.51-1.08,24.77,24.77,0,0,1,5.79.54s1.57-11.64,6.75-18.87S44.87,3.48,48.48,5.6s-1,9.68-4.1,13.61S35.82,29.06,34,32.2a54.46,54.46,0,0,0-3.13,6.51,17.7,17.7,0,0,1,7.56,7.48c2.45,5.06,1.09,11-.24,13.64s-3.18,5-5,5C31.6,65,25,66.6,25,66.6Z"/><path d="M25.05,67.19l-10-.66.75-.5a2.9,2.9,0,0,1-1.23-.33,21.27,21.27,0,0,1-3.27-.61c-2.25-.59-5.66-4.43-6.2-7.72L5,56.93c-.54-3.22-1.45-8.61.74-12.14a21.31,21.31,0,0,1,5-5.44c-.82-2-4.12-10.59-4.45-17.39C6.18,19.75,5.44.33,12,0a3,3,0,0,1,2.43,1c2.21,2.34,2.73,9,1.56,20.27a107.25,107.25,0,0,0-.28,15.57,23.78,23.78,0,0,1,6-.89,28.82,28.82,0,0,1,5.31.42c.4-2.55,2.18-12.12,6.76-18.51,5.35-7.46,10.89-15.18,15-12.77a3.15,3.15,0,0,1,1.55,2.24c.79,4.23-4.84,11.44-5.48,12.25-1,1.3-2.3,2.79-3.64,4.37a78.59,78.59,0,0,0-6.69,8.54,55.33,55.33,0,0,0-2.89,5.94A18.06,18.06,0,0,1,39,45.93c2.66,5.51,1,11.67-.24,14.16-.79,1.58-2.91,5.27-5.54,5.38-1.23.06-6.23,1.25-8,1.7Zm-7.42-1.67,7.31.48a83.31,83.31,0,0,1,8.2-1.71c1.37-.06,3.11-1.87,4.54-4.73,1.34-2.68,2.51-8.39.23-13.11a17.18,17.18,0,0,0-7.29-7.2l-.5-.24.2-.52A57.35,57.35,0,0,1,33.5,31.9a77.82,77.82,0,0,1,6.81-8.72c1.33-1.57,2.59-3.05,3.61-4.33,3-3.73,5.74-8.67,5.25-11.3a2,2,0,0,0-1-1.44C45,4.23,39.3,12.18,34.73,18.55c-5,7-6.63,18.5-6.65,18.61l-.08.66-.65-.16a24.34,24.34,0,0,0-5.63-.53,22.82,22.82,0,0,0-6.33,1l-.73.25-.05-.76a107.61,107.61,0,0,1,.24-16.52C16,10.36,15.54,3.86,13.6,1.81a1.91,1.91,0,0,0-1.51-.62C8.41,1.37,7,11.74,7.46,21.9,7.82,29.3,12,39.23,12,39.33l.19.44-.4.27a20,20,0,0,0-5,5.37c-1.95,3.15-1.09,8.26-.57,11.32l.07.45c.5,3,3.68,6.33,5.34,6.77a18.3,18.3,0,0,0,3.26.58l.34,0,.09.18a5.66,5.66,0,0,0,.81.14C16.85,65,17.44,65,17.63,65.52Z"/><path d="M12.58,39l1.13-.88s-.16-10.29,0-16.57.48-14.07-1.61-14S8.56,13.62,9.37,22.15A103.38,103.38,0,0,0,12.58,39Z"/><path d="M28.42,37.18S32.36,26.89,35.9,21.1s8-9.61,9.44-8.72-2.71,5.75-6.68,11-8.79,14.64-8.79,14.64Z"/><path d="M26.4,58.54a.22.22,0,0,0-.3.08s-.68,1.19-1.67,1.26a2.52,2.52,0,0,1-1.78-.83V57.29c.64-.34,1.67-1.41,1.67-1.77a1.65,1.65,0,0,0-1.77-1.29c-1.16,0-2,.76-2,1.41s1.3,1.45,1.67,1.7v1.72a2.13,2.13,0,0,1-1.55.82c-.94,0-1.64-1.28-1.65-1.29a.22.22,0,0,0-.39.21c0,.06.84,1.52,2,1.52a2.46,2.46,0,0,0,1.78-.86,2.86,2.86,0,0,0,1.88.86h.14a2.94,2.94,0,0,0,2-1.48A.21.21,0,0,0,26.4,58.54Z"/><path d="M13.72,51.27a1.8,1.8,0,1,0,1.79,1.79A1.8,1.8,0,0,0,13.72,51.27Zm.51,1.66a.48.48,0,0,1-.49-.48.49.49,0,1,1,1,0A.48.48,0,0,1,14.23,52.93Z"/><path d="M31.39,51.27a1.8,1.8,0,1,0,1.79,1.79A1.8,1.8,0,0,0,31.39,51.27Zm.51,1.66a.48.48,0,0,1-.49-.48.49.49,0,1,1,1,0A.48.48,0,0,1,31.9,52.93Z"/><path d="M43.07,47.06v-8a2.89,2.89,0,0,0,2.27-2.7,3.13,3.13,0,0,0-6.23,0,2.89,2.89,0,0,0,2.26,2.7v7.75h-.22c-2.33-8.2-9.36-13.3-18.48-13.3s-16.15,5-18.48,13.3H3.4A3.25,3.25,0,0,0,0,49.92V56a3.26,3.26,0,0,0,3.4,3.06H4.48a15.36,15.36,0,0,0,4.25,6L7.2,66.47a.94.94,0,0,0-.12,1.33c3.46,4.18,9.13,6.62,15.53,6.62S34.68,72,38.14,67.8A.94.94,0,0,0,38,66.47L36.5,65.1a15.72,15.72,0,0,0,4.25-6h1.19A3.26,3.26,0,0,0,45.34,56V49.92A3.08,3.08,0,0,0,43.07,47.06Zm-20.4-4.79c8.44,0,15.3,5.56,15.3,12.38,0,7.39-7.71,10.7-15.3,10.7S7.37,62,7.37,54.65C7.37,47.83,14.23,42.27,22.67,42.27Z"/><path class="cls-1" d="M43.64,54H41.37c0-.35.06-.71.06-1.12A23,23,0,0,0,41,48.39h1a1.59,1.59,0,0,1,1.7,1.53Z"/><path class="cls-1" d="M41.94,57.56H40.75A20.92,20.92,0,0,0,41.26,55h2.38v1A1.59,1.59,0,0,1,41.94,57.56Z"/><path class="cls-1" d="M22.67,72.84c-5.67,0-10.71-2-13.89-5.65l1.59-1.43a21.12,21.12,0,0,0,12.3,3.52A21.12,21.12,0,0,0,35,65.76l1.58,1.43C33.38,70.81,28.34,72.84,22.67,72.84Z"/><path class="cls-1" d="M3.4,48.39h1A23.39,23.39,0,0,0,4,52.87,8.78,8.78,0,0,0,4,54H1.76V49.92A1.51,1.51,0,0,1,3.4,48.39Z"/><path class="cls-1" d="M22.67,41.25a20.5,20.5,0,0,0-5.67.82V35.9a20.56,20.56,0,0,1,5.67-.76,20.56,20.56,0,0,1,5.67.76v6.22A18.79,18.79,0,0,0,22.67,41.25Z"/><path class="cls-1" d="M15.87,36.26v6.22c-5.67,2.09-9.64,6.77-9.64,12.17,0,7,6.64,11.72,16.44,11.72s16.44-4.68,16.44-11.72c0-5.4-4-10.08-9.64-12.17V36.26c6.63,2.4,10.77,8.51,10.77,16.66,0,9.17-7,15.34-17.57,15.34S5.1,62.09,5.1,52.87C5.1,44.77,9.24,38.66,15.87,36.26Z"/><path class="cls-1" d="M1.7,55H4.08a17.71,17.71,0,0,0,.51,2.55H3.4A1.59,1.59,0,0,1,1.7,56Z"/><ellipse class="cls-1" cx="42.22" cy="36.41" rx="1.42" ry="1.27"/><path class="cls-2" d="M38.9,33.78a.72.72,0,0,1-.51-.2.75.75,0,0,1,0-1.06,5.45,5.45,0,0,1,7.8,0,.75.75,0,1,1-1.09,1,3.94,3.94,0,0,0-5.61,0A.78.78,0,0,1,38.9,33.78Z"/><path class="cls-2" d="M37.65,31.58a.74.74,0,0,1-.53-.22.75.75,0,0,1,0-1.06,7.35,7.35,0,0,1,5.15-2.08,7.2,7.2,0,0,1,5.1,2,.75.75,0,1,1-1,1.07,5.73,5.73,0,0,0-4-1.61,5.84,5.84,0,0,0-4.09,1.64A.73.73,0,0,1,37.65,31.58Z"/><path class="cls-2" d="M36.45,29.38a.75.75,0,0,1-.52-1.29,9.24,9.24,0,0,1,12.63,0,.75.75,0,1,1-1,1.08,7.76,7.76,0,0,0-10.56,0A.73.73,0,0,1,36.45,29.38Z"/><path d="M65.94,43.25H60.12V37.94a1.4,1.4,0,0,0-1.4-1.39h0a1.39,1.39,0,0,0-1.4,1.39v5.31h-1.7a1.36,1.36,0,0,0-1.36,1.36h0A1.36,1.36,0,0,0,55.57,46h1.7V58.65a6.55,6.55,0,0,0,1.54,4.61A5.79,5.79,0,0,0,63.26,65a8,8,0,0,0,3.4-.73,1,1,0,0,0,.55-.89v-.85a1,1,0,0,0-1.45-.9,5.54,5.54,0,0,1-2.5.59,2.87,2.87,0,0,1-2.35-.85,4.11,4.11,0,0,1-.79-2.76V46h5.82a1.34,1.34,0,0,0,1.34-1.34v0A1.34,1.34,0,0,0,65.94,43.25Z"/><path d="M80.48,42.78a8.22,8.22,0,0,0-3.33.67,9.24,9.24,0,0,0-2.6,1.71,10,10,0,0,0-1,1.13V44.66a1.41,1.41,0,0,0-1.41-1.41h0a1.41,1.41,0,0,0-1.41,1.41V63.2a1.41,1.41,0,0,0,1.41,1.41h0a1.41,1.41,0,0,0,1.41-1.41V53.58A8.14,8.14,0,0,1,74,50.92a9.49,9.49,0,0,1,1.4-2.65,7.86,7.86,0,0,1,2.17-2,5,5,0,0,1,2.72-.74h.2a1,1,0,0,0,1-1v-.78A1,1,0,0,0,80.48,42.78Z"/><path d="M86.3,43.25h0a1.42,1.42,0,0,0-1.42,1.42V63.22a1.39,1.39,0,0,0,1.39,1.39h.08a1.39,1.39,0,0,0,1.39-1.39V44.67A1.42,1.42,0,0,0,86.3,43.25Z"/><path d="M108.5,45.56a7.92,7.92,0,0,0-2.89-2.06,9.85,9.85,0,0,0-3.87-.72,9,9,0,0,0-3.46.64A9.18,9.18,0,0,0,95.7,45c-.26.24-.5.48-.73.73V44.65a1.39,1.39,0,0,0-1.4-1.4h0a1.4,1.4,0,0,0-1.41,1.4V63.22a1.39,1.39,0,0,0,1.39,1.39h.07A1.39,1.39,0,0,0,95,63.22V52.88A7.76,7.76,0,0,1,95.5,50,7.61,7.61,0,0,1,97,47.65a6.62,6.62,0,0,1,2.1-1.55,6.19,6.19,0,0,1,2.59-.54,7.1,7.1,0,0,1,2.8.51,5.3,5.3,0,0,1,2,1.41,5.8,5.8,0,0,1,1.19,2.21,10.34,10.34,0,0,1,.42,3v10.5a1.38,1.38,0,0,0,1.38,1.38h.09a1.38,1.38,0,0,0,1.38-1.38V52.65a12.71,12.71,0,0,0-.59-4A9,9,0,0,0,108.5,45.56Z"/><path d="M135.63,49.63a10.59,10.59,0,0,0-2.27-3.54,11,11,0,0,0-3.51-2.41,11.73,11.73,0,0,0-9.06,0,10.93,10.93,0,0,0-3.49,2.45,10.8,10.8,0,0,0-2.24,3.56,11.73,11.73,0,0,0-.79,4.3,11.52,11.52,0,0,0,.79,4.23,10.49,10.49,0,0,0,2.27,3.53,11.6,11.6,0,0,0,12.56,2.41,10.9,10.9,0,0,0,3.5-2.44,11.14,11.14,0,0,0,2.24-3.56,11.81,11.81,0,0,0,.78-4.33A11.61,11.61,0,0,0,135.63,49.63ZM125.38,62.3a8.36,8.36,0,0,1-3.34-.65,8.19,8.19,0,0,1-2.6-1.8,8,8,0,0,1-1.71-2.65,8.86,8.86,0,0,1-.6-3.31,8.75,8.75,0,0,1,.59-3.24A7.75,7.75,0,0,1,119.39,48,7.61,7.61,0,0,1,122,46.21a8.31,8.31,0,0,1,3.33-.65,8.45,8.45,0,0,1,3.33.65A7.91,7.91,0,0,1,133,50.66a8.67,8.67,0,0,1,.61,3.31,9,9,0,0,1-.59,3.24,7.91,7.91,0,0,1-1.67,2.65,8.12,8.12,0,0,1-2.58,1.79A8.33,8.33,0,0,1,125.38,62.3Z"/><circle cx="86.33" cy="38.7" r="1.62"/><path class="cls-3" d="M157.53,53.4h-6.94A.61.61,0,0,0,150,54v.65a.6.6,0,0,0,.61.6h6.29a.64.64,0,0,1,.64.64V61a11,11,0,0,1-1.15.82,11.19,11.19,0,0,1-1.62.84,10.82,10.82,0,0,1-1.85.6,9.76,9.76,0,0,1-2.05.22,8.94,8.94,0,0,1-3.75-.75,8.09,8.09,0,0,1-2.76-2,8.86,8.86,0,0,1-1.74-3,10.59,10.59,0,0,1-.61-3.6,10,10,0,0,1,.63-3.54,9.57,9.57,0,0,1,1.79-3,8.93,8.93,0,0,1,2.78-2.09,8.23,8.23,0,0,1,3.63-.79,8.68,8.68,0,0,1,3.5.64,12.71,12.71,0,0,1,2.84,1.77.62.62,0,0,0,.38.14A.64.64,0,0,0,158,47l.4-.5a.6.6,0,0,0-.07-.85,15.35,15.35,0,0,0-1.61-1.18,10.67,10.67,0,0,0-1.72-.87A10.42,10.42,0,0,0,153.1,43a12.11,12.11,0,0,0-2.25-.19,10.31,10.31,0,0,0-4.47.95A10.75,10.75,0,0,0,143,46.3a10.9,10.9,0,0,0-2.13,3.57,12.09,12.09,0,0,0-.74,4.17,12.82,12.82,0,0,0,.71,4.31,10.11,10.11,0,0,0,2.09,3.55,10.22,10.22,0,0,0,3.37,2.43,10.86,10.86,0,0,0,4.52.9,11.38,11.38,0,0,0,4.74-1,14.53,14.53,0,0,0,3.15-1.94,1.85,1.85,0,0,0,.67-1.45V55.26A1.86,1.86,0,0,0,157.53,53.4Z"/><path class="cls-3" d="M173.41,43.4a.61.61,0,0,0-.55-.34h-.56a.62.62,0,0,0-.55.34L161.91,64a.59.59,0,0,0,0,.59.62.62,0,0,0,.51.28h.68a.59.59,0,0,0,.54-.35l2.59-5.42a.65.65,0,0,1,.57-.37H178.3a.64.64,0,0,1,.57.37l2.59,5.42a.59.59,0,0,0,.55.35h.7a.61.61,0,0,0,.51-.28.62.62,0,0,0,0-.59Zm4,12.63a.6.6,0,0,1,0,.61.63.63,0,0,1-.54.3h-8.5a.62.62,0,0,1-.54-.3.63.63,0,0,1,0-.61l4.25-8.9a.64.64,0,0,1,1.15,0ZM172.7,46.2a1.17,1.17,0,0,1,.74.39A1.17,1.17,0,0,0,172.7,46.2Zm-.13,0a1.25,1.25,0,0,0-.65.18A1.25,1.25,0,0,1,172.57,46.16Zm-5.38,9.61,2.13-4.45-2.13,4.45a1.27,1.27,0,0,0-.12.63A1.27,1.27,0,0,1,167.19,55.77Z"/><path class="cls-3" d="M197.58,43.2H182.14a.61.61,0,0,0-.6.61v.59a.61.61,0,0,0,.6.61h6.15a.64.64,0,0,1,.64.63V64.27a.61.61,0,0,0,.61.61h.64a.61.61,0,0,0,.61-.61V45.64a.64.64,0,0,1,.64-.63h6.15a.61.61,0,0,0,.6-.61v-.59A.61.61,0,0,0,197.58,43.2Zm-8.8,1.29a1.24,1.24,0,0,1,.66.67A1.24,1.24,0,0,0,188.78,44.49Zm1.4,1.15a1.24,1.24,0,0,1,1.25-1.24A1.24,1.24,0,0,0,190.18,45.64Z"/><path class="cls-3" d="M215.84,63.08H203.29a.64.64,0,0,1-.63-.64V55.52a.64.64,0,0,1,.63-.64h11.15a.6.6,0,0,0,.61-.6v-.59a.61.61,0,0,0-.61-.61H203.29a.63.63,0,0,1-.63-.63V45.64a.63.63,0,0,1,.63-.63H215.7a.62.62,0,0,0,.61-.61v-.59a.62.62,0,0,0-.61-.61h-13a1.86,1.86,0,0,0-1.85,1.86V63a1.85,1.85,0,0,0,1.85,1.85h13.19a.61.61,0,0,0,.61-.61v-.58A.61.61,0,0,0,215.84,63.08Zm-12.55.61a1.25,1.25,0,0,1-1.24-1.25A1.25,1.25,0,0,0,203.29,63.69Zm-1.24-8.17a1.24,1.24,0,0,1,1.24-1.24A1.24,1.24,0,0,0,202.05,55.52Zm1.24-1.83a1.25,1.25,0,0,1-1.24-1.24A1.25,1.25,0,0,0,203.29,53.69Zm-1.24-8a1.24,1.24,0,0,1,1.24-1.24A1.24,1.24,0,0,0,202.05,45.64Z"/><path class="cls-3" d="M246.13,43.2h-.65a.61.61,0,0,0-.58.42l-5.23,16a.61.61,0,0,1-.6.44.62.62,0,0,1-.61-.45l-5.08-16a.63.63,0,0,0-.59-.42h-.49a.6.6,0,0,0-.58.42l-5.06,16a.63.63,0,0,1-.61.45.62.62,0,0,1-.6-.44l-5.23-15.92a.61.61,0,0,0-.58-.42H219a.61.61,0,0,0-.49.26.58.58,0,0,0-.09.54l6.81,20.61a.61.61,0,0,0,.58.42h.55a.62.62,0,0,0,.59-.43l5-15.75a.61.61,0,0,1,.6-.44.62.62,0,0,1,.61.44l5,15.75a.6.6,0,0,0,.58.43h.55a.61.61,0,0,0,.58-.42l6.79-20.54a.53.53,0,0,0,.06-.26A.61.61,0,0,0,246.13,43.2Zm-6.36,17.2c-.06.05-.15,0-.23.07C239.62,60.44,239.71,60.45,239.77,60.4Zm-.7.22a1.26,1.26,0,0,1-.53-.16A1.42,1.42,0,0,0,239.07,60.62Zm-1.19-.87a1.19,1.19,0,0,0,.48.65,1.19,1.19,0,0,1-.48-.65l-5.09-16Zm-11.82.83a1.29,1.29,0,0,0,.46-.14A1.29,1.29,0,0,1,226.06,60.58Zm6.47-12.78a1.19,1.19,0,0,0-.44.14A1.19,1.19,0,0,1,232.53,47.8Zm-5.37,12a1.3,1.3,0,0,1-.39.54A1.3,1.3,0,0,0,227.16,59.83Zm-1.54.62c-.09,0-.19,0-.27-.08C225.43,60.43,225.53,60.42,225.62,60.45Zm.71,4,5-15.75a1.19,1.19,0,0,1,.47-.65,1.19,1.19,0,0,0-.47.65Zm6.61-16.49a1,1,0,0,1,.3.09A1,1,0,0,0,232.94,47.93Zm.78.74a1.09,1.09,0,0,0-.37-.51,1.09,1.09,0,0,1,.37.51l5,15.75Z"/><path class="cls-3" d="M257,43.4a.61.61,0,0,0-.55-.34h-.56a.6.6,0,0,0-.54.34L245.51,64a.62.62,0,0,0,0,.59.63.63,0,0,0,.52.28h.67a.61.61,0,0,0,.55-.35l2.58-5.42a.64.64,0,0,1,.58-.37H261.9a.64.64,0,0,1,.57.37l2.59,5.42a.59.59,0,0,0,.55.35h.7a.61.61,0,0,0,.51-.28.59.59,0,0,0,0-.59Zm-6.22,12.37,4.25-8.9a1.19,1.19,0,0,1,.48-.53,1.19,1.19,0,0,0-.48.53l-4.25,8.9a1.27,1.27,0,0,0-.12.63A1.27,1.27,0,0,1,250.79,55.77Zm5.38-9a.61.61,0,0,1,.57.36L261,56a.6.6,0,0,1,0,.61.63.63,0,0,1-.54.3h-8.5a.62.62,0,0,1-.54-.3.63.63,0,0,1,0-.61l4.25-8.9A.63.63,0,0,1,256.17,46.77Zm5.3,10.2a1.22,1.22,0,0,1-1.05.58A1.22,1.22,0,0,0,261.47,57Zm-5.3-10.81a1.2,1.2,0,0,1,.87.43A1.2,1.2,0,0,0,256.17,46.16Zm-6.86,12.68-2.58,5.43,2.58-5.43a1.26,1.26,0,0,1,.46-.51A1.26,1.26,0,0,0,249.31,58.84Zm13.71,0a1.24,1.24,0,0,0-1.12-.71h0a1.24,1.24,0,0,1,1.12.71l2.59,5.43Z"/><path class="cls-3" d="M283.53,43.2h-.78a.61.61,0,0,0-.49.26l-7.15,9.94a.64.64,0,0,1-1,0l-7.23-9.95a.63.63,0,0,0-.49-.25h-.76a.61.61,0,0,0-.5,1l8.42,11.57a.63.63,0,0,1,.12.37v8.16a.61.61,0,0,0,.61.61h.64a.61.61,0,0,0,.61-.61V56.11a.63.63,0,0,1,.12-.37L284,44.22a.6.6,0,0,0,.16-.41A.61.61,0,0,0,283.53,43.2ZM274.6,54.27a1.55,1.55,0,0,0,.36-.08A1.55,1.55,0,0,1,274.6,54.27Zm1-.52a1.2,1.2,0,0,1-.46.39A1.2,1.2,0,0,0,275.61,53.75Zm-1.37.44a1.17,1.17,0,0,1-.2,0A1.17,1.17,0,0,0,274.24,54.19ZM274,55.38,265.6,43.81,274,55.38a1.21,1.21,0,0,1,.24.73A1.21,1.21,0,0,0,274,55.38Zm1.12,0a1.27,1.27,0,0,0-.24.73,1.27,1.27,0,0,1,.24-.73l8.38-11.57Z"/></g></g></svg>