<svg xmlns="http://www.w3.org/2000/svg" viewBox="0 0 177.23 74.42"><defs><style>.cls-1{fill:#4f4f4f;}.cls-2{fill:#fff;}.cls-3{fill:#f4bc3d;}.cls-4{fill:#d39822;}</style></defs><g id="Layer_2" data-name="Layer 2"><g id="Layer_1-2" data-name="Layer 1"><path d="M69.26,27.69H63.44v-5.3A1.4,1.4,0,0,0,62,21h0a1.39,1.39,0,0,0-1.4,1.4v5.3h-1.7a1.36,1.36,0,0,0-1.36,1.36h0a1.36,1.36,0,0,0,1.36,1.36h1.7V43.1a6.58,6.58,0,0,0,1.54,4.61,5.82,5.82,0,0,0,4.45,1.69,7.93,7.93,0,0,0,3.4-.73,1,1,0,0,0,.55-.89v-.85a1,1,0,0,0-.48-.85,1,1,0,0,0-1,0,5.48,5.48,0,0,1-2.5.6,2.93,2.93,0,0,1-2.36-.85A4.19,4.19,0,0,1,63.44,43V30.42h5.82a1.34,1.34,0,0,0,1.34-1.34v0A1.34,1.34,0,0,0,69.26,27.69Z"/><path d="M83.8,27.22a8.39,8.39,0,0,0-3.33.67,9.1,9.1,0,0,0-2.61,1.72,9.82,9.82,0,0,0-1,1.12V29.1a1.41,1.41,0,0,0-1.41-1.41h0A1.41,1.41,0,0,0,74,29.1V47.64a1.41,1.41,0,0,0,1.4,1.41h0a1.41,1.41,0,0,0,1.41-1.41V38a8.14,8.14,0,0,1,.49-2.66,9.18,9.18,0,0,1,1.4-2.64,7.9,7.9,0,0,1,2.17-2A5,5,0,0,1,83.62,30h.2a1,1,0,0,0,1-1v-.78A1,1,0,0,0,83.8,27.22Z"/><path d="M89.62,27.69h0a1.42,1.42,0,0,0-1.42,1.42V47.66a1.39,1.39,0,0,0,1.39,1.39h.07A1.39,1.39,0,0,0,91,47.66V29.11A1.41,1.41,0,0,0,89.62,27.69Z"/><path d="M111.81,30a8,8,0,0,0-2.88-2.06,10,10,0,0,0-3.87-.72,8.74,8.74,0,0,0-6,2.26,9.93,9.93,0,0,0-.73.72V29.09a1.4,1.4,0,0,0-1.4-1.4h0a1.4,1.4,0,0,0-1.4,1.4V47.66a1.39,1.39,0,0,0,1.39,1.39h.07a1.39,1.39,0,0,0,1.39-1.39V37.32a7.76,7.76,0,0,1,.53-2.88,7.61,7.61,0,0,1,1.45-2.35,6.34,6.34,0,0,1,2.1-1.54A6,6,0,0,1,105,30a7,7,0,0,1,2.8.52,5.28,5.28,0,0,1,1.95,1.4,6.09,6.09,0,0,1,1.19,2.21,10.34,10.34,0,0,1,.42,3v10.5a1.38,1.38,0,0,0,1.38,1.38h.09a1.38,1.38,0,0,0,1.38-1.38V37.09a12.6,12.6,0,0,0-.59-4A8.94,8.94,0,0,0,111.81,30Z"/><path d="M139,34.08a10.63,10.63,0,0,0-2.27-3.55,11,11,0,0,0-3.51-2.41,11.28,11.28,0,0,0-4.51-.9,10.87,10.87,0,0,0-8,3.38,10.89,10.89,0,0,0-2.23,3.55,11.73,11.73,0,0,0-.79,4.3,11.61,11.61,0,0,0,.79,4.24,10.52,10.52,0,0,0,2.26,3.52,11,11,0,0,0,3.49,2.41,11.9,11.9,0,0,0,9.08,0,10.6,10.6,0,0,0,3.5-2.44A11,11,0,0,0,139,42.62a11.74,11.74,0,0,0,.78-4.33A11.56,11.56,0,0,0,139,34.08ZM128.7,46.74a8.36,8.36,0,0,1-3.34-.65,8.16,8.16,0,0,1-2.6-1.79,8,8,0,0,1-1.71-2.66,8.86,8.86,0,0,1-.61-3.31,9,9,0,0,1,.59-3.24,7.91,7.91,0,0,1,1.67-2.65,8.12,8.12,0,0,1,2.58-1.79,8.85,8.85,0,0,1,6.66,0,8.18,8.18,0,0,1,2.62,1.79,8,8,0,0,1,1.71,2.66,8.86,8.86,0,0,1,.61,3.31,9,9,0,0,1-.59,3.24A7.86,7.86,0,0,1,132,46.09,8.36,8.36,0,0,1,128.7,46.74Z"/><circle cx="89.65" cy="23.14" r="1.62"/><path class="cls-1" d="M82.61,62.37H77.52a.45.45,0,0,0-.45.44v.48a.45.45,0,0,0,.45.44h4.62a.47.47,0,0,1,.47.47v3.71a8.93,8.93,0,0,1-.85.6,7,7,0,0,1-1.19.62,7.22,7.22,0,0,1-1.36.44,6.7,6.7,0,0,1-1.5.16A6.54,6.54,0,0,1,75,69.18a6,6,0,0,1-2-1.49,6.53,6.53,0,0,1-1.27-2.19,7.79,7.79,0,0,1-.45-2.64,7.35,7.35,0,0,1,.46-2.61A7,7,0,0,1,73,58.05a6.54,6.54,0,0,1,2-1.54,6.05,6.05,0,0,1,2.67-.57,6.38,6.38,0,0,1,2.57.46,9.42,9.42,0,0,1,2.09,1.31.48.48,0,0,0,.28.1.42.42,0,0,0,.34-.17l.3-.36a.45.45,0,0,0,0-.63A11.39,11.39,0,0,0,82,55.79a7.86,7.86,0,0,0-1.26-.64,7.26,7.26,0,0,0-1.42-.4,9.32,9.32,0,0,0-1.65-.14,7.66,7.66,0,0,0-3.29.7,7.87,7.87,0,0,0-2.48,1.84,8.24,8.24,0,0,0-1.57,2.62,8.85,8.85,0,0,0-.54,3.06A9.58,9.58,0,0,0,70.35,66a7.68,7.68,0,0,0,1.54,2.61,7.32,7.32,0,0,0,2.48,1.78,8,8,0,0,0,3.32.67,8.21,8.21,0,0,0,3.48-.72,10.82,10.82,0,0,0,2.31-1.42,1.37,1.37,0,0,0,.5-1.07V63.73A1.36,1.36,0,0,0,82.61,62.37Z"/><path class="cls-1" d="M94.58,55a.46.46,0,0,0-.41-.26h-.4a.45.45,0,0,0-.41.26L86.12,70.16a.47.47,0,0,0,0,.43.44.44,0,0,0,.38.21H87a.44.44,0,0,0,.4-.26l1.9-4a.47.47,0,0,1,.43-.27h8.42a.45.45,0,0,1,.42.27l1.9,4a.44.44,0,0,0,.4.26h.52a.45.45,0,0,0,.38-.21.44.44,0,0,0,0-.43ZM97.5,64.3a.45.45,0,0,1-.42.66H90.83a.45.45,0,0,1-.39-.21.45.45,0,0,1,0-.45l3.13-6.54a.45.45,0,0,1,.42-.27.47.47,0,0,1,.42.26Zm-3.44-7.23a.85.85,0,0,1,.54.29A.85.85,0,0,0,94.06,57.07ZM94,57a1,1,0,0,0-.48.13A.91.91,0,0,1,94,57ZM90,64.1l1.56-3.27L90,64.1a1,1,0,0,0-.09.46A1,1,0,0,1,90,64.1Z"/><path class="cls-1" d="M112.34,54.87H101a.45.45,0,0,0-.45.45v.43a.45.45,0,0,0,.45.44h4.51a.47.47,0,0,1,.47.47V70.35a.45.45,0,0,0,.45.45h.47a.45.45,0,0,0,.45-.45V56.66a.47.47,0,0,1,.47-.47h4.52a.44.44,0,0,0,.44-.44v-.43A.45.45,0,0,0,112.34,54.87Zm-6.47,1a.91.91,0,0,1,.49.49A.91.91,0,0,0,105.87,55.82Zm1,.84a.92.92,0,0,1,.92-.91A.92.92,0,0,0,106.9,56.66Z"/><path class="cls-1" d="M126.75,69.47h-9.22a.46.46,0,0,1-.47-.46V63.92a.47.47,0,0,1,.47-.47h8.19a.45.45,0,0,0,.45-.44v-.43a.45.45,0,0,0-.45-.45h-8.19a.47.47,0,0,1-.47-.47v-5a.47.47,0,0,1,.47-.47h9.11a.45.45,0,0,0,.45-.44v-.43a.45.45,0,0,0-.45-.45h-9.58a1.37,1.37,0,0,0-1.37,1.36V69.44a1.37,1.37,0,0,0,1.37,1.36h9.69a.45.45,0,0,0,.45-.45v-.43A.45.45,0,0,0,126.75,69.47Zm-9.22.45a.92.92,0,0,1-.92-.91A.92.92,0,0,0,117.53,69.92Zm-.92-6a.92.92,0,0,1,.92-.91A.92.92,0,0,0,116.61,63.92Zm.92-1.34a.92.92,0,0,1-.92-.92A.92.92,0,0,0,117.53,62.58Zm-.92-5.92a.92.92,0,0,1,.92-.91A.92.92,0,0,0,116.61,56.66Z"/><path class="cls-1" d="M150,54.87h-.48a.45.45,0,0,0-.43.31L145.25,66.9a.45.45,0,0,1-.44.32.47.47,0,0,1-.45-.33l-3.73-11.75a.45.45,0,0,0-.43-.31h-.37a.44.44,0,0,0-.42.31l-3.72,11.73a.47.47,0,0,1-.45.33.46.46,0,0,1-.44-.33L131,55.18a.44.44,0,0,0-.43-.31H130a.44.44,0,0,0-.36.19.41.41,0,0,0-.06.4l5,15.14a.45.45,0,0,0,.42.31h.41a.45.45,0,0,0,.43-.32L139.56,59a.46.46,0,0,1,.45-.32.44.44,0,0,1,.44.32l3.7,11.58a.46.46,0,0,0,.43.31H145a.45.45,0,0,0,.42-.31l5-15.09a.41.41,0,0,0,0-.19A.44.44,0,0,0,150,54.87Zm-4.67,12.64a1.09,1.09,0,0,1-.17,0A1.09,1.09,0,0,0,145.33,67.51Zm-.52.16a1.1,1.1,0,0,1-.39-.12A1.1,1.1,0,0,0,144.81,67.67Zm-.87-.64a.9.9,0,0,0,.34.48.9.9,0,0,1-.34-.48L140.2,55.28Zm-8.69.61a1,1,0,0,0,.34-.1A1,1,0,0,1,135.25,67.64ZM140,58.25a1,1,0,0,0-.33.1A1,1,0,0,1,140,58.25Zm-3.95,8.84a1,1,0,0,1-.29.39A1,1,0,0,0,136.06,67.09Zm-1.14.46c-.06,0-.14,0-.19-.06S134.86,67.52,134.92,67.55Zm.53,2.91,3.69-11.57a.87.87,0,0,1,.34-.48.87.87,0,0,0-.34.48Zm4.85-12.12c.08,0,.16,0,.23.07S140.38,58.37,140.3,58.34Zm.58.55a.92.92,0,0,0-.28-.38.84.84,0,0,1,.28.38l3.7,11.57Z"/><path class="cls-1" d="M157.65,55a.46.46,0,0,0-.41-.26h-.41a.45.45,0,0,0-.4.26l-7.24,15.14a.47.47,0,0,0,0,.43.44.44,0,0,0,.38.21h.49a.44.44,0,0,0,.4-.26l1.9-4a.47.47,0,0,1,.43-.27h8.42a.46.46,0,0,1,.42.27l1.9,4a.44.44,0,0,0,.4.26h.52a.45.45,0,0,0,.38-.21.44.44,0,0,0,0-.43Zm-4.57,9.08,3.12-6.54a1,1,0,0,1,.35-.39,1,1,0,0,0-.35.39l-3.12,6.54a1,1,0,0,0-.09.46A1,1,0,0,1,153.08,64.1ZM157,57.49a.47.47,0,0,1,.42.26l3.12,6.55a.48.48,0,0,1,0,.45.45.45,0,0,1-.4.21H153.9a.45.45,0,0,1-.39-.21.45.45,0,0,1,0-.45l3.13-6.54A.44.44,0,0,1,157,57.49Zm3.9,7.5a.91.91,0,0,1-.78.42A.91.91,0,0,0,160.93,65ZM157,57a.9.9,0,0,1,.64.32A.9.9,0,0,0,157,57Zm-5,9.32-1.9,4,1.9-4a.9.9,0,0,1,.34-.38A.9.9,0,0,0,152,66.36Zm10.08,0a.93.93,0,0,0-.83-.52h0a.93.93,0,0,1,.83.52l1.89,4Z"/><path class="cls-1" d="M176.79,54.87h-.57a.42.42,0,0,0-.36.19l-5.26,7.3a.44.44,0,0,1-.38.2.46.46,0,0,1-.38-.2l-5.31-7.31a.45.45,0,0,0-.36-.18h-.56a.45.45,0,0,0-.4.24.47.47,0,0,0,0,.47l6.18,8.5a.47.47,0,0,1,.09.28v6a.45.45,0,0,0,.45.45h.47a.45.45,0,0,0,.45-.45v-6a.47.47,0,0,1,.09-.28l6.14-8.47a.42.42,0,0,0,.11-.29A.45.45,0,0,0,176.79,54.87ZM170.22,63a.88.88,0,0,0,.27-.06A.82.82,0,0,1,170.22,63Zm.75-.38a1,1,0,0,1-.34.29A1,1,0,0,0,171,62.62Zm-1,.32a.58.58,0,0,1-.14,0A.58.58,0,0,0,170,62.94Zm-.17.88-6.18-8.5,6.18,8.5a.86.86,0,0,1,.18.54A.86.86,0,0,0,169.79,63.82Zm.83,0a.86.86,0,0,0-.18.54.86.86,0,0,1,.18-.54l6.16-8.5Z"/><path class="cls-2" d="M23.44,66.06c1.09-.73-1.77-.45-2-.94a19.16,19.16,0,0,1-3.37-.6c-2-.53-5.25-4.14-5.77-7.24s-1.59-8.68.58-12.18a20.49,20.49,0,0,1,5.19-5.55s-4.23-10-4.59-17.62S13.71.84,18.66.6,22.88,13,22,21.21a106.56,106.56,0,0,0-.25,16.41,23.26,23.26,0,0,1,6.52-1.08,24.77,24.77,0,0,1,5.79.54s1.57-11.64,6.75-18.87S51.47,3.48,55.08,5.6s-1,9.68-4.1,13.61-8.56,9.85-10.37,13a55.44,55.44,0,0,0-3.14,6.51A17.7,17.7,0,0,1,45,46.19c2.44,5.06,1.09,11-.24,13.64s-3.18,5-5,5c-1.57.07-8.18,1.72-8.18,1.72Z"/><path d="M31.64,67.19l-10-.66.75-.5a2.86,2.86,0,0,1-1.23-.33,21.27,21.27,0,0,1-3.27-.61c-2.25-.59-5.66-4.43-6.21-7.72l-.07-.44c-.54-3.22-1.45-8.61.74-12.14a21.31,21.31,0,0,1,5-5.44c-.82-2-4.12-10.59-4.45-17.39C12.78,19.75,12,.33,18.63,0a2.94,2.94,0,0,1,2.42,1c2.22,2.34,2.73,9,1.57,20.27a107.25,107.25,0,0,0-.28,15.57,23.62,23.62,0,0,1,6-.89,28.6,28.6,0,0,1,5.3.42c.41-2.55,2.19-12.12,6.77-18.51,5.35-7.46,10.89-15.18,15-12.77a3.15,3.15,0,0,1,1.55,2.24c.79,4.23-4.84,11.44-5.48,12.25-1,1.3-2.3,2.79-3.64,4.37a78.59,78.59,0,0,0-6.69,8.54,55.33,55.33,0,0,0-2.89,5.94,18.06,18.06,0,0,1,7.34,7.5c2.66,5.51,1,11.67-.24,14.16-.79,1.58-2.91,5.27-5.54,5.38-1.24.06-6.23,1.25-8.06,1.7Zm-7.41-1.67,7.31.48a83.31,83.31,0,0,1,8.2-1.71c1.37-.06,3.11-1.87,4.53-4.73,1.35-2.68,2.52-8.39.24-13.11a17.24,17.24,0,0,0-7.29-7.2l-.5-.24.2-.52A57.35,57.35,0,0,1,40.1,31.9a77.82,77.82,0,0,1,6.81-8.72c1.33-1.57,2.59-3.05,3.61-4.33,3-3.73,5.74-8.67,5.24-11.3a2,2,0,0,0-1-1.44c-3.21-1.88-8.89,6.07-13.46,12.44-5,7-6.63,18.5-6.65,18.61l-.09.66L34,37.66a24.34,24.34,0,0,0-5.63-.53,22.82,22.82,0,0,0-6.33,1l-.73.25-.06-.76a109.84,109.84,0,0,1,.25-16.52c1.11-10.79.68-17.29-1.25-19.34a1.91,1.91,0,0,0-1.51-.62C15,1.37,13.58,11.74,14.06,21.9c.35,7.4,4.5,17.33,4.54,17.43l.19.44-.4.27a20,20,0,0,0-5,5.37c-1.95,3.15-1.09,8.26-.57,11.32l.07.45c.5,3,3.68,6.33,5.34,6.77a18.3,18.3,0,0,0,3.26.58l.34,0,.09.18a5.66,5.66,0,0,0,.81.14C23.45,65,24,65,24.23,65.52Z"/><path d="M19.18,39l1.13-.88s-.16-10.29,0-16.57.48-14.07-1.61-14S15.16,13.62,16,22.15A103.38,103.38,0,0,0,19.18,39Z"/><path d="M35,37.18S39,26.89,42.5,21.1s8-9.61,9.44-8.72-2.71,5.75-6.68,11-8.79,14.64-8.79,14.64Z"/><path d="M33,58.54a.22.22,0,0,0-.3.08S32,59.81,31,59.88a2.49,2.49,0,0,1-1.78-.83V57.29c.64-.34,1.67-1.41,1.67-1.77a1.65,1.65,0,0,0-1.77-1.29c-1.16,0-2,.76-2,1.41s1.3,1.45,1.67,1.7v1.72a2.13,2.13,0,0,1-1.55.82c-.94,0-1.65-1.28-1.65-1.29a.22.22,0,0,0-.3-.09.22.22,0,0,0-.09.3c0,.06.84,1.52,2,1.52A2.46,2.46,0,0,0,29,59.46a2.86,2.86,0,0,0,1.88.86h.14a2.94,2.94,0,0,0,2-1.48A.21.21,0,0,0,33,58.54Z"/><path d="M20.32,51.27a1.8,1.8,0,1,0,1.79,1.79A1.8,1.8,0,0,0,20.32,51.27Zm.51,1.66a.48.48,0,0,1-.49-.48.49.49,0,1,1,1,0A.48.48,0,0,1,20.83,52.93Z"/><path d="M38,51.27a1.8,1.8,0,1,0,1.79,1.79A1.8,1.8,0,0,0,38,51.27Zm.51,1.66a.48.48,0,0,1-.49-.48.49.49,0,0,1,1,0A.48.48,0,0,1,38.5,52.93Z"/><path d="M49.67,47.06v-8a2.9,2.9,0,0,0,2.27-2.7,3.14,3.14,0,0,0-6.24,0A2.9,2.9,0,0,0,48,39.11v7.75h-.23c-2.32-8.2-9.35-13.3-18.47-13.3s-16.15,5-18.48,13.3H10a3.25,3.25,0,0,0-3.4,3.06V56A3.26,3.26,0,0,0,10,59.09h1.08a15.36,15.36,0,0,0,4.25,6L13.8,66.47a.94.94,0,0,0-.12,1.33c3.46,4.18,9.13,6.62,15.53,6.62S41.28,72,44.74,67.8a1,1,0,0,0-.11-1.33L43.1,65.1a15.72,15.72,0,0,0,4.25-6h1.19A3.26,3.26,0,0,0,51.94,56V49.92A3.09,3.09,0,0,0,49.67,47.06Zm-20.4-4.79c8.44,0,15.3,5.56,15.3,12.38,0,7.39-7.71,10.7-15.3,10.7S14,62,14,54.65C14,47.83,20.82,42.27,29.27,42.27Z"/><path class="cls-2" d="M50.24,54H48c0-.35.06-.71.06-1.12a22.23,22.23,0,0,0-.46-4.48h1a1.59,1.59,0,0,1,1.7,1.53Z"/><path class="cls-2" d="M48.54,57.56H47.35A20.92,20.92,0,0,0,47.86,55h2.38v1A1.59,1.59,0,0,1,48.54,57.56Z"/><path class="cls-2" d="M29.27,72.84c-5.67,0-10.71-2-13.89-5.65L17,65.76a21.1,21.1,0,0,0,12.3,3.52,21.12,21.12,0,0,0,12.3-3.52l1.58,1.43C40,70.81,34.94,72.84,29.27,72.84Z"/><path class="cls-2" d="M10,48.39h1a23.39,23.39,0,0,0-.45,4.48,8.78,8.78,0,0,0,0,1.12H8.36V49.92A1.51,1.51,0,0,1,10,48.39Z"/><path class="cls-2" d="M29.27,41.25a20.44,20.44,0,0,0-5.67.82V35.9a21.53,21.53,0,0,1,11.34,0v6.22A18.79,18.79,0,0,0,29.27,41.25Z"/><path class="cls-2" d="M22.47,36.26v6.22c-5.67,2.09-9.64,6.77-9.64,12.17,0,7,6.63,11.72,16.44,11.72S45.7,61.69,45.7,54.65c0-5.4-4-10.08-9.63-12.17V36.26c6.63,2.4,10.77,8.51,10.77,16.66,0,9.17-7,15.34-17.57,15.34S11.7,62.09,11.7,52.87C11.7,44.77,15.84,38.66,22.47,36.26Z"/><path class="cls-2" d="M8.3,55h2.38a17.71,17.71,0,0,0,.51,2.55H10A1.59,1.59,0,0,1,8.3,56Z"/><ellipse class="cls-2" cx="48.82" cy="36.41" rx="1.42" ry="1.27"/><polygon class="cls-3" points="3.56 32.29 3.12 33.31 6.81 37.35 8.98 41.28 11.11 45.27 33.85 33.92 31.56 29.21 30.21 26.43 29.42 22.45 29.17 20.2 28.34 20.18 27.16 23.58 25.67 25.61 24.82 26.41 23.59 26.9 21.37 26.12 16.81 23.19 13.63 20.26 12.51 20.77 13.02 28.25 12.67 31.47 11.75 32.85 10.27 33.6 8.25 33.74 6.43 33.39 3.56 32.29"/><polygon class="cls-4" points="6.72 28.51 7.4 30.55 7.77 32.42 7.81 33.69 10.04 33.78 11.45 33.19 12.35 31.55 12.67 29.87 12.72 29.01 8.18 27.01 7.59 27.78 6.72 28.51"/><polygon class="cls-4" points="23.16 20.2 26.57 24.38 25.34 26.01 24.02 26.79 22.84 26.74 22.25 26.33 22.41 23.68 22.57 21.92 22.69 20.68 23.16 20.2"/><circle class="cls-3" cx="1.96" cy="31.46" r="1.45"/><circle class="cls-4" cx="6.38" cy="26.49" r="1.45"/><circle class="cls-3" cx="12.44" cy="19" r="1.45"/><circle class="cls-3" cx="28.59" cy="18.45" r="1.45"/><polygon class="cls-4" points="8.77 40.7 31.52 29.53 32.74 31.78 9.99 43.05 8.77 40.7"/><path d="M22.9,18.32a.41.41,0,0,0,.05.09,1.27,1.27,0,0,1-.18,1.37l-.11,1.08.09,0L23,20.7c.76,1.12,2.69,3.44,3,3.83a4,4,0,0,1-2.16,1.93c-.42.09-1.34,0-3.27-1.2l-.73-.47c-.55-.37-1.16-.82-1.86-1.35-1.73-1.34-3.27-2.74-3.86-3.29a2.07,2.07,0,1,0-2.06,1,40.07,40.07,0,0,1,.47,7.34L8.59,26.87a2,2,0,0,0-.18-1.28,2.07,2.07,0,1,0-2.12,3,13.15,13.15,0,0,1,1.13,4.6A16.46,16.46,0,0,1,4.08,32,2.07,2.07,0,1,0,2.7,33.5a36.83,36.83,0,0,1,4,4.83c.79,1.23,1.89,3.33,2.7,5,0,0,0,0,0,0l0,0c.61,1.23,1.06,2.16,1.07,2.18a.4.4,0,0,0,.24.22.44.44,0,0,0,.32,0L34.23,34.34a.4.4,0,0,0,.21-.25.38.38,0,0,0,0-.33,67.65,67.65,0,0,1-3.57-7.23,35.25,35.25,0,0,1-1.17-6.34,2.07,2.07,0,1,0-3-.79,2,2,0,0,0,1.17,1,19.51,19.51,0,0,1-1.38,3.34C25.8,23,24.1,21,23.56,20.1a2.05,2.05,0,0,0,.13-2.05,2.08,2.08,0,0,0-.71-.81Zm5-.95a1.24,1.24,0,0,1,1.12,2.22l-.32.1-.27,0a1.24,1.24,0,0,1-.53-2.35Zm-16.15.57a1.24,1.24,0,0,1,1.39,2l-.26.19h0a.9.9,0,0,1-.21.08h0a1.22,1.22,0,0,1-1.42-.65A1.25,1.25,0,0,1,11.79,17.94ZM6,25.39a1.24,1.24,0,1,1,1.1,2.23A1.24,1.24,0,0,1,6,25.39Zm1.17,3.09a1.88,1.88,0,0,0,.3-.12,2,2,0,0,0,.81-.72l4.17,1.68a5.22,5.22,0,0,1-1.12,3.31,4,4,0,0,1-3.07.66A14.43,14.43,0,0,0,7.17,28.48ZM1,32.07A1.24,1.24,0,0,1,3.19,31,1.24,1.24,0,1,1,1,32.07ZM31.47,30c.27.55.56,1.1.82,1.61L10,42.59,9.2,41ZM11.12,44.82c-.16-.33-.41-.86-.73-1.49l22.29-11,.79,1.46Zm18.93-18a25.19,25.19,0,0,0,1.06,2.44l-22.3,11c-.48-.89-1-1.73-1.37-2.37a37.46,37.46,0,0,0-4-4.81,2.33,2.33,0,0,0,.26-.28c1.28.59,5.85,2.47,8.17.46s1.3-10.18,1-12.19a1.17,1.17,0,0,0,.2-.06l.12,0a.24.24,0,0,0,.11-.06l.06,0,.17-.1C15,22.17,21.33,27.85,24,27.28s4.26-5.47,4.65-6.73l.23,0A35.19,35.19,0,0,0,30.05,26.8Z"/></g></g></svg>