<svg xmlns="http://www.w3.org/2000/svg" viewBox="0 0 161.05 74.42"><defs><style>.cls-1{fill:#4f4f4f;}.cls-2{fill:#fff;}.cls-3{fill:#efae0c;}</style></defs><g id="Layer_2" data-name="Layer 2"><g id="Layer_1-2" data-name="Layer 1"><path d="M65.36,28.13H59.54v-5.3a1.4,1.4,0,0,0-1.4-1.4h0a1.4,1.4,0,0,0-1.4,1.4v5.3H55a1.36,1.36,0,0,0-1.36,1.37h0A1.36,1.36,0,0,0,55,30.87h1.7V43.54a6.51,6.51,0,0,0,1.55,4.61,5.77,5.77,0,0,0,4.45,1.7,8,8,0,0,0,3.39-.73,1,1,0,0,0,.55-.89v-.86a1,1,0,0,0-1.45-.89,5.53,5.53,0,0,1-2.49.59,2.93,2.93,0,0,1-2.36-.85,4.19,4.19,0,0,1-.79-2.76V30.87h5.82a1.35,1.35,0,0,0,1.35-1.35v0A1.36,1.36,0,0,0,65.36,28.13Z"/><path d="M79.9,27.67a8.05,8.05,0,0,0-3.33.67A9,9,0,0,0,74,30.05a10.85,10.85,0,0,0-1,1.12V29.54a1.41,1.41,0,0,0-1.41-1.41h0a1.41,1.41,0,0,0-1.41,1.41V48.09A1.41,1.41,0,0,0,71.5,49.5h0a1.41,1.41,0,0,0,1.41-1.41V38.47a8.41,8.41,0,0,1,.49-2.66,9.61,9.61,0,0,1,1.4-2.65,8.06,8.06,0,0,1,2.17-2,5.07,5.07,0,0,1,2.73-.74h.19a1,1,0,0,0,1-1v-.77A1,1,0,0,0,79.9,27.67Z"/><path d="M85.73,28.13h0a1.43,1.43,0,0,0-1.42,1.42V48.11a1.39,1.39,0,0,0,1.39,1.39h.08a1.39,1.39,0,0,0,1.39-1.39V29.55A1.43,1.43,0,0,0,85.73,28.13Z"/><path d="M107.92,30.45A7.84,7.84,0,0,0,105,28.39a9.85,9.85,0,0,0-3.87-.72,8.79,8.79,0,0,0-3.46.64,9.18,9.18,0,0,0-2.58,1.61,9.78,9.78,0,0,0-.72.72v-1.1A1.41,1.41,0,0,0,93,28.13h0a1.41,1.41,0,0,0-1.41,1.41V48.11a1.4,1.4,0,0,0,1.39,1.39H93a1.4,1.4,0,0,0,1.4-1.39V37.77a7.85,7.85,0,0,1,.52-2.89,7.68,7.68,0,0,1,1.45-2.34A6.62,6.62,0,0,1,98.47,31a6.2,6.2,0,0,1,2.59-.55,7.1,7.1,0,0,1,2.8.52,5.52,5.52,0,0,1,2,1.4A6,6,0,0,1,107,34.58a10.3,10.3,0,0,1,.42,3v10.5a1.38,1.38,0,0,0,1.38,1.38h.09a1.38,1.38,0,0,0,1.38-1.38V37.54a12.62,12.62,0,0,0-.59-4A8.87,8.87,0,0,0,107.92,30.45Z"/><path d="M135.05,34.52A10.63,10.63,0,0,0,132.78,31a11.5,11.5,0,0,0-12.57-2.38A10.93,10.93,0,0,0,116.72,31a10.8,10.8,0,0,0-2.24,3.56,11.72,11.72,0,0,0-.79,4.29,11.53,11.53,0,0,0,.79,4.24,10.59,10.59,0,0,0,2.27,3.53,11,11,0,0,0,8,3.3,11.36,11.36,0,0,0,4.55-.89,10.65,10.65,0,0,0,5.74-6,11.81,11.81,0,0,0,.78-4.33A11.61,11.61,0,0,0,135.05,34.52ZM124.8,47.19a8.28,8.28,0,0,1-3.33-.65,8.08,8.08,0,0,1-4.32-4.45,9.31,9.31,0,0,1,0-6.55,8,8,0,0,1,1.67-2.66,7.73,7.73,0,0,1,2.58-1.78,8.16,8.16,0,0,1,3.34-.66,8.27,8.27,0,0,1,3.32.66,7.93,7.93,0,0,1,4.32,4.44,8.74,8.74,0,0,1,.61,3.31,9.05,9.05,0,0,1-.59,3.25,8,8,0,0,1-1.67,2.65,8.12,8.12,0,0,1-2.58,1.79A8.33,8.33,0,0,1,124.8,47.19Z"/><circle cx="85.75" cy="23.59" r="1.62"/><path class="cls-1" d="M77,62.35H72.44a.4.4,0,0,0-.4.4v.42a.4.4,0,0,0,.4.4h4.11A.41.41,0,0,1,77,64v3.3a6.57,6.57,0,0,1-.75.53,7.57,7.57,0,0,1-1.06.56,6.57,6.57,0,0,1-1.21.38,5.79,5.79,0,0,1-1.34.15,6,6,0,0,1-2.45-.49,5.56,5.56,0,0,1-1.8-1.32,6,6,0,0,1-1.13-2,6.91,6.91,0,0,1-.4-2.35,6.66,6.66,0,0,1,.41-2.32,6.22,6.22,0,0,1,1.17-1.95,6,6,0,0,1,1.81-1.37,5.39,5.39,0,0,1,2.37-.51,5.75,5.75,0,0,1,2.29.41,8.51,8.51,0,0,1,1.85,1.16.43.43,0,0,0,.25.09.41.41,0,0,0,.31-.14l.27-.33a.4.4,0,0,0,0-.56,10.29,10.29,0,0,0-1.05-.76,6.22,6.22,0,0,0-1.12-.57,6.33,6.33,0,0,0-1.26-.36,8.33,8.33,0,0,0-1.47-.12,6.71,6.71,0,0,0-2.91.62,7,7,0,0,0-2.21,1.63,7.16,7.16,0,0,0-1.39,2.34,7.84,7.84,0,0,0-.49,2.72,8.29,8.29,0,0,0,.47,2.81,6.51,6.51,0,0,0,3.56,3.9,7,7,0,0,0,3,.59,7.4,7.4,0,0,0,3.1-.63,9.45,9.45,0,0,0,2-1.26,1.23,1.23,0,0,0,.44-1V63.56A1.21,1.21,0,0,0,77,62.35Z"/><path class="cls-1" d="M87.6,55.82a.38.38,0,0,0-.36-.22h-.36a.4.4,0,0,0-.36.22L80.09,69.28a.39.39,0,0,0,0,.38.4.4,0,0,0,.34.19h.44a.41.41,0,0,0,.36-.23l1.69-3.55a.4.4,0,0,1,.37-.23H90.8a.41.41,0,0,1,.37.23l1.69,3.55a.39.39,0,0,0,.36.23h.45a.39.39,0,0,0,.34-.19.39.39,0,0,0,0-.38Zm2.6,8.25a.38.38,0,0,1,0,.4.42.42,0,0,1-.35.19H84.28a.39.39,0,0,1-.35-.19.41.41,0,0,1,0-.4l2.78-5.82a.42.42,0,0,1,.75,0Zm-3.06-6.42a.75.75,0,0,1,.48.25A.75.75,0,0,0,87.14,57.65Zm-.09,0a.81.81,0,0,0-.42.12A.81.81,0,0,1,87.05,57.62ZM83.54,63.9,84.93,61,83.54,63.9a.83.83,0,0,0-.07.41A.83.83,0,0,1,83.54,63.9Z"/><path class="cls-1" d="M103.38,55.69H93.31a.4.4,0,0,0-.4.4v.38a.4.4,0,0,0,.4.4h4a.41.41,0,0,1,.42.41V69.45a.4.4,0,0,0,.4.4h.41a.4.4,0,0,0,.4-.4V57.28a.41.41,0,0,1,.42-.41h4a.4.4,0,0,0,.4-.4v-.38A.4.4,0,0,0,103.38,55.69Zm-5.74.84a.84.84,0,0,1,.43.44A.84.84,0,0,0,97.64,56.53Zm.91.75a.82.82,0,0,1,.82-.81A.82.82,0,0,0,98.55,57.28Z"/><path class="cls-1" d="M116.19,68.67H108a.42.42,0,0,1-.42-.42V63.73a.42.42,0,0,1,.42-.41h7.28a.39.39,0,0,0,.39-.4v-.38a.39.39,0,0,0-.39-.4H108a.41.41,0,0,1-.42-.41V57.28a.41.41,0,0,1,.42-.41h8.1a.4.4,0,0,0,.4-.4v-.38a.4.4,0,0,0-.4-.4h-8.52a1.21,1.21,0,0,0-1.21,1.21V68.64a1.21,1.21,0,0,0,1.21,1.21h8.61a.4.4,0,0,0,.4-.4v-.38A.4.4,0,0,0,116.19,68.67Zm-8.19.4a.82.82,0,0,1-.82-.82A.82.82,0,0,0,108,69.07Zm-.82-5.34a.82.82,0,0,1,.82-.81A.82.82,0,0,0,107.18,63.73Zm.82-1.19a.82.82,0,0,1-.82-.81A.82.82,0,0,0,108,62.54Zm-.82-5.26a.82.82,0,0,1,.82-.81A.82.82,0,0,0,107.18,57.28Z"/><path class="cls-1" d="M136.85,55.69h-.42a.39.39,0,0,0-.38.28l-3.42,10.41a.39.39,0,0,1-.39.28.41.41,0,0,1-.4-.29l-3.32-10.44a.4.4,0,0,0-.38-.28h-.32a.4.4,0,0,0-.38.28l-3.3,10.42a.41.41,0,0,1-.4.29.39.39,0,0,1-.39-.28L119.93,56a.39.39,0,0,0-.38-.28h-.43a.4.4,0,0,0-.33.17.39.39,0,0,0-.05.35l4.45,13.46a.39.39,0,0,0,.37.27h.36a.39.39,0,0,0,.38-.28l3.28-10.28a.39.39,0,0,1,.39-.29.41.41,0,0,1,.4.29l3.29,10.28a.39.39,0,0,0,.38.28h.36a.41.41,0,0,0,.38-.27l4.43-13.41a.47.47,0,0,0,0-.17A.4.4,0,0,0,136.85,55.69ZM132.7,66.92a.66.66,0,0,1-.15,0A.66.66,0,0,0,132.7,66.92Zm-.46.14a.83.83,0,0,1-.34-.1A.83.83,0,0,0,132.24,67.06Zm-.78-.56a.89.89,0,0,0,.31.42.89.89,0,0,1-.31-.42l-3.32-10.45Zm-7.72.54a.85.85,0,0,0,.31-.09A.85.85,0,0,1,123.74,67ZM128,58.69a1.08,1.08,0,0,0-.29.09A1.08,1.08,0,0,1,128,58.69Zm-3.51,7.86a.83.83,0,0,1-.25.35A.83.83,0,0,0,124.46,66.55Zm-1,.4s-.12,0-.17,0S123.4,66.93,123.45,67Zm.47,2.59,3.28-10.28a.76.76,0,0,1,.31-.42.76.76,0,0,0-.31.42Zm4.32-10.77a1.59,1.59,0,0,1,.2.07A1.59,1.59,0,0,0,128.24,58.77Zm.51.49a.76.76,0,0,0-.25-.33.76.76,0,0,1,.25.33L132,69.54Z"/><path class="cls-1" d="M143.65,55.82a.4.4,0,0,0-.36-.22h-.36a.38.38,0,0,0-.36.22l-6.43,13.46a.39.39,0,0,0,0,.38.39.39,0,0,0,.33.19h.44a.39.39,0,0,0,.36-.23L139,66.07a.42.42,0,0,1,.37-.23h7.49a.4.4,0,0,1,.37.23l1.69,3.55a.41.41,0,0,0,.36.23h.46a.4.4,0,0,0,.34-.19.39.39,0,0,0,0-.38Zm-4.06,8.08,2.77-5.82a.86.86,0,0,1,.31-.34.86.86,0,0,0-.31.34l-2.77,5.82a.74.74,0,0,0-.08.41A.74.74,0,0,1,139.59,63.9ZM143.1,58a.41.41,0,0,1,.37.23l2.78,5.82a.41.41,0,0,1,0,.4.39.39,0,0,1-.35.19h-5.55a.42.42,0,0,1-.35-.19.38.38,0,0,1,0-.4l2.77-5.82A.42.42,0,0,1,143.1,58Zm3.46,6.66a.82.82,0,0,1-.69.38A.82.82,0,0,0,146.56,64.68Zm-3.46-7.06a.8.8,0,0,1,.57.28A.8.8,0,0,0,143.1,57.62Zm-4.48,8.28-1.69,3.55,1.69-3.55a.8.8,0,0,1,.3-.33A.8.8,0,0,0,138.62,65.9Zm8.95,0a.81.81,0,0,0-.73-.46h0a.81.81,0,0,1,.73.46l1.69,3.55Z"/><path class="cls-1" d="M160.65,55.69h-.5a.37.37,0,0,0-.32.17l-4.67,6.49a.41.41,0,0,1-.34.17.4.4,0,0,1-.33-.17l-4.72-6.49a.4.4,0,0,0-.33-.17H149a.42.42,0,0,0-.36.22.4.4,0,0,0,0,.41l5.49,7.56a.41.41,0,0,1,.08.24v5.33a.4.4,0,0,0,.4.4H155a.39.39,0,0,0,.39-.4V64.12a.41.41,0,0,1,.08-.24L161,56.35a.4.4,0,0,0-.3-.66Zm-5.83,7.23a.71.71,0,0,0,.24-.06A.71.71,0,0,1,154.82,62.92Zm.66-.34a.76.76,0,0,1-.29.25A.76.76,0,0,0,155.48,62.58Zm-.89.29s-.09,0-.13,0S154.55,62.85,154.59,62.87Zm-.15.77L149,56.09l5.49,7.55a.84.84,0,0,1,.16.48A.84.84,0,0,0,154.44,63.64Zm.73,0a.83.83,0,0,0-.15.48.83.83,0,0,1,.15-.48l5.48-7.55Z"/><path class="cls-2" d="M16.84,66.06c1.09-.73-1.76-.45-2-.94a19.16,19.16,0,0,1-3.37-.6c-2-.53-5.25-4.14-5.77-7.24S4.1,48.6,6.27,45.1a20.49,20.49,0,0,1,5.19-5.55s-4.22-10-4.59-17.62S7.11.84,12.06.6,16.28,13,15.44,21.21a105.83,105.83,0,0,0-.24,16.41,23.14,23.14,0,0,1,6.51-1.08,24.77,24.77,0,0,1,5.79.54s1.57-11.64,6.75-18.87S44.87,3.48,48.48,5.6s-1,9.68-4.1,13.61S35.82,29.06,34,32.2a54.46,54.46,0,0,0-3.13,6.51,17.7,17.7,0,0,1,7.56,7.48c2.45,5.06,1.09,11-.24,13.64s-3.18,5-5,5C31.6,65,25,66.6,25,66.6Z"/><path d="M25.05,67.19l-10-.66.75-.5a2.9,2.9,0,0,1-1.23-.33,21.27,21.27,0,0,1-3.27-.61c-2.25-.59-5.66-4.43-6.2-7.72L5,56.93c-.54-3.22-1.45-8.61.74-12.14a21.31,21.31,0,0,1,5-5.44c-.82-2-4.12-10.59-4.45-17.39C6.18,19.75,5.44.33,12,0a3,3,0,0,1,2.43,1c2.21,2.34,2.73,9,1.56,20.27a107.25,107.25,0,0,0-.28,15.57,23.78,23.78,0,0,1,6-.89,28.82,28.82,0,0,1,5.31.42c.4-2.55,2.18-12.12,6.76-18.51,5.35-7.46,10.89-15.18,15-12.77a3.15,3.15,0,0,1,1.55,2.24c.79,4.23-4.84,11.44-5.48,12.25-1,1.3-2.3,2.79-3.64,4.37a78.59,78.59,0,0,0-6.69,8.54,55.33,55.33,0,0,0-2.89,5.94A18.06,18.06,0,0,1,39,45.93c2.66,5.51,1,11.67-.24,14.16-.79,1.58-2.91,5.27-5.54,5.38-1.23.06-6.23,1.25-8,1.7Zm-7.42-1.67,7.31.48a83.31,83.31,0,0,1,8.2-1.71c1.37-.06,3.11-1.87,4.54-4.73,1.34-2.68,2.51-8.39.23-13.11a17.18,17.18,0,0,0-7.29-7.2l-.5-.24.2-.52A57.35,57.35,0,0,1,33.5,31.9a77.82,77.82,0,0,1,6.81-8.72c1.33-1.57,2.59-3.05,3.61-4.33,3-3.73,5.74-8.67,5.25-11.3a2,2,0,0,0-1-1.44C45,4.23,39.3,12.18,34.73,18.55c-5,7-6.63,18.5-6.65,18.61l-.08.66-.65-.16a24.34,24.34,0,0,0-5.63-.53,22.82,22.82,0,0,0-6.33,1l-.73.25-.05-.76a107.61,107.61,0,0,1,.24-16.52C16,10.36,15.54,3.86,13.6,1.81a1.91,1.91,0,0,0-1.51-.62C8.41,1.37,7,11.74,7.46,21.9,7.82,29.3,12,39.23,12,39.33l.19.44-.4.27a20,20,0,0,0-5,5.37c-1.95,3.15-1.09,8.26-.57,11.32l.07.45c.5,3,3.68,6.33,5.34,6.77a18.3,18.3,0,0,0,3.26.58l.34,0,.09.18a5.66,5.66,0,0,0,.81.14C16.85,65,17.44,65,17.63,65.52Z"/><path d="M12.58,39l1.13-.88s-.16-10.29,0-16.57.48-14.07-1.61-14S8.56,13.62,9.37,22.15A103.38,103.38,0,0,0,12.58,39Z"/><path d="M28.42,37.18S32.36,26.89,35.9,21.1s8-9.61,9.44-8.72-2.71,5.75-6.68,11-8.79,14.64-8.79,14.64Z"/><path d="M26.4,58.54a.22.22,0,0,0-.3.08s-.68,1.19-1.67,1.26a2.52,2.52,0,0,1-1.78-.83V57.29c.64-.34,1.67-1.41,1.67-1.77a1.65,1.65,0,0,0-1.77-1.29c-1.16,0-2,.76-2,1.41s1.3,1.45,1.67,1.7v1.72a2.13,2.13,0,0,1-1.55.82c-.94,0-1.64-1.28-1.65-1.29a.22.22,0,0,0-.39.21c0,.06.84,1.52,2,1.52a2.46,2.46,0,0,0,1.78-.86,2.86,2.86,0,0,0,1.88.86h.14a2.94,2.94,0,0,0,2-1.48A.21.21,0,0,0,26.4,58.54Z"/><path d="M13.72,51.27a1.8,1.8,0,1,0,1.79,1.79A1.8,1.8,0,0,0,13.72,51.27Zm.51,1.66a.48.48,0,0,1-.49-.48.49.49,0,1,1,1,0A.48.48,0,0,1,14.23,52.93Z"/><path d="M31.39,51.27a1.8,1.8,0,1,0,1.79,1.79A1.8,1.8,0,0,0,31.39,51.27Zm.51,1.66a.48.48,0,0,1-.49-.48.49.49,0,1,1,1,0A.48.48,0,0,1,31.9,52.93Z"/><path d="M43.07,47.06v-8a2.89,2.89,0,0,0,2.27-2.7,3.13,3.13,0,0,0-6.23,0,2.89,2.89,0,0,0,2.26,2.7v7.75h-.22c-2.33-8.2-9.36-13.3-18.48-13.3s-16.15,5-18.48,13.3H3.4A3.25,3.25,0,0,0,0,49.92V56a3.26,3.26,0,0,0,3.4,3.06H4.48a15.36,15.36,0,0,0,4.25,6L7.2,66.47a.94.94,0,0,0-.12,1.33c3.46,4.18,9.13,6.62,15.53,6.62S34.68,72,38.14,67.8A.94.94,0,0,0,38,66.47L36.5,65.1a15.72,15.72,0,0,0,4.25-6h1.19A3.26,3.26,0,0,0,45.34,56V49.92A3.08,3.08,0,0,0,43.07,47.06Zm-20.4-4.79c8.44,0,15.3,5.56,15.3,12.38,0,7.39-7.71,10.7-15.3,10.7S7.37,62,7.37,54.65C7.37,47.83,14.23,42.27,22.67,42.27Z"/><path class="cls-2" d="M43.64,54H41.37c0-.35.06-.71.06-1.12A23,23,0,0,0,41,48.39h1a1.59,1.59,0,0,1,1.7,1.53Z"/><path class="cls-2" d="M41.94,57.56H40.75A20.92,20.92,0,0,0,41.26,55h2.38v1A1.59,1.59,0,0,1,41.94,57.56Z"/><path class="cls-2" d="M22.67,72.84c-5.67,0-10.71-2-13.89-5.65l1.59-1.43a21.12,21.12,0,0,0,12.3,3.52A21.12,21.12,0,0,0,35,65.76l1.58,1.43C33.38,70.81,28.34,72.84,22.67,72.84Z"/><path class="cls-2" d="M3.4,48.39h1A23.39,23.39,0,0,0,4,52.87,8.78,8.78,0,0,0,4,54H1.76V49.92A1.51,1.51,0,0,1,3.4,48.39Z"/><path class="cls-2" d="M22.67,41.25a20.5,20.5,0,0,0-5.67.82V35.9a20.56,20.56,0,0,1,5.67-.76,20.56,20.56,0,0,1,5.67.76v6.22A18.79,18.79,0,0,0,22.67,41.25Z"/><path class="cls-2" d="M15.87,36.26v6.22c-5.67,2.09-9.64,6.77-9.64,12.17,0,7,6.64,11.72,16.44,11.72s16.44-4.68,16.44-11.72c0-5.4-4-10.08-9.64-12.17V36.26c6.63,2.4,10.77,8.51,10.77,16.66,0,9.17-7,15.34-17.57,15.34S5.1,62.09,5.1,52.87C5.1,44.77,9.24,38.66,15.87,36.26Z"/><path class="cls-2" d="M1.7,55H4.08a17.71,17.71,0,0,0,.51,2.55H3.4A1.59,1.59,0,0,1,1.7,56Z"/><ellipse class="cls-2" cx="42.22" cy="36.41" rx="1.42" ry="1.27"/><path class="cls-3" d="M38.9,33.78a.72.72,0,0,1-.51-.2.75.75,0,0,1,0-1.06,5.45,5.45,0,0,1,7.8,0,.75.75,0,1,1-1.09,1,3.94,3.94,0,0,0-5.61,0A.78.78,0,0,1,38.9,33.78Z"/><path class="cls-3" d="M37.65,31.58a.74.74,0,0,1-.53-.22.75.75,0,0,1,0-1.06,7.35,7.35,0,0,1,5.15-2.08,7.2,7.2,0,0,1,5.1,2,.75.75,0,1,1-1,1.07,5.73,5.73,0,0,0-4-1.61,5.84,5.84,0,0,0-4.09,1.64A.73.73,0,0,1,37.65,31.58Z"/><path class="cls-3" d="M36.45,29.38a.75.75,0,0,1-.52-1.29,9.24,9.24,0,0,1,12.63,0,.75.75,0,1,1-1,1.08,7.76,7.76,0,0,0-10.56,0A.73.73,0,0,1,36.45,29.38Z"/></g></g></svg>