<?xml version="1.0" encoding="UTF-8" standalone="no"?>
<svg
        viewBox="0 0 111.83 111.83"
        version="1.1"
        id="svg32"
        sodipodi:docname="trino-gateway-h.svg"
        width="111.83"
        height="111.83"
        inkscape:version="1.3.2 (091e20e, 2023-11-25)"
        xmlns:inkscape="http://www.inkscape.org/namespaces/inkscape"
        xmlns:sodipodi="http://sodipodi.sourceforge.net/DTD/sodipodi-0.dtd"
        xmlns="http://www.w3.org/2000/svg"
        xmlns:svg="http://www.w3.org/2000/svg">
  <sodipodi:namedview
          id="namedview32"
          pagecolor="#ffffff"
          bordercolor="#000000"
          borderopacity="0.25"
          inkscape:showpageshadow="2"
          inkscape:pageopacity="0.0"
          inkscape:pagecheckerboard="0"
          inkscape:deskcolor="#d1d1d1"
          inkscape:zoom="1.8998955"
          inkscape:cx="142.63942"
          inkscape:cy="58.424266"
          inkscape:window-width="1328"
          inkscape:window-height="451"
          inkscape:window-x="0"
          inkscape:window-y="25"
          inkscape:window-maximized="0"
          inkscape:current-layer="svg32" />
  <defs
          id="defs1">
    <style
            id="style1">.cls-1{fill:#4f4f4f;}.cls-2{fill:#fff;}</style>
  </defs>
  <g
          id="Layer_2"
          data-name="Layer 2"
          transform="translate(26.317237,0.00593649)">
    <g
            id="Layer_1-2"
            data-name="Layer 1">
      <path
              class="cls-2"
              d="m 23.59,66.06 c 1.09,-0.73 -1.76,-0.45 -2,-0.94 a 19.17,19.17 0 0 1 -3.38,-0.6 c -2,-0.53 -5.25,-4.14 -5.77,-7.24 C 11.92,54.18 10.85,48.6 13,45.1 a 20.49,20.49 0 0 1 5.19,-5.55 c 0,0 -4.22,-10 -4.58,-17.62 C 13.25,14.31 13.87,0.84 18.81,0.6 23.75,0.36 23,13 22.19,21.21 A 105.83,105.83 0 0 0 22,37.62 a 23.14,23.14 0 0 1 6.51,-1.08 24.77,24.77 0 0 1 5.79,0.54 c 0,0 1.52,-11.64 6.7,-18.87 5.18,-7.23 10.62,-14.73 14.24,-12.61 3.62,2.12 -1,9.68 -4.1,13.61 -3.1,3.93 -8.57,9.85 -10.38,13 a 54.46,54.46 0 0 0 -3.13,6.51 17.65,17.65 0 0 1 7.56,7.48 c 2.45,5.06 1.09,11 -0.23,13.64 -1.32,2.64 -3.19,5 -5,5 -1.57,0.07 -8.18,1.72 -8.18,1.72 z"
              id="path13" />
      <path
              d="m 31.8,67.19 -10,-0.66 0.76,-0.5 A 3,3 0 0 1 21.32,65.7 21.27,21.27 0 0 1 18.05,65.09 C 15.81,64.5 12.4,60.66 11.85,57.37 l -0.08,-0.44 c -0.54,-3.22 -1.45,-8.61 0.74,-12.14 a 21.11,21.11 0 0 1 5,-5.44 C 16.69,37.35 13.38,28.76 13.06,21.96 12.93,19.75 12.2,0.33 18.78,0 a 3,3 0 0 1 2.43,1 c 2.21,2.34 2.73,9 1.57,20.27 a 106.2,106.2 0 0 0 -0.29,15.57 23.78,23.78 0 0 1 6,-0.89 28.73,28.73 0 0 1 5.31,0.42 c 0.41,-2.55 2.18,-12.12 6.76,-18.51 5.35,-7.46 10.89,-15.18 15,-12.77 a 3.15,3.15 0 0 1 1.55,2.24 c 0.79,4.23 -4.84,11.44 -5.48,12.25 -1,1.3 -2.3,2.79 -3.63,4.37 a 76.14,76.14 0 0 0 -6.69,8.54 54,54 0 0 0 -2.9,5.94 18.06,18.06 0 0 1 7.34,7.5 c 2.66,5.51 1,11.67 -0.23,14.16 -0.79,1.58 -2.92,5.27 -5.55,5.38 -1.23,0.06 -6.23,1.25 -8,1.7 z M 24.38,65.52 31.69,66 c 0.83,-0.21 6.68,-1.64 8.2,-1.71 1.37,-0.06 3.11,-1.87 4.54,-4.73 1.34,-2.68 2.51,-8.39 0.23,-13.11 a 17.18,17.18 0 0 0 -7.29,-7.2 L 36.88,39 l 0.2,-0.52 a 54.6,54.6 0 0 1 3.17,-6.59 77.82,77.82 0 0 1 6.81,-8.72 c 1.33,-1.57 2.59,-3.05 3.61,-4.33 3,-3.73 5.74,-8.67 5.25,-11.3 a 2,2 0 0 0 -1,-1.44 c -3.21,-1.88 -8.89,6.07 -13.45,12.44 -5,7 -6.64,18.5 -6.65,18.61 l -0.09,0.66 -0.65,-0.16 a 24.34,24.34 0 0 0 -5.63,-0.53 22.82,22.82 0 0 0 -6.33,1 l -0.73,0.25 -0.05,-0.76 A 107.61,107.61 0 0 1 21.58,21.09 C 22.69,10.3 22.27,3.8 20.33,1.75 A 1.9,1.9 0 0 0 18.82,1.13 c -3.67,0.18 -5.11,10.55 -4.62,20.71 0.35,7.4 4.49,17.33 4.53,17.43 l 0.19,0.44 -0.4,0.27 a 19.91,19.91 0 0 0 -5,5.37 c -2,3.15 -1.1,8.26 -0.58,11.32 l 0.07,0.45 c 0.5,3 3.68,6.33 5.34,6.77 a 18.3,18.3 0 0 0 3.26,0.58 h 0.34 l 0.1,0.18 a 5.27,5.27 0 0 0 0.8,0.14 C 23.6,65 24.2,65 24.38,65.52 Z"
              id="path14" />
      <path
              d="m 19.33,39 1.13,-0.88 c 0,0 -0.16,-10.29 0,-16.57 0.16,-6.28 0.48,-14.07 -1.61,-14 -2.09,0.07 -3.54,6.11 -2.73,14.64 A 103.38,103.38 0 0 0 19.33,39 Z"
              id="path15" />
      <path
              d="m 35.17,37.18 c 0,0 3.94,-10.29 7.48,-16.08 3.54,-5.79 8,-9.61 9.44,-8.72 1.44,0.89 -2.71,5.75 -6.68,11 a 134.73,134.73 0 0 0 -8.79,14.64 z"
              id="path16" />
      <path
              d="m 33.15,58.54 a 0.23,0.23 0 0 0 -0.3,0.08 c 0,0 -0.68,1.19 -1.67,1.26 a 2.47,2.47 0 0 1 -1.77,-0.83 v -1.76 c 0.63,-0.34 1.66,-1.41 1.66,-1.77 a 1.65,1.65 0 0 0 -1.76,-1.29 c -1.17,0 -2,0.76 -2,1.41 0,0.65 1.29,1.45 1.66,1.7 v 1.72 a 2.13,2.13 0 0 1 -1.54,0.82 c -0.94,0 -1.65,-1.28 -1.66,-1.29 a 0.22147235,0.22147235 0 0 0 -0.39,0.21 c 0,0.06 0.84,1.52 2.05,1.52 a 2.5,2.5 0 0 0 1.78,-0.86 2.81,2.81 0 0 0 1.87,0.86 h 0.14 a 3,3 0 0 0 2,-1.48 0.22,0.22 0 0 0 -0.07,-0.3 z"
              id="path17" />
      <path
              d="m 20.47,51.27 a 1.8,1.8 0 1 0 1.79,1.79 1.79,1.79 0 0 0 -1.79,-1.79 z M 21,52.93 A 0.47,0.47 0 0 1 20.52,52.45 0.48,0.48 0 0 1 21,52 0.49,0.49 0 0 1 21.49,52.49 0.48,0.48 0 0 1 21,52.93 Z"
              id="path18" />
      <path
              d="m 38.14,51.27 a 1.8,1.8 0 1 0 1.79,1.79 1.79,1.79 0 0 0 -1.79,-1.79 z m 0.51,1.66 a 0.47,0.47 0 0 1 -0.48,-0.48 0.48,0.48 0 0 1 0.48,-0.49 0.49,0.49 0 0 1 0.49,0.49 0.48,0.48 0 0 1 -0.49,0.48 z"
              id="path19" />
      <path
              d="m 49.82,47.06 v -8 a 2.89,2.89 0 0 0 2.27,-2.7 3.13,3.13 0 0 0 -6.23,0 2.89,2.89 0 0 0 2.26,2.7 v 7.75 H 47.9 c -2.33,-8.2 -9.35,-13.3 -18.48,-13.3 -9.13,0 -16.15,5 -18.47,13.3 h -0.8 a 3.25,3.25 0 0 0 -3.4,3.06 V 56 a 3.26,3.26 0 0 0 3.4,3.06 h 1.08 a 15.46,15.46 0 0 0 4.25,6 L 14,66.47 a 0.94,0.94 0 0 0 -0.11,1.33 c 3.4,4.2 9.11,6.62 15.48,6.62 6.37,0 12.07,-2.42 15.52,-6.62 A 0.94,0.94 0 0 0 44.78,66.47 L 43.25,65.1 a 15.72,15.72 0 0 0 4.25,-6 h 1.19 a 3.26,3.26 0 0 0 3.4,-3.1 v -6.08 a 3.08,3.08 0 0 0 -2.27,-2.86 z m -20.4,-4.79 c 8.45,0 15.3,5.56 15.3,12.38 0,7.39 -7.7,10.7 -15.3,10.7 -7.6,0 -15.3,-3.35 -15.3,-10.7 0,-6.82 6.88,-12.38 15.3,-12.38 z"
              id="path20" />
      <path
              class="cls-2"
              d="m 50.39,54 h -2.27 c 0,-0.35 0.06,-0.71 0.06,-1.12 A 23,23 0 0 0 47.73,48.4 h 1 a 1.59,1.59 0 0 1 1.7,1.53 z"
              id="path21" />
      <path
              class="cls-2"
              d="M 48.69,57.56 H 47.5 A 17.71,17.71 0 0 0 48,55 h 2.38 v 1 a 1.59,1.59 0 0 1 -1.69,1.56 z"
              id="path22" />
      <path
              class="cls-2"
              d="m 29.42,72.84 c -5.67,0 -10.71,-2 -13.88,-5.65 l 1.58,-1.43 a 21.12,21.12 0 0 0 12.3,3.52 21.1,21.1 0 0 0 12.3,-3.52 l 1.59,1.43 c -3.18,3.62 -8.22,5.65 -13.89,5.65 z"
              id="path23" />
      <path
              class="cls-2"
              d="m 10.15,48.39 h 1 A 23.39,23.39 0 0 0 10.7,52.87 7.33,7.33 0 0 0 10.78,54 H 8.51 v -4.08 a 1.51,1.51 0 0 1 1.64,-1.53 z"
              id="path24" />
      <path
              class="cls-2"
              d="m 29.42,41.25 a 20.5,20.5 0 0 0 -5.67,0.82 V 35.9 a 21.53,21.53 0 0 1 11.34,0 v 6.22 a 18.75,18.75 0 0 0 -5.67,-0.87 z"
              id="path25" />
      <path
              class="cls-2"
              d="m 22.62,36.26 v 6.22 C 17,44.57 13,49.25 13,54.65 c 0,7 6.63,11.72 16.43,11.72 9.8,0 16.44,-4.68 16.44,-11.72 0,-5.4 -4,-10.08 -9.64,-12.17 v -6.22 c 6.62,2.4 10.77,8.51 10.77,16.66 0,9.17 -7,15.34 -17.57,15.34 -10.57,0 -17.58,-6.17 -17.58,-15.39 0,-8.1 4.15,-14.21 10.77,-16.61 z"
              id="path26" />
      <path
              class="cls-2"
              d="m 8.45,55 h 2.38 a 20.92,20.92 0 0 0 0.51,2.55 H 10.15 A 1.59,1.59 0 0 1 8.45,56 Z"
              id="path27" />
      <ellipse
              class="cls-2"
              cx="48.970001"
              cy="36.41"
              rx="1.42"
              ry="1.27"
              id="ellipse27" />
      <path
              d="m 12.33,86.52 a 4.22,4.22 0 0 0 4.18,-3.68 h 2 a 1.71,1.71 0 0 0 1.23,-0.44 2.17,2.17 0 0 0 0.55,-1.63 v -9.48 a 0.75,0.75 0 0 0 -1.5,0 v 9.49 a 1.13,1.13 0 0 1 -0.09,0.55 1.05,1.05 0 0 1 -0.32,0 h -1.92 a 4.23,4.23 0 1 0 -4.13,5.18 z m 0,-7 a 2.74,2.74 0 1 1 -2.73,2.76 2.74,2.74 0 0 1 2.73,-2.73 z"
              id="path28" />
      <path
              d="m 30.12,103.45 v -29 h -1.5 v 29 a 4.2,4.2 0 1 0 1.5,0 z m -0.86,6.88 a 2.74,2.74 0 1 1 2.74,-2.74 2.74,2.74 0 0 1 -2.74,2.74 z"
              id="path29" />
      <path
              d="m 46.43,92.38 v -3 a 2.16,2.16 0 0 0 -0.56,-1.63 1.9,1.9 0 0 0 -1.51,-0.43 h -8.4 -0.15 a 1.47,1.47 0 0 1 -0.32,0 1,1 0 0 1 -0.1,-0.56 V 73.24 a 0.75,0.75 0 0 0 -1.5,0 v 13.48 a 2.15,2.15 0 0 0 0.56,1.64 1.9,1.9 0 0 0 1.51,0.43 h 5 3.37 0.15 a 1.05,1.05 0 0 1 0.32,0 1,1 0 0 1 0.1,0.55 v 3 a 4.25,4.25 0 1 0 1.5,0 z m -0.77,6.89 a 2.74,2.74 0 1 1 2.74,-2.73 2.74,2.74 0 0 1 -2.74,2.73 z"
              id="path30" />
      <path
              d="m 52.68,75.81 a 4.23,4.23 0 0 0 -4.17,3.53 h -7.66 a 1.07,1.07 0 0 1 -0.32,0 1,1 0 0 1 -0.1,-0.56 v -7.5 a 0.75,0.75 0 0 0 -1.5,0 v 7.49 a 2.12,2.12 0 0 0 0.56,1.63 1.71,1.71 0 0 0 1.27,0.44 h 7.76 a 4.23,4.23 0 1 0 4.16,-5 z m 0,7 A 2.74,2.74 0 1 1 55.41,80 2.74,2.74 0 0 1 52.68,82.78 Z"
              id="path31" />
      <path
              d="m 25.17,73.92 a 0.75,0.75 0 0 0 -1.5,0 V 91.4 a 1,1 0 0 1 -0.1,0.56 1.09,1.09 0 0 1 -0.32,0 H 8.36 a 4.26,4.26 0 1 0 0.06,1.5 h 15 A 1.7,1.7 0 0 0 24.61,93 2.15,2.15 0 0 0 25.17,91.36 Z M 4.24,95.65 A 2.74,2.74 0 1 1 7,92.91 2.74,2.74 0 0 1 4.24,95.65 Z"
              id="path32" />
    </g>
  </g>
</svg>
