<?xml version="1.0" encoding="UTF-8" standalone="no"?>
<svg
   viewBox="0 0 89.120002 89.12"
   version="1.1"
   id="svg47"
   sodipodi:docname="tg-3-stacked.svg"
   width="89.120003"
   height="89.120003"
   inkscape:version="1.3.2 (091e20e, 2023-11-25)"
   xmlns:inkscape="http://www.inkscape.org/namespaces/inkscape"
   xmlns:sodipodi="http://sodipodi.sourceforge.net/DTD/sodipodi-0.dtd"
   xmlns="http://www.w3.org/2000/svg"
   xmlns:svg="http://www.w3.org/2000/svg">
  <sodipodi:namedview
     id="namedview47"
     pagecolor="#ffffff"
     bordercolor="#000000"
     borderopacity="0.25"
     inkscape:showpageshadow="2"
     inkscape:pageopacity="0.0"
     inkscape:pagecheckerboard="0"
     inkscape:deskcolor="#d1d1d1"
     inkscape:zoom="2.6481148"
     inkscape:cx="44.560001"
     inkscape:cy="44.560001"
     inkscape:window-width="1328"
     inkscape:window-height="451"
     inkscape:window-x="0"
     inkscape:window-y="25"
     inkscape:window-maximized="0"
     inkscape:current-layer="svg47" />
  <defs
     id="defs1">
    <style
       id="style1">.cls-1{fill:#4f4f4f;}.cls-2{fill:#f4bc3d;}.cls-3{fill:#d39822;}.cls-4{fill:#fff;}</style>
  </defs>
  <g
     id="Layer_1-2"
     data-name="Layer 1"
     inkscape:label="Layer_1-2"
     transform="translate(19.4)">
    <polygon
       class="cls-2"
       points="44.95,55.85 47.9,61.12 49.49,64.61 48.8,67.79 43.99,74.42 33.5,82.09 25.33,86.05 17.11,88.13 13.3,88.27 9.35,86.73 4.99,79.01 4.13,77.64 4.53,74.56 6.3,71.79 8.35,69.43 10.21,70.74 8.94,73.06 8.44,75.56 9.53,77.33 13.16,77.78 26.24,73.6 34.27,68.11 39,63.3 40.9,60.44 40.54,57.98 40.59,56.21 "
       id="polygon12" />
    <polygon
       class="cls-3"
       points="8.44,75.56 8.71,73.38 11.25,71.06 14.39,72.29 18.16,73.6 16.66,75.1 14.93,76.74 14.3,77.46 11.62,77.46 9.8,77.19 "
       id="polygon13" />
    <path
       d="m 33.56,56.74 a 44.69,44.69 0 0 0 -12.33,5 44.89,44.89 0 0 0 -10.61,8 c -3.48,3.78 -3.4,6 -2.72,7.21 a 3.31,3.31 0 0 0 2.1,1.53 11.92,11.92 0 0 0 5.45,-0.15 45.23,45.23 0 0 0 12.34,-5 45.28,45.28 0 0 0 10.6,-8 c 3.49,-3.79 3.41,-6 2.72,-7.22 -0.69,-1.22 -2.51,-2.42 -7.55,-1.37 z M 9.33,76.15 c -0.56,-1 0.4,-3 2.5,-5.29 A 43.38,43.38 0 0 1 22,63.14 a 43.14,43.14 0 0 1 11.9,-4.79 10.78,10.78 0 0 1 4.69,-0.18 1.79,1.79 0 0 1 1.13,0.74 v 0 c 0.48,0.84 -0.14,2.42 -1.63,4.27 A 53.56,53.56 0 0 0 25.2,68.53 53.24,53.24 0 0 0 13.91,76.93 C 11.52,77.27 9.81,77 9.33,76.15 Z M 27,71.92 A 47,47 0 0 1 17,76.24 57.16,57.16 0 0 1 35.9,65.53 46.71,46.71 0 0 1 27,71.92 Z"
       id="path13" />
    <path
       d="m 49.63,62.74 -3.85,-6.9 C 44.45,53.48 41,52.61 36,53.39 A 48.61,48.61 0 0 0 20.2,59.33 48.77,48.77 0 0 0 7,69.83 c -3.22,3.88 -4.26,7.31 -2.93,9.66 l 3.84,6.91 a 5.24,5.24 0 0 0 3.32,2.34 15.79,15.79 0 0 0 6.47,0.1 A 48.61,48.61 0 0 0 33.49,82.9 48.77,48.77 0 0 0 46.7,72.4 c 3.22,-3.88 4.3,-7.31 2.93,-9.66 z m -4.2,8.61 A 47.28,47.28 0 0 1 32.68,81.47 47.43,47.43 0 0 1 17.45,87.22 c -4.2,0.65 -7.15,0.06 -8.11,-1.64 l -3.85,-6.9 c -1,-1.69 0,-4.53 2.77,-7.8 A 47.12,47.12 0 0 1 21,60.76 47.35,47.35 0 0 1 36.24,55 a 14.6,14.6 0 0 1 5.78,0.06 3.67,3.67 0 0 1 2.33,1.57 l 3.84,6.9 v 0 c 0.96,1.71 -0.04,4.55 -2.76,7.82 z"
       id="path14" />
    <path
       class="cls-4"
       d="m 16.84,66.06 c 1.09,-0.73 -1.76,-0.45 -2,-0.94 a 19.16,19.16 0 0 1 -3.37,-0.6 C 9.47,63.99 6.22,60.38 5.7,57.28 5.18,54.18 4.1,48.6 6.27,45.1 a 20.49,20.49 0 0 1 5.19,-5.55 c 0,0 -4.22,-10 -4.59,-17.62 C 6.5,14.31 7.11,0.84 12.06,0.6 17.01,0.36 16.28,13 15.44,21.21 a 105.83,105.83 0 0 0 -0.24,16.41 23.14,23.14 0 0 1 6.51,-1.08 24.77,24.77 0 0 1 5.79,0.54 c 0,0 1.57,-11.64 6.75,-18.87 5.18,-7.23 10.62,-14.73 14.23,-12.61 3.61,2.12 -1,9.68 -4.1,13.61 -3.1,3.93 -8.56,9.85 -10.38,12.99 a 54.46,54.46 0 0 0 -3.13,6.51 17.7,17.7 0 0 1 7.56,7.48 c 2.45,5.06 1.09,11 -0.24,13.64 -1.33,2.64 -3.18,5 -5,5 C 31.6,65 25,66.6 25,66.6 Z"
       id="path15" />
    <path
       d="m 25.05,67.19 -10,-0.66 0.75,-0.5 A 2.9,2.9 0 0 1 14.57,65.7 21.27,21.27 0 0 1 11.3,65.09 C 9.05,64.5 5.64,60.66 5.1,57.37 L 5,56.93 C 4.46,53.71 3.55,48.32 5.74,44.79 a 21.31,21.31 0 0 1 5,-5.44 C 9.92,37.35 6.62,28.76 6.29,21.96 6.18,19.75 5.44,0.33 12,0 a 3,3 0 0 1 2.43,1 c 2.21,2.34 2.73,9 1.56,20.27 a 107.25,107.25 0 0 0 -0.28,15.57 23.78,23.78 0 0 1 6,-0.89 28.82,28.82 0 0 1 5.31,0.42 c 0.4,-2.55 2.18,-12.12 6.76,-18.51 5.35,-7.46 10.89,-15.18 15,-12.77 a 3.15,3.15 0 0 1 1.55,2.24 c 0.79,4.23 -4.84,11.44 -5.48,12.25 -1,1.3 -2.3,2.79 -3.64,4.37 a 78.59,78.59 0 0 0 -6.69,8.54 55.33,55.33 0 0 0 -2.89,5.94 18.06,18.06 0 0 1 7.37,7.5 c 2.66,5.51 1,11.67 -0.24,14.16 -0.79,1.58 -2.91,5.27 -5.54,5.38 -1.23,0.06 -6.23,1.25 -8,1.7 z M 17.63,65.52 24.94,66 a 83.31,83.31 0 0 1 8.2,-1.71 c 1.37,-0.06 3.11,-1.87 4.54,-4.73 1.34,-2.68 2.51,-8.39 0.23,-13.11 a 17.18,17.18 0 0 0 -7.29,-7.2 l -0.5,-0.24 0.2,-0.52 a 57.35,57.35 0 0 1 3.18,-6.59 77.82,77.82 0 0 1 6.81,-8.72 c 1.33,-1.57 2.59,-3.05 3.61,-4.33 3,-3.73 5.74,-8.67 5.25,-11.3 a 2,2 0 0 0 -1,-1.44 C 45,4.23 39.3,12.18 34.73,18.55 c -5,7 -6.63,18.5 -6.65,18.61 L 28,37.82 27.35,37.66 a 24.34,24.34 0 0 0 -5.63,-0.53 22.82,22.82 0 0 0 -6.33,1 l -0.73,0.25 -0.05,-0.76 A 107.61,107.61 0 0 1 14.85,21.1 C 16,10.36 15.54,3.86 13.6,1.81 A 1.91,1.91 0 0 0 12.09,1.19 C 8.41,1.37 7,11.74 7.46,21.9 7.82,29.3 12,39.23 12,39.33 l 0.19,0.44 -0.4,0.27 a 20,20 0 0 0 -5,5.37 C 4.84,48.56 5.7,53.67 6.22,56.73 l 0.07,0.45 c 0.5,3 3.68,6.33 5.34,6.77 a 18.3,18.3 0 0 0 3.26,0.58 h 0.34 l 0.09,0.18 a 5.66,5.66 0 0 0 0.81,0.14 c 0.72,0.15 1.31,0.15 1.5,0.67 z"
       id="path16" />
    <path
       d="m 12.58,39 1.13,-0.88 c 0,0 -0.16,-10.29 0,-16.57 0.16,-6.28 0.48,-14.07 -1.61,-14 -2.09,0.07 -3.54,6.07 -2.73,14.6 A 103.38,103.38 0 0 0 12.58,39 Z"
       id="path17" />
    <path
       d="m 28.42,37.18 c 0,0 3.94,-10.29 7.48,-16.08 3.54,-5.79 8,-9.61 9.44,-8.72 1.44,0.89 -2.71,5.75 -6.68,11 -3.97,5.25 -8.79,14.64 -8.79,14.64 z"
       id="path18" />
    <path
       d="m 26.4,58.54 a 0.22,0.22 0 0 0 -0.3,0.08 c 0,0 -0.68,1.19 -1.67,1.26 a 2.52,2.52 0 0 1 -1.78,-0.83 v -1.76 c 0.64,-0.34 1.67,-1.41 1.67,-1.77 a 1.65,1.65 0 0 0 -1.77,-1.29 c -1.16,0 -2,0.76 -2,1.41 0,0.65 1.3,1.45 1.67,1.7 v 1.72 a 2.13,2.13 0 0 1 -1.55,0.82 c -0.94,0 -1.64,-1.28 -1.65,-1.29 a 0.22147235,0.22147235 0 0 0 -0.39,0.21 c 0,0.06 0.84,1.52 2,1.52 a 2.46,2.46 0 0 0 1.78,-0.86 2.86,2.86 0 0 0 1.88,0.86 h 0.14 a 2.94,2.94 0 0 0 2,-1.48 0.21,0.21 0 0 0 -0.03,-0.3 z"
       id="path19" />
    <path
       d="m 13.72,51.27 a 1.8,1.8 0 1 0 1.79,1.79 1.8,1.8 0 0 0 -1.79,-1.79 z m 0.51,1.66 a 0.48,0.48 0 0 1 -0.49,-0.48 0.5,0.5 0 1 1 1,0 0.48,0.48 0 0 1 -0.51,0.48 z"
       id="path20" />
    <path
       d="m 31.39,51.27 a 1.8,1.8 0 1 0 1.79,1.79 1.8,1.8 0 0 0 -1.79,-1.79 z m 0.51,1.66 a 0.48,0.48 0 0 1 -0.49,-0.48 0.5,0.5 0 1 1 1,0 0.48,0.48 0 0 1 -0.51,0.48 z"
       id="path21" />
    <path
       d="m 43.07,47.06 v -8 a 2.89,2.89 0 0 0 2.27,-2.7 3.13,3.13 0 0 0 -6.23,0 2.89,2.89 0 0 0 2.26,2.7 v 7.75 h -0.22 c -2.33,-8.2 -9.36,-13.3 -18.48,-13.3 -9.12,0 -16.15,5 -18.48,13.3 H 3.4 A 3.25,3.25 0 0 0 0,49.92 V 56 a 3.26,3.26 0 0 0 3.4,3.06 h 1.08 a 15.36,15.36 0 0 0 4.25,6 L 7.2,66.47 A 0.94,0.94 0 0 0 7.08,67.8 c 3.46,4.18 9.13,6.62 15.53,6.62 6.4,0 12.07,-2.42 15.53,-6.62 A 0.94,0.94 0 0 0 38,66.47 L 36.5,65.1 a 15.72,15.72 0 0 0 4.25,-6 h 1.19 a 3.26,3.26 0 0 0 3.4,-3.1 v -6.08 a 3.08,3.08 0 0 0 -2.27,-2.86 z m -20.4,-4.79 c 8.44,0 15.3,5.56 15.3,12.38 0,7.39 -7.71,10.7 -15.3,10.7 -7.59,0 -15.3,-3.35 -15.3,-10.7 0,-6.82 6.86,-12.38 15.3,-12.38 z"
       id="path22" />
    <path
       class="cls-4"
       d="m 43.64,54 h -2.27 c 0,-0.35 0.06,-0.71 0.06,-1.12 A 23,23 0 0 0 41,48.39 h 1 a 1.59,1.59 0 0 1 1.7,1.53 z"
       id="path23" />
    <path
       class="cls-4"
       d="M 41.94,57.56 H 40.75 A 20.92,20.92 0 0 0 41.26,55 h 2.38 v 1 a 1.59,1.59 0 0 1 -1.7,1.56 z"
       id="path24" />
    <path
       class="cls-4"
       d="m 22.67,72.84 c -5.67,0 -10.71,-2 -13.89,-5.65 l 1.59,-1.43 A 21.12,21.12 0 0 0 22.67,69.28 21.12,21.12 0 0 0 35,65.76 l 1.58,1.43 c -3.2,3.62 -8.24,5.65 -13.91,5.65 z"
       id="path25" />
    <path
       class="cls-4"
       d="m 3.4,48.39 h 1 A 23.39,23.39 0 0 0 4,52.87 8.78,8.78 0 0 0 4,54 H 1.76 V 49.92 A 1.51,1.51 0 0 1 3.4,48.39 Z"
       id="path26" />
    <path
       class="cls-4"
       d="M 22.67,41.25 A 20.5,20.5 0 0 0 17,42.07 V 35.9 a 20.56,20.56 0 0 1 5.67,-0.76 20.56,20.56 0 0 1 5.67,0.76 v 6.22 a 18.79,18.79 0 0 0 -5.67,-0.87 z"
       id="path27" />
    <path
       class="cls-4"
       d="m 15.87,36.26 v 6.22 c -5.67,2.09 -9.64,6.77 -9.64,12.17 0,7 6.64,11.72 16.44,11.72 9.8,0 16.44,-4.68 16.44,-11.72 0,-5.4 -4,-10.08 -9.64,-12.17 v -6.22 c 6.63,2.4 10.77,8.51 10.77,16.66 0,9.17 -7,15.34 -17.57,15.34 C 12.1,68.26 5.1,62.09 5.1,52.87 5.1,44.77 9.24,38.66 15.87,36.26 Z"
       id="path28" />
    <path
       class="cls-4"
       d="m 1.7,55 h 2.38 a 17.71,17.71 0 0 0 0.51,2.55 H 3.4 A 1.59,1.59 0 0 1 1.7,56 Z"
       id="path29" />
    <ellipse
       class="cls-4"
       cx="42.220001"
       cy="36.41"
       rx="1.42"
       ry="1.27"
       id="ellipse29" />
    <polygon
       class="cls-2"
       points="26.83,75.19 34.64,72.24 39.36,68.16 39.77,65.89 38.54,64.57 31.37,70.42 25.92,73.97 "
       id="polygon29" />
    <path
       d="m 39.3,61.4 c 0,0 -0.7,1.15 -1.21,1.78 L 35.9,65.53 A 46.71,46.71 0 0 1 27,71.92 47,47 0 0 1 17,76.24 c 0.73,-0.64 1.5,-1.27 2.31,-1.9 L 17,74.14 c -1.11,0.91 -2.14,1.85 -3.08,2.79 -2.39,0.34 -4.1,0.06 -4.58,-0.78 C 8.86,75.31 9.49,73.71 11,71.84 L 9.52,71 C 7.16,74.05 7.3,75.9 7.9,77 a 3.31,3.31 0 0 0 2.1,1.48 11.92,11.92 0 0 0 5.45,-0.15 45.23,45.23 0 0 0 12.34,-5 45.28,45.28 0 0 0 10.6,-8 c 3.49,-3.79 3.41,-6 2.72,-7.22 A 12.17,12.17 0 0 1 39.3,61.4 Z"
       id="path30" />
    <path
       d="m 45.1,58 3.09,5.55 v 0 c 1,1.69 0,4.53 -2.76,7.8 A 47.28,47.28 0 0 1 32.68,81.47 47.43,47.43 0 0 1 17.45,87.22 c -4.2,0.65 -7.15,0.06 -8.11,-1.64 l -3.85,-6.9 c -1,-1.69 0,-4.53 2.77,-7.8 L 7,69.83 c -3.22,3.88 -4.26,7.31 -2.93,9.66 l 3.84,6.91 a 5.24,5.24 0 0 0 3.32,2.34 15.79,15.79 0 0 0 6.47,0.1 A 48.61,48.61 0 0 0 33.49,82.9 48.77,48.77 0 0 0 46.7,72.4 c 3.22,-3.88 4.26,-7.31 2.93,-9.66 l -3.24,-5.82 z"
       id="path31" />
    <path
       d="m 12.38,83.5 v 0.08 a 0.92,0.92 0 0 1 0,0.19 v 0 0.05 0 0.06 0.05 0.12 0 0 h -0.06 v 0.08 0 0.06 h -0.09 a 0.26,0.26 0 0 1 -0.14,0.1 v 0 a 0.2,0.2 0 0 1 -0.17,0.09 0.12,0.12 0 0 1 -0.1,0 v 0 H 11.77 11.71 11.2 11.12 10.93 l -0.06,-0.11 -0.1,-0.11 V 84.09 L 10.71,83.93 V 83.87 84 a 0.34,0.34 0 0 0 0,-0.09 0.17,0.17 0 0 1 0.05,-0.13 0.37,0.37 0 0 1 0.06,-0.15 v 0 -0.16 -0.06 -0.08 a 0.35,0.35 0 0 0 0,-0.14 l 0.1,-0.13 v 0 0 0 l 0.07,-0.08 v -0.1 h 0.11 a 0.22,0.22 0 0 0 0.08,-0.14 h 0.06 a 0.15,0.15 0 0 1 0.09,0 0.1,0.1 0 0 1 0.07,0 h 0.05 0.12 l 0.06,0.06 v 0 0 h 0.06 v 0 a 0.69,0.69 0 0 1 0.13,0.15 v 0 0 l 0.09,0.13 0.07,0.22 v 0 z m -0.3,0.1 v 0 a 0.11,0.11 0 0 1 0,-0.07 v 0 -0.08 -0.11 c 0,0 -0.06,-0.06 -0.06,-0.08 0,-0.02 0,0 0,-0.09 v 0 L 11.84,83 v 0 h -0.09 v 0 0 l -0.09,0.09 -0.06,0.13 h -0.09 v 0 0 0.12 h -0.05 a 0.53,0.53 0 0 0 0,0.12 l -0.07,0.06 v 0 a 0.12,0.12 0 0 1 0,0.09 v 0.09 0.11 0.12 0.16 0.06 0.07 0.06 h 0.06 0.17 v 0 h 0.09 v 0 h 0.06 0.05 a 0.42,0.42 0 0 1 0.15,-0.1 v 0 l 0.1,-0.06 v -0.07 h 0.07 v 0 0 -0.06 0 0 0 a 0.23,0.23 0 0 1 0,-0.07 0.16,0.16 0 0 1 0,-0.09 z"
       id="path32" />
    <path
       d="m 15.85,83.58 a 0.23,0.23 0 0 1 0,0.1 v 0.08 0.09 0 0 a 0.19,0.19 0 0 0 -0.09,0.12 0.53,0.53 0 0 1 -0.09,0.11 v 0 0 0 l -0.11,0.07 h -0.14 v 0 h -0.07 v 0 l -0.09,-0.06 c 0,0 -0.07,0 -0.09,-0.08 a 0.33,0.33 0 0 1 -0.09,-0.14 v 0 0 0 -0.08 -0.09 -0.1 l -0.05,-0.06 -0.11,-0.39 a 0.69,0.69 0 0 1 0,-0.13 v 0 0 0 l -0.15,0.19 v 0.1 0.07 0.08 0 0 0.15 0 0 0.05 a 0.14,0.14 0 0 1 -0.07,0.13 v 0 a 0.26,0.26 0 0 1 -0.08,0.14 v 0.06 l -0.12,0.13 a 0.2,0.2 0 0 1 0,0.08 c 0,0 0,0 0,0 0,0 0,0.1 -0.11,0.13 h -0.05 c -0.06,0 -0.11,0 -0.15,-0.09 l -0.08,-0.11 v -0.11 -0.06 0 -0.06 L 13.13,84 v -0.05 -0.06 -0.07 -0.11 0 -0.07 -0.24 -0.06 0 0 -0.44 l 0.06,-0.15 a 0.56,0.56 0 0 1 0.19,0 0.14,0.14 0 0 1 0.06,0.13 v 0 0 0.1 0.18 0.09 0.09 0.08 0.06 l 0.05,0.08 v 0.05 0 0 0.1 0.29 0 l 0.06,-0.09 a 0.11,0.11 0 0 1 0,-0.1 0.09,0.09 0 0 1 0,-0.07 v 0 l 0.06,-0.06 v 0.02 l 0.07,-0.06 v 0 0 l 0.15,-0.22 A 1.45,1.45 0 0 1 13.7,83.6 v 0 0 -0.07 -0.09 0 h 0.06 V 83.3 l 0.06,-0.07 v 0 c 0,0 0,-0.09 0.08,-0.1 a 0.16,0.16 0 0 1 0.11,-0.1 v 0 0 a 0.2,0.2 0 0 1 0.11,-0.09 v -0.06 h 0.11 l 0.06,0.06 v 0 0 0.09 h 0.08 v 0.11 l 0.06,0.1 v 0.13 l 0.05,0.17 v 0.17 l 0.05,0.09 v 0.12 c 0,0 0,0 0.05,0.07 h 0.08 v 0.09 0 0 0 0 c 0,0 0,0 0,0 0,0 0.06,0 0.09,-0.1 h 0.06 v 0 a 0.1,0.1 0 0 1 0,-0.07 v 0 0 0 a 0.15,0.15 0 0 0 0,-0.1 l 0.05,-0.06 v 0 -0.08 h 0.08 0.12 l 0.05,0.13 v 0 z"
       id="path33" />
    <path
       d="m 17.7,83.59 a 0.21,0.21 0 0 1 -0.05,0.15 0.25,0.25 0 0 1 0,0.13 v 0 0.1 h -0.08 l -0.07,0.07 v 0.09 h -0.05 -0.07 v 0 0 c 0,0 -0.07,0 -0.09,0.09 H 17.22 17 a 0.17,0.17 0 0 1 -0.1,0 h -0.07 v 0 A 0.26,0.26 0 0 1 16.6,84.13 v 0 H 16.54 V 84.06 H 16.48 V 84 l -0.09,-0.19 v -0.16 -0.28 -0.06 0 a 0.34,0.34 0 0 1 0,-0.09 v 0 -0.11 a 0.15,0.15 0 0 1 0,-0.14 v 0 a 0.17,0.17 0 0 0 0,-0.07 0.27,0.27 0 0 1 0,-0.08 0.25,0.25 0 0 1 0,-0.12 0.12,0.12 0 0 0 0.1,0 v 0 0 a 0.65,0.65 0 0 1 0.06,-0.21 v 0 a 0.59,0.59 0 0 1 0,-0.11 v 0 0 0 0 l 0.09,-0.07 a 0.13,0.13 0 0 1 0,-0.07 v 0 a 0.42,0.42 0 0 1 0.14,-0.06 c 0,0 0,0 0.07,0 v 0 0 h 0.12 0.08 v 0 a 0.3,0.3 0 0 1 0.14,0.21 v 0 0.15 0 0.13 l -0.07,0.11 v 0.07 a 2.27,2.27 0 0 1 -0.22,0.22 0.13,0.13 0 0 1 -0.11,0.08 v 0 l -0.07,0.07 h -0.07 l -0.09,0.06 h -0.09 v 0 a 0.54,0.54 0 0 0 0,0.11 v 0 0.14 a 0.7,0.7 0 0 1 0,0.14 v 0 a 0.34,0.34 0 0 1 0,0.09 c 0,0 0,0 0,0 v 0 a 0.07,0.07 0 0 0 0,0.06 0.17,0.17 0 0 0 0.06,0.06 v 0 h 0.14 L 17,84 h 0.08 v 0 0 -0.08 0 l 0.1,-0.05 a 0.15,0.15 0 0 1 0.05,-0.07 v 0 a 0.11,0.11 0 0 0 0.09,-0.11 0.19,0.19 0 0 1 0.14,-0.09 v 0 A 0.31,0.31 0 0 1 17.7,83.59 Z M 17,82.36 h -0.09 v 0.05 h -0.06 l -0.05,0.11 v 0 l -0.05,0.14 v 0 a 0.21,0.21 0 0 1 0,0.14 v 0 a 0.19,0.19 0 0 1 0.1,-0.05 v 0 0 h 0.06 v -0.06 h 0.08 v -0.07 0 -0.02 h 0.05 v 0 0 l 0.05,-0.09 A 0.13,0.13 0 0 0 17,82.36 Z"
       id="path34" />
    <path
       d="m 20.5,81.55 c 0,0 0,0.06 -0.06,0.09 -0.06,0.03 0,0 -0.05,0.06 a 0.45,0.45 0 0 0 -0.07,0.07 h -0.1 a 0.27,0.27 0 0 1 -0.16,0.11 v 0 0 h -0.11 l -0.06,0.08 h -0.1 c 0,0 0,0 -0.05,0 h -0.05 v 0.17 0.13 l 0.05,0.15 0.05,0.17 v 0.08 0.06 l 0.09,0.11 v 0 c 0,0 0,0 0.11,0 v 0.05 0 h 0.07 v 0 0 h 0.08 a 0.37,0.37 0 0 0 0.06,-0.08 0.17,0.17 0 0 1 0.06,-0.06 v 0 a 0.2,0.2 0 0 1 0.1,-0.15 0.2,0.2 0 0 1 0.17,0 v 0 a 0.19,0.19 0 0 1 0,0.22 0.21,0.21 0 0 1 -0.13,0.16 v 0.07 h -0.05 l -0.09,0.06 h -0.1 a 0.08,0.08 0 0 1 -0.07,0 h -0.06 -0.17 v 0 L 19.73,83 H 19.67 19.6 l -0.09,-0.2 v -0.06 h -0.05 v -0.06 l -0.05,-0.1 v 0 -0.06 0 -0.09 -0.06 0 -0.07 0 h -0.08 -0.09 v 0 c -0.08,0 -0.14,0 -0.17,-0.11 v 0 L 18.87,82 18.93,81.9 h 0.07 0.05 0.09 0.09 V 81.81 L 19.14,81.7 h 0.05 V 81.64 81.5 h -0.05 a 0.41,0.41 0 0 1 -0.05,-0.09 0.11,0.11 0 0 1 0,-0.08 v -0.07 0 l 0.14,-0.07 a 0.14,0.14 0 0 1 0.19,0.09 v 0 a 0.23,0.23 0 0 1 0.05,0.07 v 0.09 0 0 0.06 0.06 l 0.05,0.08 v 0.12 0 0.09 l 0.12,-0.06 h 0.24 l 0.18,-0.08 h 0.06 v 0 h 0.17 c 0.14,-0.25 0.19,-0.23 0.21,-0.16 z"
       id="path35" />
    <path
       d="m 22.53,81.47 v 0.08 c 0,0.08 0,0.14 0,0.19 v 0.2 0.06 0.12 0 0 0 0.08 0 0.05 l -0.07,0.06 a 0.31,0.31 0 0 1 -0.1,0.15 v 0 a 0.19,0.19 0 0 1 -0.12,0.14 0.24,0.24 0 0 1 -0.09,0.06 v 0 0 L 22,83 h -0.05 -0.06 -0.08 -0.18 l -0.1,-0.08 -0.13,-0.07 v -0.08 l -0.11,-0.12 v -0.07 l -0.05,-0.1 v -0.07 a 0.22,0.22 0 0 0 0,-0.08 0.17,0.17 0 0 1 0,-0.14 0.48,0.48 0 0 1 0,-0.16 v 0 0 V 82 81.93 a 0.1,0.1 0 0 0 0,-0.06 v -0.06 0 a 0.28,0.28 0 0 0 0,-0.13 v -0.16 c 0,0 0,0 0,0 v 0 -0.09 -0.11 l 0.1,-0.07 a 0.2,0.2 0 0 0 0,-0.16 h 0.05 a 0.15,0.15 0 0 1 0.07,0 h 0.13 l 0.09,-0.08 h 0.08 0.06 0.14 l 0.17,0.1 v 0 0 l 0.13,0.08 0.15,0.18 v 0 z m -0.24,0.19 v 0 a 0.1,0.1 0 0 1 -0.06,0 v 0 l -0.06,-0.07 v -0.08 0 a 0.12,0.12 0 0 1 -0.08,0 c 0,0 -0.05,0 -0.07,-0.07 v 0 l -0.08,-0.07 h -0.23 l -0.05,0.12 v 0.14 l -0.07,0.08 v 0 0 0.12 0 c 0,0 0,0.08 0,0.12 v 0.09 0 a 0.21,0.21 0 0 1 0,0.11 0.31,0.31 0 0 0 0,0.1 v 0.25 l 0.05,0.12 v 0.07 0.06 h 0.05 0.13 0.1 v 0 0 0 0 -0.06 0 0 a 0.4,0.4 0 0 1 0.11,-0.15 v 0 l 0.06,-0.09 V 82.36 L 22.15,82.3 V 82 82 81.94 81.87 a 0.27,0.27 0 0 1 0,-0.07 0.14,0.14 0 0 1 0,-0.09 z"
       id="path36" />
    <path
       d="m 25.56,79.49 v 0.16 l -0.14,0.08 -0.06,0.09 H 25.3 v 0.06 l -0.05,0.05 v 0 0 l -0.06,0.08 v 0.1 0 a 0.7,0.7 0 0 1 -0.05,0.13 v 0.12 0 a 0.74,0.74 0 0 0 0,0.12 h -0.05 v 0.06 0.06 0.07 0 0.07 0 L 25,81 v 0 0.06 0.09 h 0.05 v 0.1 a 0.15,0.15 0 0 1 0,0.06 v 0 0 h 0.1 v 0.12 0.06 L 25.07,81.6 H 24.9 v -0.1 0 -0.07 l -0.06,-0.09 v 0 0 a 0.1,0.1 0 0 1 -0.06,0 0.28,0.28 0 0 1 0,-0.09 0.4,0.4 0 0 0 -0.06,-0.13 v 0 0 -0.06 0 -0.11 0 0 -0.05 a 0.25,0.25 0 0 0 0,-0.07 c 0,0 0,-0.07 -0.06,-0.07 v 0 l -0.05,-0.07 h -0.06 v -0.08 0 l -0.06,-0.09 v 0 h -0.05 c 0,-0.06 0,-0.13 0.12,-0.22 h 0.11 l 0.05,0.07 h 0.07 v 0.12 l 0.11,0.17 v 0.06 0 a 0.06,0.06 0 0 1 0,0.06 l 0.05,0.08 v 0.1 0 0 0 -0.08 -0.07 -0.08 0 -0.06 -0.07 -0.08 a 0.35,0.35 0 0 1 0.07,-0.12 v 0 -0.4 0 0 0 0 0 0 0 0 0 -0.08 l 0.08,-0.07 h 0.06 v 0 c 0,0 0,0 0.05,0 0.05,0 0,0 0,0 h 0.06 a 0.23113849,0.23113849 0 0 1 0.29,-0.36 z"
       id="path37" />
    <path
       d="m 28.64,79.53 a 0.23,0.23 0 0 1 0,0.16 v 0 0 l -0.06,0.06 v 0 A 0.45,0.45 0 0 1 28.4,79.9 v 0 H 28.29 28.21 27.99 L 27.9,79.8 h -0.09 a 0.1,0.1 0 0 0 0,-0.06 l -0.07,-0.06 v -0.11 0 c 0,0 -0.05,-0.07 -0.09,-0.12 v -0.13 0.13 H 27.6 v 0.09 l -0.07,0.06 v 0.12 0.09 a 0.16,0.16 0 0 1 0,0.06 v 0 l -0.06,0.22 v 0 0.13 l -0.05,0.08 v 0.07 l -0.07,0.08 -0.1,0.12 h -0.1 a 0.12,0.12 0 0 1 -0.15,0 v 0 0 0 h -0.1 v 0 l -0.11,-0.09 v 0 0 0 0 a 0.36,0.36 0 0 1 0,-0.09 L 26.74,80.28 26.68,80.2 a 0.14,0.14 0 0 0 0,-0.06 v -0.05 0 L 26.59,79.96 26,79.53 a 0.8,0.8 0 0 0 -0.14,-0.18 0.18,0.18 0 0 1 0.09,-0.22 v 0 h 0.06 l 0.11,0.05 v 0.12 l 0.09,0.18 0.08,0.12 v 0.07 0 0.09 0 0 c 0,0 0,0 0,0 a 0.37,0.37 0 0 1 0.05,0.11 v 0 0.07 0 0 a 0.12,0.12 0 0 1 0.07,0 0.11,0.11 0 0 1 0,0.08 v 0 a 0.21,0.21 0 0 1 0.06,0.08 h 0.06 v -0.07 a 0.07,0.07 0 0 1 0,-0.08 v 0 h 0.06 v 0 L 27,80 v 0 a 0.64,0.64 0 0 1 0.06,-0.1 v 0 l 0.05,-0.1 a 0.16,0.16 0 0 1 0,-0.15 0.22,0.22 0 0 1 0,-0.09 v -0.09 0 0 0 -0.06 l 0.06,-0.08 v 0 0 0 0 a 0.17,0.17 0 0 1 0,-0.14 v -0.16 -0.09 0 0 0 0 a 0.62,0.62 0 0 0 0,-0.19 l 0.12,-0.06 h 0.13 0.07 l 0.05,0.2 v 0.12 0.18 0 0.07 0.05 l 0.05,0.07 v 0 l 0.08,0.12 0.11,0.18 v 0 l 0.05,0.11 h 0.09 0.07 v 0 h 0.08 0.1 0.05 l 0.08,-0.1 a 0.11,0.11 0 0 1 0.07,-0.06 c 0.18,-0.18 0.23,-0.17 0.27,-0.1 z"
       id="path38" />
    <path
       d="m 30,78.45 a 0.1,0.1 0 0 1 0,0.09 0.37,0.37 0 0 1 0,0.16 v 0 0.07 0 0.07 0 0 a 0.23,0.23 0 0 0 -0.07,0.15 v 0 a 0.37,0.37 0 0 1 -0.14,0.14 l -0.12,0.05 h -0.1 v 0 0 A 0.1,0.1 0 0 0 29.48,79.12 L 29.42,79.05 H 29.36 L 29.26,78.92 29,79 v -0.07 0 h -0.05 a 1.79,1.79 0 0 0 -0.1,-0.22 L 28.77,78.65 V 78.58 78.47 L 28.72,78.41 V 78.33 L 28.65,78.27 V 78 l -0.08,-0.14 v 0 l -0.1,-0.17 -0.09,-0.18 v 0 l -0.07,-0.12 -0.06,-0.11 v 0 L 27.91,77 c 0.09,-0.09 0.13,-0.13 0.11,-0.12 a 0.14,0.14 0 0 1 0.14,0 v 0 h 0.1 v 0.09 0 a 0.49,0.49 0 0 1 0,0.12 l 0.06,0.08 0.06,0.06 v 0.1 a 0.42,0.42 0 0 1 0.06,0.14 0.26,0.26 0 0 0 0,0.07 v 0 h 0.05 v 0 0 a 0.12,0.12 0 0 1 0,0.07 v 0 l 0.05,0.14 0.05,0.09 v 0.1 l 0.06,0.06 0.09,0.19 v 0 0.1 l 0.06,0.12 c 0,0 0,0 0,0 a 0.54,0.54 0 0 0 0.06,0.11 v 0 0.06 0 0 h 0.08 v 0 H 29 v 0 0 0 0 a 0.11,0.11 0 0 0 0,-0.08 v 0 a 0.16,0.16 0 0 1 0.05,-0.11 v -0.11 a 0.09,0.09 0 0 1 0,-0.12 0.1,0.1 0 0 0 0.06,-0.07 0.2,0.2 0 0 1 0.13,0 0.42047592,0.42047592 0 0 1 0.76,0.36 z"
       id="path39" />
    <path
       d="m 31.65,77.57 a 0.25,0.25 0 0 1 0,0.16 0.29,0.29 0 0 1 0,0.13 v 0 0.14 h -0.06 v 0.1 0.09 0 l -0.06,0.06 v 0 0 a 0.14,0.14 0 0 0 -0.05,0.13 h -0.09 v 0 a 0.19,0.19 0 0 1 -0.1,0 h -0.06 v 0 a 0.27,0.27 0 0 1 -0.25,0 h -0.07 -0.06 -0.06 v -0.06 l -0.16,-0.14 -0.08,-0.14 v -0.08 -0.08 -0.07 0 -0.06 0 -0.08 0 l -0.07,-0.09 a 0.16,0.16 0 0 1 0,-0.15 c 0,0 0,0 0,0 L 30,77.46 V 77.4 a 0.36,0.36 0 0 1 0,-0.11 0.11,0.11 0 0 0 0.11,0 v 0 0 A 0.58,0.58 0 0 1 30,77 v 0 a 0.53,0.53 0 0 1 0,-0.11 v 0 0 0 0 a 0.79,0.79 0 0 1 0.05,-0.1 0.13,0.13 0 0 1 0,-0.08 v 0 0 a 0.44,0.44 0 0 1 0.11,-0.12 h 0.06 0.29 a 0.3,0.3 0 0 1 0.21,0.15 v 0 l 0.09,0.13 v 0 0.13 0.12 0.07 a 1.46,1.46 0 0 1 -0.13,0.28 0.13,0.13 0 0 1 -0.07,0.12 v 0 0.09 h -0.06 l -0.06,0.09 h -0.1 a 0.88,0.88 0 0 0 0.05,0.1 v 0 0 0.08 l 0.08,0.12 v 0 0.08 0 a 0.09,0.09 0 0 0 0.07,0 0.09,0.09 0 0 0 0.07,0 v 0 h 0.1 v 0 l 0.13,-0.08 0.06,-0.06 v -0.05 0 0.04 0 l 0.07,-0.09 a 0.24,0.24 0 0 1 0,-0.08 v 0 a 0.11,0.11 0 0 0 0,-0.13 0.24,0.24 0 0 1 0.1,-0.14 v 0 a 0.34,0.34 0 0 1 0.53,0.01 z m -1.08,-0.89 h -0.05 v 0 c 0,0 0,0 0,0 v 0 0 0 0 0.13 0.06 0.14 0 a 0.24,0.24 0 0 1 0,0.14 v 0 a 0.18,0.18 0 0 1 0.07,-0.08 v 0 0 h 0.05 V 77 v 0 0 -0.06 0 0 0 -0.16 z"
       id="path40" />
    <path
       d="m 33.54,74.72 c 0,0 0,0.06 0,0.11 a 0.13,0.13 0 0 1 0,0.07 l -0.05,0.09 H 33.4 a 0.33,0.33 0 0 1 -0.12,0.15 v 0 0 l -0.1,0.07 v 0.09 h -0.09 c 0,0 0,0 0,0 v 0 l 0.08,0.15 0.08,0.1 0.09,0.14 0.1,0.14 0.06,0.06 v 0 l 0.13,0.08 c 0,0 0,0 0,0 0,0 0,0 0.11,0 v 0 h 0.14 v 0 h 0.07 a 0.22,0.22 0 0 0 0,-0.09 0.1,0.1 0 0 1 0,-0.08 v 0 a 0.22,0.22 0 0 1 0,-0.17 0.2,0.2 0 0 1 0.16,0 v 0 a 0.2,0.2 0 0 1 0,0.23 0.24,0.24 0 0 1 -0.07,0.2 v 0.07 h -0.05 l -0.07,0.08 a 0.3,0.3 0 0 1 -0.08,0.07 h -0.07 v 0 H 33.6 33.45 33.37 L 33.16,76.15 33,76.23 v 0 H 32.93 V 76.16 L 32.83,76 v 0 -0.06 0 -0.07 h -0.06 v 0 -0.06 0 l -0.06,0.07 H 32.6 c -0.07,0 -0.13,0 -0.19,0 v 0 h -0.09 v -0.11 h 0.1 v 0 h 0.08 0.08 L 32.52,75.69 32.4,75.62 V 75.56 L 32.35,75.51 32.18,75 H 32.11 A 0.22,0.22 0 0 1 32,74.9 0.16,0.16 0 0 1 32,74.82 V 74.76 74.7 l 0.11,-0.1 a 0.14,0.14 0 0 1 0.21,0 v 0 h 0.07 v 0.08 h 0.05 v 0 0 0.32 l 0.07,0.06 0.05,0.11 h 0.06 v 0.09 L 32.71,75.16 33,75 33.14,74.86 h 0.05 v 0 l 0.14,-0.09 c 0.11,-0.11 0.17,-0.1 0.21,-0.05 z"
       id="path41" />
    <path
       d="m 36.31,74.69 a 0.17,0.17 0 0 1 -0.05,0.27 0.14,0.14 0 0 1 -0.15,0 0.51,0.51 0 0 1 -0.21,-0.15 v 0 0 h -0.11 v -0.1 l -0.07,-0.07 v -0.06 0 -0.05 l -0.06,-0.06 v 0 L 35.57,74.35 35.27,74 35.16,73.89 V 73.8 l -0.1,-0.07 v 0 0.09 0.23 h -0.05 v 0.16 0 0.05 0.15 l 0.07,0.15 v 0.13 0.06 0.06 l 0.05,0.1 v 0.13 l 0.09,0.14 v 0 0 0.17 0.22 h -0.08 v 0 h -0.09 l -0.14,-0.1 -0.14,-0.2 -0.06,-0.06 v -0.08 l -0.13,-0.17 v 0 L 34.4,74.69 v 0 -0.08 0 l -0.08,-0.13 v 0 h -0.05 v 0 0 L 34,74.33 h -0.05 v -0.07 l -0.09,-0.11 -0.11,-0.08 v 0 l -0.1,-0.08 v -0.06 0 l -0.11,-0.11 h -0.06 l -0.13,-0.07 v -0.17 0 a 0.16,0.16 0 0 1 0.16,0 h 0.08 0.07 0.09 v 0.06 l 0.08,0.06 v 0 l 0.09,0.12 0.13,0.17 0.1,0.08 v 0.06 l 0.06,0.06 v 0.06 l 0.07,0.08 v 0.08 0 l 0.17,0.23 v 0 0 l 0.08,0.13 v 0.07 l 0.09,0.08 v 0 l 0.06,0.07 a 0.06,0.06 0 0 0 0,-0.07 v -0.12 -0.08 -0.08 -0.09 -0.1 -0.08 0 0 0 -0.06 0 0 -0.07 0 -0.08 0 0 0 -0.08 h 0.05 v 0 0 0 a 0.34,0.34 0 0 1 0.07,-0.16 v 0 a 0.85,0.85 0 0 1 0.09,-0.14 0.22,0.22 0 0 1 0.14,0 0.1,0.1 0 0 1 0.09,0 v 0 h 0.05 0.11 l 0.22,0.29 0.09,0.13 v 0 l 0.21,0.27 v 0.06 l 0.06,0.08 0.08,0.06 v 0.09 a 0.36,0.36 0 0 1 0.09,0.08 h 0.07 v 0 0 z"
       id="path42" />
    <path
       d="m 37.75,73.15 a 0.24,0.24 0 0 1 0,0.16 0.21,0.21 0 0 1 0,0.13 v 0 0.09 0.06 0.1 0.09 0 a 0.21,0.21 0 0 1 0,0.07 v 0 0 a 0.13,0.13 0 0 0 0,0.13 h -0.09 c 0,0 0,0 0,0 h -0.09 -0.06 v 0 a 0.25,0.25 0 0 1 -0.25,0 H 37.2 37.13 36.8 v 0 L 36.6,74 36.49,73.87 V 73.8 l -0.06,-0.08 v -0.07 0 -0.05 0 a 0.2,0.2 0 0 1 0,-0.08 v 0 l -0.08,-0.08 a 0.19,0.19 0 0 1 0,-0.15 c 0,0 0,0 0,0 L 36.29,73.24 36.23,73.18 A 0.28,0.28 0 0 1 36,73 a 0.11,0.11 0 0 0 0.11,0 v 0 a 0.15,0.15 0 0 1 0,-0.06 0.56,0.56 0 0 1 0,-0.21 v 0 a 0.81,0.81 0 0 1 -0.05,-0.1 v 0 0 0 0 a 0.49,0.49 0 0 1 0,-0.11 v -0.08 0 0 l 0.1,-0.13 h 0.06 v 0 h 0.26 v 0 a 0.28,0.28 0 0 1 0.23,0.12 v 0 l 0.1,0.11 v 0 0.13 0.12 0.07 a 1.63,1.63 0 0 1 -0.1,0.29 0.14,0.14 0 0 1 0,0.13 v 0 0.09 0 l -0.06,0.11 h -0.09 v 0.1 0 0 0.07 l 0.1,0.11 v 0 l 0.05,0.07 v 0 0 a 0.06,0.06 0 0 0 0.07,0 c 0,0 0,0 0.07,0 v 0 h 0.09 v 0 0 l 0.12,-0.09 0.06,-0.06 v -0.06 -0.1 0 l 0.06,-0.1 a 0.17,0.17 0 0 1 0,-0.07 v 0 a 0.12,0.12 0 0 0 0,-0.14 0.19,0.19 0 0 1 0.08,-0.15 v 0 a 0.38,0.38 0 0 1 0.49,0.09 z m -1.17,-0.77 v 0 0 0 0 0 0.2 0.15 0 a 0.22,0.22 0 0 1 0,0.14 v 0 a 0.18,0.18 0 0 1 0.07,-0.09 v -0.07 0 -0.07 0 h 0.05 v -0.07 0 0 0 0 0 -0.11 c 0,0 -0.1,-0.07 -0.12,-0.08 z"
       id="path43" />
    <path
       d="m 40.88,70.26 a 0.15,0.15 0 0 1 0,0.11 0.09,0.09 0 0 1 0,0.08 0.28,0.28 0 0 1 0,0.09 v 0 c 0,0 0,0 0,0.05 v 0 0 0.15 a 0.14,0.14 0 0 0 0,0.1 0.39,0.39 0 0 1 -0.08,0.1 0.24,0.24 0 0 1 -0.11,0.06 c 0,0 -0.06,0 -0.07,0 v 0 0 H 40.56 40.5 a 0.16,0.16 0 0 1 -0.11,0 0.71,0.71 0 0 1 -0.17,-0.09 L 40,71 v 0 l -0.11,-0.08 v 0 l -0.12,-0.09 -0.06,-0.09 v 0 0.11 0.16 c 0,0 0,0 0,0 v 0 0 0 c 0,0 0,0 0,0 a 0.32,0.32 0 0 0 0,0.08 0.18,0.18 0 0 1 0,0.06 v 0 0.05 a 0.24,0.24 0 0 0 0,0.16 1.28,1.28 0 0 1 0,0.22 v 0.09 c 0,0 0,0 0,0 v 0 a 0.17,0.17 0 0 1 0,0.14 v 0.09 0 0.1 a 0.17,0.17 0 0 1 -0.2,0 v 0 h -0.06 v 0 l -0.11,-0.07 v 0 H 39.29 L 39.2,71.81 v 0 0 0 0 0 -0.08 l -0.1,-0.08 v 0 l -0.08,-0.11 h -0.09 v -0.06 0 h -0.08 v 0.37 0 0.11 0.07 0 a 0.15,0.15 0 0 1 0,0.17 v 0 a 0.31,0.31 0 0 0 0,0.09 0.26,0.26 0 0 1 0,0.07 c 0,0 0,0 0,0 v 0.1 a 0.14,0.14 0 0 1 0,0.12 v 0 a 0.34,0.34 0 0 1 0,0.1 v 0 0.06 c 0,0 0,0 0,0.11 v 0 a 0.14,0.14 0 0 1 0,0.14 v 0.08 a 0.41,0.41 0 0 1 0,0.09 c -0.06,0.05 -0.14,0 -0.25,0 L 38.52,73.1 v 0 a 0.09,0.09 0 0 1 0,-0.06 l -0.07,-0.06 v 0 L 38.4,72.92 c 0,0 -0.06,-0.09 0,-0.11 l -0.09,-0.07 v -0.07 -0.09 0 0 a 0.19,0.19 0 0 1 0,-0.13 H 38.23 V 72.39 L 38.12,72.31 V 72.26 L 38.03,72.2 v -0.06 h -0.08 c 0,-0.13 0,-0.22 0,-0.26 a 0.18,0.18 0 0 1 0.11,0 v 0 a 0.14,0.14 0 0 1 0.14,0 c 0,0 0,0 0,0.08 v 0 h 0.08 v 0.05 0 L 38.44,72.15 38,72 v 0 h 0.07 v 0 a 0.13,0.13 0 0 1 0,0.08 0.2,0.2 0 0 1 0.05,0.09 l 0.1,0.1 v 0 0 0 -0.13 0 c 0,0 0,0 0,-0.1 v -0.09 a 0.28,0.28 0 0 1 0,-0.11 v -0.07 -0.1 -0.06 c 0,0 0,0 0,0 v 0 a 1.09,1.09 0 0 0 0,-0.13 v 0 0 0 a 0.17,0.17 0 0 1 0,-0.17 v 0 0 0 -0.07 -0.06 0 c 0,0 0,0 0,0 v -0.12 -0.07 l 0.13,-0.07 h 0.08 v 0 0 h 0.11 v 0 h 0.07 v 0.05 a 0.41,0.41 0 0 1 0.16,0.11 v 0 h 0.07 v 0.07 l 0.08,0.07 v 0 0.06 H 39 v 0 h 0.06 v 0 l 0.17,0.15 v 0 -0.21 -0.1 c 0,0 0,0 0,-0.1 v 0 a 0.15,0.15 0 0 1 0,-0.11 c 0,0 0,0 0,-0.08 v 0 a 0.22,0.22 0 0 1 0,-0.16 v -0.06 -0.14 a 0.15,0.15 0 0 0 0,-0.11 v -0.07 -0.06 0 -0.08 -0.12 c 0,0 0,0 0,0 v -0.06 -0.08 -0.07 0 h 0.06 0.08 0.09 v 0 0 0 0.1 0.1 a 0.09,0.09 0 0 1 0.07,0 v 0.06 0 0.06 0 0 0 0 c 0,0 0,0 0.06,0 v 0 0 l 0.06,0.07 v 0 l 0.16,0.1 v 0 h 0.07 0.07 0.06 v 0 0 0 0 a 0.19,0.19 0 0 0 0,-0.1 0.2,0.2 0 0 1 0,-0.13 0.19,0.19 0 0 1 0,-0.1 v -0.09 -0.06 a 0.18,0.18 0 0 1 0,-0.07 0.19,0.19 0 0 1 0.09,0 0.46324939,0.46324939 0 0 1 0.78,0.5 z"
       id="path44" />
    <path
       d="m 42.45,66.74 v 0.07 h 0.11 V 67 l 0.06,0.08 v 0 0 a 0.14,0.14 0 0 1 0,0.09 v 0 0 0 0 0 0 0 h 0.06 v 0 0.06 0 0.07 h 0.07 v 0 h 0.06 v 0.12 0 0 l 0.05,0.09 v 0 0 0 0 h 0.11 v 0.07 0 a 0.25,0.25 0 0 1 0.09,0 v 0.09 a 0.45,0.45 0 0 1 0,0.11 v 0.09 0 0 h -0.21 l -0.06,-0.05 a 0.71,0.71 0 0 1 -0.14,-0.1 v 0 L 43,68 42.89,67.84 42.79,67.78 v 0.14 l 0.06,0.12 v 0 0.12 0.15 0.06 0.13 0.06 0.17 L 43,69 v 0.07 0.08 a 0.19,0.19 0 0 1 -0.17,0.06 0.35,0.35 0 0 1 -0.36,0 v 0 0 0 h -0.06 v -0.06 l -0.07,-0.07 -0.09,-0.13 v 0 0 0 l -0.06,-0.1 v 0 0 0 0 a 0.1,0.1 0 0 1 0,-0.1 0.17,0.17 0 0 1 0,-0.1 h -0.05 v -0.1 A 0.22,0.22 0 0 1 42.06,68.4 h -0.07 v 0 0 c 0,0 0,0 0,0 v 0 a 0.4,0.4 0 0 1 0,-0.16 c 0,-0.08 0,-0.14 0,-0.19 v 0 -0.07 l 0.05,-0.16 0.25,-0.23 v 0 l 0.09,-0.06 C 42.38,67.53 42,67 42,67 v 0 h 0.11 0.07 l 0.08,-0.14 h 0.13 z m -0.11,0.47 v 0 0 h -0.17 l -0.07,0.05 h -0.05 v 0 0 0 l -0.08,0.09 v 0 0.1 0 0 a 0.71,0.71 0 0 0 0,0.16 l 0.06,0.1 v 0 H 42 V 68 68 a 0.49,0.49 0 0 0 0.1,0.16 v 0 l 0.06,0.06 v 0 0 0 0 0 l 0.06,0.07 v 0 0.09 0 0.06 h 0.09 v 0.08 l 0.07,0.05 v 0 -0.08 0 0 0 -0.34 0 -0.07 a 0.19,0.19 0 0 0 0,-0.08 v -0.07 0 h -0.06 v 0 c 0,0 0,0 0,-0.06 a 0.13,0.13 0 0 1 0,-0.06 l -0.08,-0.38 v -0.07 0 -0.06 0 0 z"
       id="path45" />
    <path
       d="m 44.73,66.15 a 0.1,0.1 0 0 1 0,0.08 0.63,0.63 0 0 1 0,0.16 v 0 0.07 0.11 0 0 a 0.22,0.22 0 0 0 0,0.16 c 0,0 0,0 0,0.06 v 0 a 0.29,0.29 0 0 1 -0.08,0.18 0.35,0.35 0 0 1 -0.1,0.09 H 44.46 44.4 a 0.14,0.14 0 0 0 -0.11,0 h -0.08 v 0 L 44.06,66.96 43.9,67 h -0.06 v 0 0 L 43.66,66.82 H 43.57 V 66.75 L 43.49,66.66 H 43.43 V 66.6 h -0.09 v -0.08 0 l -0.12,-0.1 v 0 L 42.86,66 42.72,65.87 v 0 l -0.11,-0.08 -0.09,-0.08 v 0 l -0.2,-0.2 c 0.06,-0.11 0.08,-0.16 0.07,-0.15 a 0.12,0.12 0 0 1 0.13,0 v 0 h 0.09 l 0.06,0.08 v 0 a 0.37,0.37 0 0 1 0.07,0.1 h 0.08 0.08 l 0.06,0.09 a 0.41,0.41 0 0 1 0.09,0.1 v 0.06 0 h 0.06 v 0 h 0.05 c 0,0 0,0 0,0.06 v 0 l 0.1,0.12 0.08,0.06 v 0.08 h 0.08 l 0.15,0.14 v 0 l 0.07,0.09 0.09,0.09 v 0 l 0.1,0.09 h 0.06 v 0 h 0.07 v 0 h 0.09 v 0 0 0 0 c 0,0 0,0 0,0 v 0 a 0.11,0.11 0 0 0 0,-0.08 v 0 a 0.25,0.25 0 0 1 0,-0.12 v -0.11 a 0.12,0.12 0 0 1 0,-0.12 c 0,0 0,-0.06 0,-0.08 0,-0.02 0.08,-0.06 0.11,-0.06 a 0.30203477,0.30203477 0 0 1 0.57,0.2 z"
       id="path46" />
    <path
       d="m 45.74,64.74 c 0,0 0,0 0,0.07 a 0.41,0.41 0 0 1 0,0.16 v 0.03 0.06 0.12 0 0 a 0.33,0.33 0 0 0 0,0.17 0.13,0.13 0 0 1 0,0.06 v 0 a 0.36,0.36 0 0 1 -0.08,0.18 0.3,0.3 0 0 1 -0.09,0.1 h -0.08 -0.07 a 0.09,0.09 0 0 0 -0.1,0 H 45.23 45.17 L 45.02,65.61 45,65.64 h -0.06 v 0 0 L 44.75,65.48 H 44.66 V 65.41 L 44.57,65.33 H 44.5 v -0.06 h -0.09 v -0.08 0 L 44.28,65.1 v 0 l -0.16,-0.11 -0.16,-0.13 v 0 l -0.12,-0.08 -0.1,-0.07 v 0 l -0.21,-0.18 c 0.05,-0.12 0.07,-0.17 0.06,-0.16 a 0.13,0.13 0 0 1 0.13,0 h 0.12 l 0.07,0.07 v 0 c 0,0 0.07,0.07 0.07,0.09 h 0.09 0.08 l 0.06,0.09 a 0.36,0.36 0 0 1 0.11,0.1 v 0 h 0.07 v 0 0 0.06 0 l 0.11,0.11 0.08,0.06 0.06,0.08 h 0.08 l 0.16,0.13 v 0 l 0.08,0.08 0.1,0.08 v 0 a 0.44,0.44 0 0 1 0.1,0.08 h 0.06 0.06 0.06 0.11 v 0 0 0 0 c 0,0 0,0 0,0 v 0 a 0.11,0.11 0 0 0 0,-0.08 v 0 a 0.24,0.24 0 0 1 0,-0.12 0.54,0.54 0 0 0 0,-0.11 0.12,0.12 0 0 1 0,-0.12 0.19,0.19 0 0 0 0,-0.09 c 0,0 0.07,-0.06 0.1,-0.06 a 0.22,0.22 0 0 1 0.19,-0.08 z"
       id="path47" />
  </g>
</svg>
