<svg xmlns="http://www.w3.org/2000/svg" viewBox="0 0 291.76 111.83"><defs><style>.cls-1{fill:#4f4f4f;}.cls-2{fill:#fff;}</style></defs><g id="Layer_2" data-name="Layer 2"><g id="Layer_1-2" data-name="Layer 1"><path d="M73.57,46.81H67.75v-5.3a1.4,1.4,0,0,0-1.4-1.4h0a1.4,1.4,0,0,0-1.4,1.4v5.3H63.2a1.36,1.36,0,0,0-1.36,1.36h0a1.36,1.36,0,0,0,1.36,1.37h1.7V62.22a6.51,6.51,0,0,0,1.55,4.61,5.8,5.8,0,0,0,4.45,1.69,7.88,7.88,0,0,0,3.39-.73,1,1,0,0,0,.55-.89v-.85a1,1,0,0,0-1.45-.89,5.53,5.53,0,0,1-2.49.59,2.93,2.93,0,0,1-2.36-.85,4.19,4.19,0,0,1-.79-2.76V49.55h5.82a1.36,1.36,0,0,0,1.35-1.35v0A1.35,1.35,0,0,0,73.57,46.81Z"/><path d="M88.11,46.35a8.21,8.21,0,0,0-3.33.66,9.05,9.05,0,0,0-2.6,1.72,9.91,9.91,0,0,0-1,1.12V48.22a1.41,1.41,0,0,0-1.41-1.41h0a1.41,1.41,0,0,0-1.41,1.41V66.77a1.41,1.41,0,0,0,1.41,1.4h0a1.41,1.41,0,0,0,1.41-1.4V57.14a8.46,8.46,0,0,1,.49-2.66A9.7,9.7,0,0,1,83,51.84a7.9,7.9,0,0,1,2.17-2,5,5,0,0,1,2.73-.74h.19a1,1,0,0,0,1-1v-.77A1,1,0,0,0,88.11,46.35Z"/><path d="M93.94,46.81h0a1.43,1.43,0,0,0-1.42,1.42V66.79a1.39,1.39,0,0,0,1.39,1.38H94a1.39,1.39,0,0,0,1.39-1.38V48.23A1.43,1.43,0,0,0,93.94,46.81Z"/><path d="M116.13,49.12a8.07,8.07,0,0,0-2.89-2.06,10,10,0,0,0-3.87-.71,8.8,8.8,0,0,0-6,2.25,8.15,8.15,0,0,0-.72.72V48.21a1.41,1.41,0,0,0-1.41-1.4h0a1.41,1.41,0,0,0-1.41,1.4V66.78a1.39,1.39,0,0,0,1.39,1.39h.07a1.4,1.4,0,0,0,1.4-1.39V56.45a7.81,7.81,0,0,1,.52-2.89,7.61,7.61,0,0,1,1.45-2.35,6.75,6.75,0,0,1,2.1-1.54,6,6,0,0,1,2.59-.55,6.93,6.93,0,0,1,2.8.52,5.52,5.52,0,0,1,2,1.4,6,6,0,0,1,1.18,2.21,10.34,10.34,0,0,1,.42,3V66.8A1.37,1.37,0,0,0,117,68.17h.1a1.37,1.37,0,0,0,1.37-1.37V56.21a12.6,12.6,0,0,0-.59-4A9,9,0,0,0,116.13,49.12Z"/><path d="M143.26,53.2A10.63,10.63,0,0,0,141,49.65a11,11,0,0,0-3.51-2.41,11.27,11.27,0,0,0-4.51-.89,11.11,11.11,0,0,0-4.55.92,10.74,10.74,0,0,0-5.73,6,11.91,11.91,0,0,0,0,8.53A10.45,10.45,0,0,0,125,65.33a10.89,10.89,0,0,0,3.49,2.41,11,11,0,0,0,4.52.9,11.2,11.2,0,0,0,4.55-.9A10.6,10.6,0,0,0,141,65.3a10.82,10.82,0,0,0,2.24-3.55,11.81,11.81,0,0,0,.78-4.33A11.61,11.61,0,0,0,143.26,53.2ZM133,65.86a8.28,8.28,0,0,1-3.33-.65,8,8,0,0,1-4.32-4.45,8.86,8.86,0,0,1-.6-3.31,9,9,0,0,1,.59-3.24A8,8,0,0,1,127,51.56a7.9,7.9,0,0,1,2.58-1.79,8.33,8.33,0,0,1,3.34-.65,8.44,8.44,0,0,1,3.32.65,8.16,8.16,0,0,1,2.62,1.8,8,8,0,0,1,1.7,2.65,8.7,8.7,0,0,1,.61,3.31,9,9,0,0,1-.59,3.24,7.91,7.91,0,0,1-1.67,2.65,7.81,7.81,0,0,1-2.58,1.79A8.33,8.33,0,0,1,133,65.86Z"/><circle cx="93.96" cy="42.27" r="1.62"/><path class="cls-1" d="M165.16,57h-6.94a.61.61,0,0,0-.61.61v.64a.61.61,0,0,0,.61.61h6.29a.64.64,0,0,1,.64.64v5a11,11,0,0,1-1.15.82,10.71,10.71,0,0,1-1.62.85,10,10,0,0,1-1.85.59,9.8,9.8,0,0,1-5.8-.52,8.42,8.42,0,0,1-2.76-2,9.08,9.08,0,0,1-1.74-3,10.74,10.74,0,0,1-.61-3.59,9.84,9.84,0,0,1,.64-3.55,9.42,9.42,0,0,1,1.78-3A8.77,8.77,0,0,1,154.82,49a8.1,8.1,0,0,1,3.63-.79,8.69,8.69,0,0,1,3.5.63,12.54,12.54,0,0,1,2.84,1.78.61.61,0,0,0,.39.13.6.6,0,0,0,.47-.22l.41-.5a.61.61,0,0,0-.08-.85A12.4,12.4,0,0,0,164.37,48a9.91,9.91,0,0,0-1.72-.87,10.43,10.43,0,0,0-1.92-.55,13.07,13.07,0,0,0-2.25-.18,10.35,10.35,0,0,0-4.47.95,10.63,10.63,0,0,0-5.51,6.07,12.05,12.05,0,0,0-.74,4.17,12.9,12.9,0,0,0,.71,4.31,10.45,10.45,0,0,0,2.09,3.55,10.2,10.2,0,0,0,3.37,2.42,10.86,10.86,0,0,0,4.52.91,11.23,11.23,0,0,0,4.74-1,14.9,14.9,0,0,0,3.15-1.93,1.86,1.86,0,0,0,.67-1.46V58.82A1.85,1.85,0,0,0,165.16,57Z"/><path class="cls-1" d="M181,47a.62.62,0,0,0-.55-.35h-.55a.61.61,0,0,0-.55.35l-9.85,20.6a.61.61,0,0,0,.55.88h.67a.62.62,0,0,0,.55-.35l2.58-5.43a.64.64,0,0,1,.58-.36h11.46a.63.63,0,0,1,.57.36l2.59,5.43a.61.61,0,0,0,.55.35h.7a.62.62,0,0,0,.55-.88Zm4,12.63a.61.61,0,0,1,0,.61.63.63,0,0,1-.54.3H176a.62.62,0,0,1-.54-.3.63.63,0,0,1,0-.61l4.25-8.91a.64.64,0,0,1,.58-.36.63.63,0,0,1,.57.36Zm-4.68-9.84a1.18,1.18,0,0,1,.73.39A1.18,1.18,0,0,0,180.34,49.76Zm-.14,0a1.25,1.25,0,0,0-.65.18A1.25,1.25,0,0,1,180.2,49.72Zm-5.38,9.61L177,54.88l-2.13,4.45a1.29,1.29,0,0,0-.12.63A1.29,1.29,0,0,1,174.82,59.33Z"/><path class="cls-1" d="M205.21,46.77H189.78a.61.61,0,0,0-.61.61V48a.61.61,0,0,0,.61.61h6.14a.64.64,0,0,1,.64.64V67.84a.61.61,0,0,0,.61.61h.64a.61.61,0,0,0,.61-.61V49.21a.64.64,0,0,1,.64-.64h6.15a.61.61,0,0,0,.61-.61v-.58A.61.61,0,0,0,205.21,46.77Zm-8.8,1.29a1.19,1.19,0,0,1,.66.66A1.19,1.19,0,0,0,196.41,48.06Zm1.4,1.15A1.25,1.25,0,0,1,199.06,48,1.25,1.25,0,0,0,197.81,49.21Z"/><path class="cls-1" d="M223.47,66.64H210.92a.63.63,0,0,1-.63-.63V59.09a.63.63,0,0,1,.63-.64h11.15a.61.61,0,0,0,.61-.61v-.58a.61.61,0,0,0-.61-.61H210.92a.64.64,0,0,1-.63-.64v-6.8a.64.64,0,0,1,.63-.64h12.41a.61.61,0,0,0,.61-.61v-.58a.61.61,0,0,0-.61-.61H210.28a1.85,1.85,0,0,0-1.85,1.85v18a1.86,1.86,0,0,0,1.85,1.86h13.19a.61.61,0,0,0,.61-.61v-.59A.61.61,0,0,0,223.47,66.64Zm-12.55.61A1.25,1.25,0,0,1,209.68,66,1.25,1.25,0,0,0,210.92,67.25Zm-1.24-8.16a1.25,1.25,0,0,1,1.24-1.25A1.25,1.25,0,0,0,209.68,59.09Zm1.24-1.83A1.25,1.25,0,0,1,209.68,56,1.25,1.25,0,0,0,210.92,57.26Zm-1.24-8A1.25,1.25,0,0,1,210.92,48,1.25,1.25,0,0,0,209.68,49.21Z"/><path class="cls-1" d="M253.76,46.77h-.65a.61.61,0,0,0-.58.42L247.3,63.13a.61.61,0,0,1-.6.44.62.62,0,0,1-.61-.44l-5.08-16a.61.61,0,0,0-.58-.42h-.5a.6.6,0,0,0-.58.43l-5.06,16a.62.62,0,0,1-.61.44.61.61,0,0,1-.6-.44l-5.23-15.91a.6.6,0,0,0-.58-.42h-.67a.61.61,0,0,0-.58.8l6.81,20.6a.62.62,0,0,0,.58.42H234a.61.61,0,0,0,.58-.42l5-15.75a.64.64,0,0,1,1.21,0l5,15.75a.6.6,0,0,0,.58.42h.55a.6.6,0,0,0,.58-.42l6.79-20.53a.58.58,0,0,0,.06-.26A.61.61,0,0,0,253.76,46.77ZM247.41,64a1.68,1.68,0,0,1-.24.07A1.68,1.68,0,0,0,247.41,64Zm-.71.21a1.17,1.17,0,0,1-.52-.16A1.17,1.17,0,0,0,246.7,64.18Zm-1.19-.87A1.2,1.2,0,0,0,246,64a1.2,1.2,0,0,1-.48-.65l-5.08-16Zm-11.82.84a1.4,1.4,0,0,0,.47-.14A1.4,1.4,0,0,1,233.69,64.15Zm6.47-12.78a1.47,1.47,0,0,0-.44.13A1.39,1.39,0,0,1,240.16,51.37Zm-5.37,12a1.3,1.3,0,0,1-.39.54A1.3,1.3,0,0,0,234.79,63.39Zm-1.54.63c-.09,0-.19,0-.27-.08C233.06,64,233.16,64,233.25,64Zm.72,4,5-15.75a1.27,1.27,0,0,1,.47-.65,1.27,1.27,0,0,0-.47.65Zm6.6-16.49c.1,0,.22,0,.31.09C240.79,51.52,240.67,51.53,240.57,51.49Zm.78.74a1.2,1.2,0,0,0-.37-.51,1.2,1.2,0,0,1,.37.51l5,15.75Z"/><path class="cls-1" d="M264.64,47a.62.62,0,0,0-.55-.35h-.55A.61.61,0,0,0,263,47l-9.85,20.6a.61.61,0,0,0,.55.88h.67a.62.62,0,0,0,.55-.35l2.58-5.43a.64.64,0,0,1,.58-.36h11.46a.63.63,0,0,1,.57.36l2.59,5.43a.61.61,0,0,0,.55.35h.7a.62.62,0,0,0,.55-.88Zm-6.22,12.36,4.25-8.9a1.38,1.38,0,0,1,.48-.53,1.38,1.38,0,0,0-.48.53l-4.25,8.9a1.41,1.41,0,0,0-.12.63A1.41,1.41,0,0,1,258.42,59.33Zm5.38-9a.63.63,0,0,1,.57.36l4.25,8.91a.61.61,0,0,1,0,.61.63.63,0,0,1-.54.3h-8.5a.62.62,0,0,1-.54-.3.63.63,0,0,1,0-.61l4.25-8.91A.64.64,0,0,1,263.8,50.33Zm5.3,10.2a1.2,1.2,0,0,1-1.05.58A1.2,1.2,0,0,0,269.1,60.53Zm-5.3-10.81a1.24,1.24,0,0,1,.87.43A1.24,1.24,0,0,0,263.8,49.72Zm-6.86,12.69-2.58,5.43,2.58-5.43a1.3,1.3,0,0,1,.46-.52A1.3,1.3,0,0,0,256.94,62.41Zm13.71,0a1.22,1.22,0,0,0-1.12-.71h0a1.22,1.22,0,0,1,1.12.71l2.59,5.43Z"/><path class="cls-1" d="M291.16,46.77h-.78a.6.6,0,0,0-.49.25L282.74,57a.63.63,0,0,1-.51.27.65.65,0,0,1-.52-.26L274.48,47a.6.6,0,0,0-.49-.25h-.76a.6.6,0,0,0-.54.33.59.59,0,0,0,.05.64l8.41,11.56a.64.64,0,0,1,.12.38v8.16a.62.62,0,0,0,.61.61h.64a.61.61,0,0,0,.61-.61V59.68a.64.64,0,0,1,.12-.38l8.36-11.52a.64.64,0,0,0,.15-.4A.6.6,0,0,0,291.16,46.77Zm-8.93,11.07a1.19,1.19,0,0,0,.36-.09A1.19,1.19,0,0,1,282.23,57.84Zm1-.52a1.32,1.32,0,0,1-.46.39A1.32,1.32,0,0,0,283.24,57.32Zm-1.37.43a1.77,1.77,0,0,1-.2,0A1.77,1.77,0,0,0,281.87,57.75Zm-.23,1.19-8.41-11.56,8.41,11.56a1.23,1.23,0,0,1,.24.74A1.23,1.23,0,0,0,281.64,58.94Zm1.12,0a1.25,1.25,0,0,0-.24.73,1.25,1.25,0,0,1,.24-.73l8.39-11.57Z"/><path class="cls-2" d="M23.59,66.06c1.09-.73-1.76-.45-2-.94a19.17,19.17,0,0,1-3.38-.6c-2-.53-5.25-4.14-5.77-7.24S10.85,48.6,13,45.1a20.49,20.49,0,0,1,5.19-5.55s-4.22-10-4.58-17.62S13.87.84,18.81.6,23,13,22.19,21.21A105.83,105.83,0,0,0,22,37.62a23.14,23.14,0,0,1,6.51-1.08,24.77,24.77,0,0,1,5.79.54S35.82,25.44,41,18.21,51.62,3.48,55.24,5.6s-1,9.68-4.1,13.61-8.57,9.85-10.38,13a54.46,54.46,0,0,0-3.13,6.51,17.65,17.65,0,0,1,7.56,7.48c2.45,5.06,1.09,11-.23,13.64s-3.19,5-5,5c-1.57.07-8.18,1.72-8.18,1.72Z"/><path d="M31.8,67.19l-10-.66.76-.5a3,3,0,0,1-1.24-.33,21.27,21.27,0,0,1-3.27-.61c-2.24-.59-5.65-4.43-6.2-7.72l-.08-.44c-.54-3.22-1.45-8.61.74-12.14a21.11,21.11,0,0,1,5-5.44c-.82-2-4.13-10.59-4.45-17.39C12.93,19.75,12.2.33,18.78,0a3,3,0,0,1,2.43,1c2.21,2.34,2.73,9,1.57,20.27a106.2,106.2,0,0,0-.29,15.57,23.78,23.78,0,0,1,6-.89,28.73,28.73,0,0,1,5.31.42c.41-2.55,2.18-12.12,6.76-18.51,5.35-7.46,10.89-15.18,15-12.77a3.15,3.15,0,0,1,1.55,2.24c.79,4.23-4.84,11.44-5.48,12.25-1,1.3-2.3,2.79-3.63,4.37a76.14,76.14,0,0,0-6.69,8.54,54,54,0,0,0-2.9,5.94,18.06,18.06,0,0,1,7.34,7.5c2.66,5.51,1,11.67-.23,14.16-.79,1.58-2.92,5.27-5.55,5.38-1.23.06-6.23,1.25-8,1.7Zm-7.42-1.67,7.31.48c.83-.21,6.68-1.64,8.2-1.71,1.37-.06,3.11-1.87,4.54-4.73,1.34-2.68,2.51-8.39.23-13.11a17.18,17.18,0,0,0-7.29-7.2L36.88,39l.2-.52a54.6,54.6,0,0,1,3.17-6.59,77.82,77.82,0,0,1,6.81-8.72c1.33-1.57,2.59-3.05,3.61-4.33,3-3.73,5.74-8.67,5.25-11.3a2,2,0,0,0-1-1.44c-3.21-1.88-8.89,6.07-13.45,12.44-5,7-6.64,18.5-6.65,18.61l-.09.66-.65-.16a24.34,24.34,0,0,0-5.63-.53,22.82,22.82,0,0,0-6.33,1l-.73.25-.05-.76a107.61,107.61,0,0,1,.24-16.52c1.11-10.79.69-17.29-1.25-19.34a1.9,1.9,0,0,0-1.51-.62c-3.67.18-5.11,10.55-4.62,20.71.35,7.4,4.49,17.33,4.53,17.43l.19.44-.4.27a19.91,19.91,0,0,0-5,5.37c-2,3.15-1.1,8.26-.58,11.32l.07.45c.5,3,3.68,6.33,5.34,6.77a18.3,18.3,0,0,0,3.26.58l.34,0,.1.18a5.27,5.27,0,0,0,.8.14C23.6,65,24.2,65,24.38,65.52Z"/><path d="M19.33,39l1.13-.88s-.16-10.29,0-16.57.48-14.07-1.61-14-3.54,6.11-2.73,14.64A103.38,103.38,0,0,0,19.33,39Z"/><path d="M35.17,37.18s3.94-10.29,7.48-16.08,8-9.61,9.44-8.72-2.71,5.75-6.68,11a134.73,134.73,0,0,0-8.79,14.64Z"/><path d="M33.15,58.54a.23.23,0,0,0-.3.08s-.68,1.19-1.67,1.26a2.47,2.47,0,0,1-1.77-.83V57.29c.63-.34,1.66-1.41,1.66-1.77a1.65,1.65,0,0,0-1.76-1.29c-1.17,0-2,.76-2,1.41s1.29,1.45,1.66,1.7v1.72a2.13,2.13,0,0,1-1.54.82c-.94,0-1.65-1.28-1.66-1.29a.22.22,0,0,0-.39.21c0,.06.84,1.52,2.05,1.52a2.5,2.5,0,0,0,1.78-.86,2.81,2.81,0,0,0,1.87.86h.14a3,3,0,0,0,2-1.48A.22.22,0,0,0,33.15,58.54Z"/><path d="M20.47,51.27a1.8,1.8,0,1,0,1.79,1.79A1.79,1.79,0,0,0,20.47,51.27ZM21,52.93a.47.47,0,0,1-.48-.48A.48.48,0,0,1,21,52a.49.49,0,0,1,.49.49A.48.48,0,0,1,21,52.93Z"/><path d="M38.14,51.27a1.8,1.8,0,1,0,1.79,1.79A1.79,1.79,0,0,0,38.14,51.27Zm.51,1.66a.47.47,0,0,1-.48-.48.48.48,0,0,1,.48-.49.49.49,0,0,1,.49.49A.48.48,0,0,1,38.65,52.93Z"/><path d="M49.82,47.06v-8a2.89,2.89,0,0,0,2.27-2.7,3.13,3.13,0,0,0-6.23,0,2.89,2.89,0,0,0,2.26,2.7v7.75H47.9c-2.33-8.2-9.35-13.3-18.48-13.3s-16.15,5-18.47,13.3h-.8a3.25,3.25,0,0,0-3.4,3.06V56a3.26,3.26,0,0,0,3.4,3.06h1.08a15.46,15.46,0,0,0,4.25,6L14,66.47a.94.94,0,0,0-.11,1.33C17.29,72,23,74.42,29.37,74.42S41.44,72,44.89,67.8a.94.94,0,0,0-.11-1.33L43.25,65.1a15.72,15.72,0,0,0,4.25-6h1.19A3.26,3.26,0,0,0,52.09,56V49.92A3.08,3.08,0,0,0,49.82,47.06Zm-20.4-4.79c8.45,0,15.3,5.56,15.3,12.38,0,7.39-7.7,10.7-15.3,10.7S14.12,62,14.12,54.65C14.12,47.83,21,42.27,29.42,42.27Z"/><path class="cls-2" d="M50.39,54H48.12c0-.35.06-.71.06-1.12a23,23,0,0,0-.45-4.48h1a1.59,1.59,0,0,1,1.7,1.53Z"/><path class="cls-2" d="M48.69,57.56H47.5A17.71,17.71,0,0,0,48,55h2.38v1A1.59,1.59,0,0,1,48.69,57.56Z"/><path class="cls-2" d="M29.42,72.84c-5.67,0-10.71-2-13.88-5.65l1.58-1.43a21.12,21.12,0,0,0,12.3,3.52,21.1,21.1,0,0,0,12.3-3.52l1.59,1.43C40.13,70.81,35.09,72.84,29.42,72.84Z"/><path class="cls-2" d="M10.15,48.39h1a23.39,23.39,0,0,0-.45,4.48A7.33,7.33,0,0,0,10.78,54H8.51V49.92A1.51,1.51,0,0,1,10.15,48.39Z"/><path class="cls-2" d="M29.42,41.25a20.5,20.5,0,0,0-5.67.82V35.9a21.53,21.53,0,0,1,11.34,0v6.22A18.75,18.75,0,0,0,29.42,41.25Z"/><path class="cls-2" d="M22.62,36.26v6.22C17,44.57,13,49.25,13,54.65c0,7,6.63,11.72,16.43,11.72s16.44-4.68,16.44-11.72c0-5.4-4-10.08-9.64-12.17V36.26C42.85,38.66,47,44.77,47,52.92c0,9.17-7,15.34-17.57,15.34S11.85,62.09,11.85,52.87C11.85,44.77,16,38.66,22.62,36.26Z"/><path class="cls-2" d="M8.45,55h2.38a20.92,20.92,0,0,0,.51,2.55H10.15A1.59,1.59,0,0,1,8.45,56Z"/><ellipse class="cls-2" cx="48.97" cy="36.41" rx="1.42" ry="1.27"/><path d="M12.33,86.52a4.22,4.22,0,0,0,4.18-3.68h2a1.71,1.71,0,0,0,1.23-.44,2.17,2.17,0,0,0,.55-1.63V71.29a.75.75,0,0,0-1.5,0v9.49a1.13,1.13,0,0,1-.09.55,1.05,1.05,0,0,1-.32,0H16.46a4.23,4.23,0,1,0-4.13,5.18Zm0-7A2.74,2.74,0,1,1,9.6,82.28,2.74,2.74,0,0,1,12.33,79.55Z"/><path d="M30.12,103.45v-29h-1.5v29a4.2,4.2,0,1,0,1.5,0Zm-.86,6.88A2.74,2.74,0,1,1,32,107.59,2.74,2.74,0,0,1,29.26,110.33Z"/><path d="M46.43,92.38v-3a2.16,2.16,0,0,0-.56-1.63,1.9,1.9,0,0,0-1.51-.43l-8.4,0h-.15a1.47,1.47,0,0,1-.32,0,1,1,0,0,1-.1-.56V73.24a.75.75,0,0,0-1.5,0V86.72a2.15,2.15,0,0,0,.56,1.64,1.9,1.9,0,0,0,1.51.43h5l3.37,0h.15a1.05,1.05,0,0,1,.32,0,1,1,0,0,1,.1.55v3a4.25,4.25,0,1,0,1.5,0Zm-.77,6.89a2.74,2.74,0,1,1,2.74-2.73A2.74,2.74,0,0,1,45.66,99.27Z"/><path d="M52.68,75.81a4.23,4.23,0,0,0-4.17,3.53H40.85a1.07,1.07,0,0,1-.32,0,1,1,0,0,1-.1-.56V71.28a.75.75,0,0,0-1.5,0v7.49a2.12,2.12,0,0,0,.56,1.63,1.71,1.71,0,0,0,1.27.44h7.76a4.23,4.23,0,1,0,4.16-5Zm0,7A2.74,2.74,0,1,1,55.41,80,2.74,2.74,0,0,1,52.68,82.78Z"/><path d="M25.17,73.92a.75.75,0,0,0-1.5,0V91.4a1,1,0,0,1-.1.56,1.09,1.09,0,0,1-.32,0H8.36a4.26,4.26,0,1,0,.06,1.5h15A1.7,1.7,0,0,0,24.61,93a2.15,2.15,0,0,0,.56-1.64ZM4.24,95.65A2.74,2.74,0,1,1,7,92.91,2.74,2.74,0,0,1,4.24,95.65Z"/></g></g></svg>