<svg xmlns="http://www.w3.org/2000/svg" viewBox="0 0 182.77 111.83"><defs><style>.cls-1{fill:#4f4f4f;}.cls-2{fill:#fff;}</style></defs><g id="Layer_2" data-name="Layer 2"><g id="Layer_1-2" data-name="Layer 1"><path d="M74,46.42H68.13v-5.3a1.39,1.39,0,0,0-1.39-1.4h-.06a1.4,1.4,0,0,0-1.4,1.4v5.3h-1.7a1.36,1.36,0,0,0-1.36,1.36h0a1.36,1.36,0,0,0,1.36,1.36h1.7V61.82a6.51,6.51,0,0,0,1.55,4.61,5.77,5.77,0,0,0,4.45,1.7,8.11,8.11,0,0,0,3.4-.73,1,1,0,0,0,.54-.89v-.85a1,1,0,0,0-1.45-.9,5.53,5.53,0,0,1-2.49.59,2.9,2.9,0,0,1-2.36-.85,4.16,4.16,0,0,1-.79-2.75V49.15H74a1.34,1.34,0,0,0,1.35-1.34v-.05A1.34,1.34,0,0,0,74,46.42Z"/><path d="M88.5,46a8.15,8.15,0,0,0-3.33.67,9.29,9.29,0,0,0-2.61,1.71,11,11,0,0,0-1,1.13V47.83a1.41,1.41,0,0,0-1.41-1.41h0a1.41,1.41,0,0,0-1.41,1.41V66.37a1.41,1.41,0,0,0,1.41,1.41h0a1.41,1.41,0,0,0,1.4-1.41V56.75A8.41,8.41,0,0,1,82,54.09a9.9,9.9,0,0,1,1.4-2.65,8.16,8.16,0,0,1,2.17-2,5,5,0,0,1,2.73-.74h.19a1,1,0,0,0,1-1V47A1,1,0,0,0,88.5,46Z"/><path d="M94.32,46.42h0a1.41,1.41,0,0,0-1.42,1.42V66.39a1.39,1.39,0,0,0,1.39,1.39h.07a1.39,1.39,0,0,0,1.39-1.39V47.84A1.42,1.42,0,0,0,94.32,46.42Z"/><path d="M116.51,48.73a7.84,7.84,0,0,0-2.89-2.06,9.78,9.78,0,0,0-3.87-.72,9,9,0,0,0-3.46.64,9.32,9.32,0,0,0-2.58,1.61c-.25.24-.5.48-.72.73V47.82a1.4,1.4,0,0,0-1.41-1.4h0a1.39,1.39,0,0,0-1.4,1.4V66.39a1.39,1.39,0,0,0,1.39,1.39h.07A1.39,1.39,0,0,0,103,66.39V56.05a8,8,0,0,1,.52-2.88A7.8,7.8,0,0,1,105,50.82a6.55,6.55,0,0,1,2.11-1.55,6.19,6.19,0,0,1,2.59-.54,7.14,7.14,0,0,1,2.8.51,5.38,5.38,0,0,1,2,1.41,6.09,6.09,0,0,1,1.19,2.21,10.7,10.7,0,0,1,.41,3V66.4a1.38,1.38,0,0,0,1.38,1.38h.1a1.38,1.38,0,0,0,1.38-1.38V55.82a12.42,12.42,0,0,0-.6-4A9,9,0,0,0,116.51,48.73Z"/><path d="M143.64,52.8a10.43,10.43,0,0,0-2.27-3.54,10.87,10.87,0,0,0-3.51-2.41,11.73,11.73,0,0,0-9.06,0,10.74,10.74,0,0,0-5.73,6,11.73,11.73,0,0,0-.78,4.3,11.51,11.51,0,0,0,.78,4.23,10.65,10.65,0,0,0,2.27,3.53,11.6,11.6,0,0,0,12.56,2.41,10.69,10.69,0,0,0,3.5-2.44,10.8,10.8,0,0,0,2.24-3.56,11.82,11.82,0,0,0,.79-4.33A11.62,11.62,0,0,0,143.64,52.8ZM133.4,65.47a8.33,8.33,0,0,1-3.34-.65,8.12,8.12,0,0,1-2.61-1.8,8,8,0,0,1-1.7-2.65,8.67,8.67,0,0,1-.61-3.31,9,9,0,0,1,.59-3.24,7.91,7.91,0,0,1,1.67-2.65A7.81,7.81,0,0,1,130,49.38a8.85,8.85,0,0,1,6.66,0,8,8,0,0,1,2.62,1.79A8.15,8.15,0,0,1,141,53.83a9.31,9.31,0,0,1,0,6.55,7.86,7.86,0,0,1-4.25,4.44A8.31,8.31,0,0,1,133.4,65.47Z"/><circle cx="94.34" cy="41.87" r="1.62"/><path class="cls-1" d="M87.41,84.15H82.27a.46.46,0,0,0-.45.46v.47a.45.45,0,0,0,.45.45h4.66a.48.48,0,0,1,.48.47v3.74a8.64,8.64,0,0,1-.86.61,8.44,8.44,0,0,1-1.2.63,7.85,7.85,0,0,1-1.37.44,7.43,7.43,0,0,1-1.51.16A6.76,6.76,0,0,1,79.69,91a6.11,6.11,0,0,1-2-1.51,6.64,6.64,0,0,1-1.28-2.21,7.87,7.87,0,0,1-.46-2.66A7.38,7.38,0,0,1,76.37,82a7,7,0,0,1,1.33-2.22,6.46,6.46,0,0,1,2-1.55,6.08,6.08,0,0,1,2.7-.59,6.22,6.22,0,0,1,2.58.48,9.09,9.09,0,0,1,2.11,1.31.42.42,0,0,0,.28.1.46.46,0,0,0,.35-.17l.31-.36A.45.45,0,0,0,88,78.4a10.4,10.4,0,0,0-1.19-.88,8.39,8.39,0,0,0-1.27-.64,7.36,7.36,0,0,0-1.43-.4,9.43,9.43,0,0,0-1.66-.14,7.72,7.72,0,0,0-3.31.7,7.91,7.91,0,0,0-2.5,1.85,8.08,8.08,0,0,0-1.59,2.65,9,9,0,0,0-.54,3.09,9.49,9.49,0,0,0,.52,3.19,7.63,7.63,0,0,0,1.55,2.63,7.46,7.46,0,0,0,2.5,1.79,8,8,0,0,0,3.35.67A8.38,8.38,0,0,0,86,92.19a11,11,0,0,0,2.33-1.43,1.4,1.4,0,0,0,.49-1.08V85.53A1.37,1.37,0,0,0,87.41,84.15Z"/><path class="cls-1" d="M99.47,76.75a.46.46,0,0,0-.41-.26h-.41a.46.46,0,0,0-.41.26L91,92a.44.44,0,0,0,0,.43.45.45,0,0,0,.39.21h.49a.46.46,0,0,0,.41-.25l1.91-4a.47.47,0,0,1,.43-.27h8.49a.47.47,0,0,1,.43.27l1.91,4a.45.45,0,0,0,.41.25h.52a.44.44,0,0,0,.4-.64Zm3,9.35a.45.45,0,0,1,0,.45.46.46,0,0,1-.4.22H95.7a.46.46,0,0,1-.4-.22.45.45,0,0,1,0-.45l3.15-6.59a.47.47,0,0,1,.85,0ZM99,78.82a.83.83,0,0,1,.54.29A.83.83,0,0,0,99,78.82Zm-.11,0a.88.88,0,0,0-.47.13A.88.88,0,0,1,98.84,78.79Zm-4,7.12,1.58-3.3-1.58,3.3a.84.84,0,0,0-.08.46A.84.84,0,0,1,94.86,85.91Z"/><path class="cls-1" d="M117.37,76.6H105.94a.45.45,0,0,0-.45.45v.43a.45.45,0,0,0,.45.45h4.55a.48.48,0,0,1,.47.48V92.2a.45.45,0,0,0,.45.45h.48a.45.45,0,0,0,.45-.45V78.41a.48.48,0,0,1,.47-.48h4.56a.45.45,0,0,0,.45-.45v-.43A.45.45,0,0,0,117.37,76.6Zm-6.52,1a.91.91,0,0,1,.49.49A.91.91,0,0,0,110.85,77.56Zm1,.85a.93.93,0,0,1,.92-.93A.93.93,0,0,0,111.89,78.41Z"/><path class="cls-1" d="M131.9,91.32h-9.3a.47.47,0,0,1-.47-.47V85.72a.47.47,0,0,1,.47-.47h8.26a.45.45,0,0,0,.45-.45v-.43a.45.45,0,0,0-.45-.45H122.6a.48.48,0,0,1-.47-.48v-5a.48.48,0,0,1,.47-.48h9.19a.45.45,0,0,0,.45-.45v-.43a.45.45,0,0,0-.45-.45h-9.66A1.38,1.38,0,0,0,120.75,78V91.28a1.37,1.37,0,0,0,1.38,1.37h9.77a.45.45,0,0,0,.45-.45v-.43A.45.45,0,0,0,131.9,91.32Zm-9.3.45a.92.92,0,0,1-.92-.92A.92.92,0,0,0,122.6,91.77Zm-.92-6a.92.92,0,0,1,.92-.92A.92.92,0,0,0,121.68,85.72Zm.92-1.35a.93.93,0,0,1-.92-.93A.93.93,0,0,0,122.6,84.37Zm-.92-6a.93.93,0,0,1,.92-.93A.93.93,0,0,0,121.68,78.41Z"/><path class="cls-1" d="M155.33,76.6h-.49a.45.45,0,0,0-.42.31l-3.88,11.81a.45.45,0,0,1-.44.33.46.46,0,0,1-.45-.33l-3.77-11.85a.44.44,0,0,0-.43-.31h-.37a.45.45,0,0,0-.43.31l-3.74,11.82a.47.47,0,0,1-.9,0l-3.87-11.79a.46.46,0,0,0-.43-.31h-.5a.44.44,0,0,0-.36.19.44.44,0,0,0-.07.4l5.05,15.26a.44.44,0,0,0,.43.31h.41a.45.45,0,0,0,.43-.31l3.71-11.66a.45.45,0,0,1,.45-.33.46.46,0,0,1,.45.32l3.73,11.67a.44.44,0,0,0,.43.31h.41a.44.44,0,0,0,.42-.31l5-15.2a.46.46,0,0,0,.05-.2A.45.45,0,0,0,155.33,76.6Zm-4.71,12.74a1.09,1.09,0,0,1-.17,0A1.09,1.09,0,0,0,150.62,89.34Zm-.53.16a.89.89,0,0,1-.38-.12A.89.89,0,0,0,150.09,89.5Zm-.87-.65a.84.84,0,0,0,.35.48.84.84,0,0,1-.35-.48L145.45,77Zm-8.76.62a1.15,1.15,0,0,0,.35-.1A1.15,1.15,0,0,1,140.46,89.47Zm4.8-9.46a.75.75,0,0,0-.33.1A.75.75,0,0,1,145.26,80Zm-4,8.9a1,1,0,0,1-.28.4A1,1,0,0,0,141.27,88.91Zm-1.14.47c-.06,0-.14,0-.2-.07S140.07,89.35,140.13,89.38Zm.54,2.93,3.71-11.66a.84.84,0,0,1,.35-.48.84.84,0,0,0-.35.48Zm4.89-12.21a.57.57,0,0,1,.22.07A.57.57,0,0,0,145.56,80.1Zm.57.55a.83.83,0,0,0-.27-.38.92.92,0,0,1,.28.38l3.73,11.66Z"/><path class="cls-1" d="M163,76.75a.46.46,0,0,0-.41-.26h-.41a.45.45,0,0,0-.41.26L154.52,92a.44.44,0,0,0,0,.43.43.43,0,0,0,.38.21h.5a.47.47,0,0,0,.41-.25l1.91-4a.47.47,0,0,1,.43-.27h8.49a.45.45,0,0,1,.42.27l1.92,4a.45.45,0,0,0,.4.25h.52a.45.45,0,0,0,.41-.64Zm-4.61,9.16,3.15-6.6a1,1,0,0,1,.35-.39,1,1,0,0,0-.35.39l-3.15,6.6a1,1,0,0,0-.09.46A1,1,0,0,1,158.43,85.91Zm4-6.67a.46.46,0,0,1,.43.27L166,86.1a.45.45,0,0,1,0,.45.46.46,0,0,1-.4.22h-6.3a.46.46,0,0,1-.42-.67L162,79.51A.46.46,0,0,1,162.41,79.24Zm3.93,7.55a.9.9,0,0,1-.78.43A.9.9,0,0,0,166.34,86.79Zm-3.93-8a.91.91,0,0,1,.65.32A.91.91,0,0,0,162.41,78.79Zm-5.08,9.39-1.91,4,1.91-4a1,1,0,0,1,.34-.38A1,1,0,0,0,157.33,88.18Zm10.16,0a.92.92,0,0,0-.83-.52h0a.92.92,0,0,1,.83.52l1.91,4Z"/><path class="cls-1" d="M182.33,76.6h-.58a.44.44,0,0,0-.36.19l-5.3,7.36a.47.47,0,0,1-.38.2.46.46,0,0,1-.38-.2L170,76.79a.45.45,0,0,0-.37-.19h-.56a.46.46,0,0,0-.37.72l6.24,8.56a.55.55,0,0,1,.09.28v6a.45.45,0,0,0,.45.45h.47a.45.45,0,0,0,.45-.45v-6a.47.47,0,0,1,.09-.28l6.19-8.53a.45.45,0,0,0-.33-.75Zm-6.62,8.2a.9.9,0,0,0,.27-.07A.9.9,0,0,1,175.71,84.8Zm.75-.39a.85.85,0,0,1-.34.29A.85.85,0,0,0,176.46,84.41Zm-1,.33s-.1,0-.15,0S175.4,84.72,175.45,84.74Zm-.17.88-6.23-8.57,6.23,8.57a.9.9,0,0,1,.18.54A.9.9,0,0,0,175.28,85.62Zm.83,0a.9.9,0,0,0-.18.54.9.9,0,0,1,.18-.54l6.21-8.57Z"/><path class="cls-2" d="M23.59,66.06c1.09-.73-1.76-.45-2-.94a19.17,19.17,0,0,1-3.38-.6c-2-.53-5.25-4.14-5.77-7.24S10.85,48.6,13,45.1a20.49,20.49,0,0,1,5.19-5.55s-4.22-10-4.58-17.62S13.87.84,18.81.6,23,13,22.19,21.21A105.83,105.83,0,0,0,22,37.62a23.14,23.14,0,0,1,6.51-1.08,24.77,24.77,0,0,1,5.79.54S35.82,25.44,41,18.21,51.62,3.48,55.24,5.6s-1,9.68-4.1,13.61-8.57,9.85-10.38,13a54.46,54.46,0,0,0-3.13,6.51,17.65,17.65,0,0,1,7.56,7.48c2.45,5.06,1.09,11-.23,13.64s-3.19,5-5,5c-1.57.07-8.18,1.72-8.18,1.72Z"/><path d="M31.8,67.19l-10-.66.76-.5a3,3,0,0,1-1.24-.33,21.27,21.27,0,0,1-3.27-.61c-2.24-.59-5.65-4.43-6.2-7.72l-.08-.44c-.54-3.22-1.45-8.61.74-12.14a21.11,21.11,0,0,1,5-5.44c-.82-2-4.13-10.59-4.45-17.39C12.93,19.75,12.2.33,18.78,0a3,3,0,0,1,2.43,1c2.21,2.34,2.73,9,1.57,20.27a106.2,106.2,0,0,0-.29,15.57,23.78,23.78,0,0,1,6-.89,28.73,28.73,0,0,1,5.31.42c.41-2.55,2.18-12.12,6.76-18.51,5.35-7.46,10.89-15.18,15-12.77a3.15,3.15,0,0,1,1.55,2.24c.79,4.23-4.84,11.44-5.48,12.25-1,1.3-2.3,2.79-3.63,4.37a76.14,76.14,0,0,0-6.69,8.54,54,54,0,0,0-2.9,5.94,18.06,18.06,0,0,1,7.34,7.5c2.66,5.51,1,11.67-.23,14.16-.79,1.58-2.92,5.27-5.55,5.38-1.23.06-6.23,1.25-8,1.7Zm-7.42-1.67,7.31.48c.83-.21,6.68-1.64,8.2-1.71,1.37-.06,3.11-1.87,4.54-4.73,1.34-2.68,2.51-8.39.23-13.11a17.18,17.18,0,0,0-7.29-7.2L36.88,39l.2-.52a54.6,54.6,0,0,1,3.17-6.59,77.82,77.82,0,0,1,6.81-8.72c1.33-1.57,2.59-3.05,3.61-4.33,3-3.73,5.74-8.67,5.25-11.3a2,2,0,0,0-1-1.44c-3.21-1.88-8.89,6.07-13.45,12.44-5,7-6.64,18.5-6.65,18.61l-.09.66-.65-.16a24.34,24.34,0,0,0-5.63-.53,22.82,22.82,0,0,0-6.33,1l-.73.25-.05-.76a107.61,107.61,0,0,1,.24-16.52c1.11-10.79.69-17.29-1.25-19.34a1.9,1.9,0,0,0-1.51-.62c-3.67.18-5.11,10.55-4.62,20.71.35,7.4,4.49,17.33,4.53,17.43l.19.44-.4.27a19.91,19.91,0,0,0-5,5.37c-2,3.15-1.1,8.26-.58,11.32l.07.45c.5,3,3.68,6.33,5.34,6.77a18.3,18.3,0,0,0,3.26.58l.34,0,.1.18a5.27,5.27,0,0,0,.8.14C23.6,65,24.2,65,24.38,65.52Z"/><path d="M19.33,39l1.13-.88s-.16-10.29,0-16.57.48-14.07-1.61-14-3.54,6.11-2.73,14.64A103.38,103.38,0,0,0,19.33,39Z"/><path d="M35.17,37.18s3.94-10.29,7.48-16.08,8-9.61,9.44-8.72-2.71,5.75-6.68,11a134.73,134.73,0,0,0-8.79,14.64Z"/><path d="M33.15,58.54a.23.23,0,0,0-.3.08s-.68,1.19-1.67,1.26a2.47,2.47,0,0,1-1.77-.83V57.29c.63-.34,1.66-1.41,1.66-1.77a1.65,1.65,0,0,0-1.76-1.29c-1.17,0-2,.76-2,1.41s1.29,1.45,1.66,1.7v1.72a2.13,2.13,0,0,1-1.54.82c-.94,0-1.65-1.28-1.66-1.29a.22.22,0,0,0-.39.21c0,.06.84,1.52,2.05,1.52a2.5,2.5,0,0,0,1.78-.86,2.81,2.81,0,0,0,1.87.86h.14a3,3,0,0,0,2-1.48A.22.22,0,0,0,33.15,58.54Z"/><path d="M20.47,51.27a1.8,1.8,0,1,0,1.79,1.79A1.79,1.79,0,0,0,20.47,51.27ZM21,52.93a.47.47,0,0,1-.48-.48A.48.48,0,0,1,21,52a.49.49,0,0,1,.49.49A.48.48,0,0,1,21,52.93Z"/><path d="M38.14,51.27a1.8,1.8,0,1,0,1.79,1.79A1.79,1.79,0,0,0,38.14,51.27Zm.51,1.66a.47.47,0,0,1-.48-.48.48.48,0,0,1,.48-.49.49.49,0,0,1,.49.49A.48.48,0,0,1,38.65,52.93Z"/><path d="M49.82,47.06v-8a2.89,2.89,0,0,0,2.27-2.7,3.13,3.13,0,0,0-6.23,0,2.89,2.89,0,0,0,2.26,2.7v7.75H47.9c-2.33-8.2-9.35-13.3-18.48-13.3s-16.15,5-18.47,13.3h-.8a3.25,3.25,0,0,0-3.4,3.06V56a3.26,3.26,0,0,0,3.4,3.06h1.08a15.46,15.46,0,0,0,4.25,6L14,66.47a.94.94,0,0,0-.11,1.33C17.29,72,23,74.42,29.37,74.42S41.44,72,44.89,67.8a.94.94,0,0,0-.11-1.33L43.25,65.1a15.72,15.72,0,0,0,4.25-6h1.19A3.26,3.26,0,0,0,52.09,56V49.92A3.08,3.08,0,0,0,49.82,47.06Zm-20.4-4.79c8.45,0,15.3,5.56,15.3,12.38,0,7.39-7.7,10.7-15.3,10.7S14.12,62,14.12,54.65C14.12,47.83,21,42.27,29.42,42.27Z"/><path class="cls-2" d="M50.39,54H48.12c0-.35.06-.71.06-1.12a23,23,0,0,0-.45-4.48h1a1.59,1.59,0,0,1,1.7,1.53Z"/><path class="cls-2" d="M48.69,57.56H47.5A17.71,17.71,0,0,0,48,55h2.38v1A1.59,1.59,0,0,1,48.69,57.56Z"/><path class="cls-2" d="M29.42,72.84c-5.67,0-10.71-2-13.88-5.65l1.58-1.43a21.12,21.12,0,0,0,12.3,3.52,21.1,21.1,0,0,0,12.3-3.52l1.59,1.43C40.13,70.81,35.09,72.84,29.42,72.84Z"/><path class="cls-2" d="M10.15,48.39h1a23.39,23.39,0,0,0-.45,4.48A7.33,7.33,0,0,0,10.78,54H8.51V49.92A1.51,1.51,0,0,1,10.15,48.39Z"/><path class="cls-2" d="M29.42,41.25a20.5,20.5,0,0,0-5.67.82V35.9a21.53,21.53,0,0,1,11.34,0v6.22A18.75,18.75,0,0,0,29.42,41.25Z"/><path class="cls-2" d="M22.62,36.26v6.22C17,44.57,13,49.25,13,54.65c0,7,6.63,11.72,16.43,11.72s16.44-4.68,16.44-11.72c0-5.4-4-10.08-9.64-12.17V36.26C42.85,38.66,47,44.77,47,52.92c0,9.17-7,15.34-17.57,15.34S11.85,62.09,11.85,52.87C11.85,44.77,16,38.66,22.62,36.26Z"/><path class="cls-2" d="M8.45,55h2.38a20.92,20.92,0,0,0,.51,2.55H10.15A1.59,1.59,0,0,1,8.45,56Z"/><ellipse class="cls-2" cx="48.97" cy="36.41" rx="1.42" ry="1.27"/><path d="M12.33,86.52a4.22,4.22,0,0,0,4.18-3.68h2a1.71,1.71,0,0,0,1.23-.44,2.17,2.17,0,0,0,.55-1.63V71.29a.75.75,0,0,0-1.5,0v9.49a1.13,1.13,0,0,1-.09.55,1.05,1.05,0,0,1-.32,0H16.46a4.23,4.23,0,1,0-4.13,5.18Zm0-7A2.74,2.74,0,1,1,9.6,82.28,2.74,2.74,0,0,1,12.33,79.55Z"/><path d="M30.12,103.45v-29h-1.5v29a4.2,4.2,0,1,0,1.5,0Zm-.86,6.88A2.74,2.74,0,1,1,32,107.59,2.74,2.74,0,0,1,29.26,110.33Z"/><path d="M49.43,92.38v-3a2.16,2.16,0,0,0-.56-1.63,1.9,1.9,0,0,0-1.51-.43l-11.4,0h-.15a1.47,1.47,0,0,1-.32,0,1,1,0,0,1-.1-.56V73.24a.75.75,0,0,0-1.5,0V86.72a2.15,2.15,0,0,0,.56,1.64,1.9,1.9,0,0,0,1.51.43h8l3.37,0h.15a1.05,1.05,0,0,1,.32,0,1,1,0,0,1,.1.55v3a4.25,4.25,0,1,0,1.5,0Zm-.77,6.89a2.74,2.74,0,1,1,2.74-2.73A2.74,2.74,0,0,1,48.66,99.27Z"/><path d="M60.68,75.81a4.23,4.23,0,0,0-4.17,3.53H40.85a1.07,1.07,0,0,1-.32,0,1,1,0,0,1-.1-.56V71.28a.75.75,0,0,0-1.5,0v7.49a2.12,2.12,0,0,0,.56,1.63,1.71,1.71,0,0,0,1.27.44H56.52a4.23,4.23,0,1,0,4.16-5Zm0,7A2.74,2.74,0,1,1,63.41,80,2.74,2.74,0,0,1,60.68,82.78Z"/><path d="M25.17,73.92a.75.75,0,0,0-1.5,0V91.4a1,1,0,0,1-.1.56,1.09,1.09,0,0,1-.32,0H8.36a4.26,4.26,0,1,0,.06,1.5h15A1.7,1.7,0,0,0,24.61,93a2.15,2.15,0,0,0,.56-1.64ZM4.24,95.65A2.74,2.74,0,1,1,7,92.91,2.74,2.74,0,0,1,4.24,95.65Z"/></g></g></svg>